Varta-Bold.ufo
<glyph name="exclam" format="1">
  <advance width="632"/>
  <unicode hex="0021"/>
  <outline>
	<contour>
	  <point x="243" y="432" type="line"/>
	  <point x="389" y="432" type="line"/>
	  <point x="420" y="1149" type="line"/>
	  <point x="426" y="1372" type="line"/>
	  <point x="206" y="1372" type="line"/>
	  <point x="212" y="1149" type="line"/>
	</contour>
	<contour>
	  <point x="171" y="126" type="curve" smooth="yes"/>
	  <point x="171" y="40"/>
	  <point x="235" y="-25"/>
	  <point x="316" y="-25" type="curve" smooth="yes"/>
	  <point x="397" y="-25"/>
	  <point x="461" y="40"/>
	  <point x="461" y="126" type="curve" smooth="yes"/>
	  <point x="461" y="215"/>
	  <point x="397" y="279"/>
	  <point x="316" y="279" type="curve" smooth="yes"/>
	  <point x="235" y="279"/>
	  <point x="171" y="215"/>
	</contour>
  </outline>
</glyph>
<glyph name="quotedbl" format="1">
  <advance width="959"/>
  <unicode hex="0022"/>
  <outline>
	<contour>
	  <point x="211" y="791" type="line"/>
	  <point x="337" y="791" type="line"/>
	  <point x="380" y="1190" type="line"/>
	  <point x="388" y="1410" type="line"/>
	  <point x="161" y="1410" type="line"/>
	  <point x="168" y="1190" type="line"/>
	</contour>
	<contour>
	  <point x="619" y="791" type="line"/>
	  <point x="747" y="791" type="line"/>
	  <point x="789" y="1190" type="line"/>
	  <point x="796" y="1410" type="line"/>
	  <point x="570" y="1410" type="line"/>
	  <point x="575" y="1190" type="line"/>
	</contour>
  </outline>
</glyph>
<glyph name="quotesingle" format="1">
  <advance width="550"/>
  <unicode hex="0027"/>
  <outline>
	<contour>
	  <point x="211" y="791" type="line"/>
	  <point x="337" y="791" type="line"/>
	  <point x="380" y="1190" type="line"/>
	  <point x="388" y="1410" type="line"/>
	  <point x="161" y="1410" type="line"/>
	  <point x="168" y="1190" type="line"/>
	</contour>
  </outline>
</glyph>
<glyph name="parenleft" format="1">
  <advance width="653"/>
  <unicode hex="0028"/>
  <outline>
	<contour>
	  <point x="430" y="-363" type="curve"/>
	  <point x="567" y="-303" type="line"/>
	  <point x="412" y="-40"/>
	  <point x="342" y="228"/>
	  <point x="342" y="569" type="curve" smooth="yes"/>
	  <point x="342" y="911"/>
	  <point x="412" y="1179"/>
	  <point x="567" y="1441" type="curve"/>
	  <point x="430" y="1501" type="line"/>
	  <point x="260" y="1225"/>
	  <point x="160" y="975"/>
	  <point x="160" y="569" type="curve" smooth="yes"/>
	  <point x="160" y="163"/>
	  <point x="260" y="-86"/>
	</contour>
  </outline>
</glyph>
<glyph name="parenright" format="1">
  <advance width="653"/>
  <unicode hex="0029"/>
  <outline>
	<contour>
	  <point x="86" y="-303" type="curve"/>
	  <point x="222" y="-363" type="line"/>
	  <point x="393" y="-86"/>
	  <point x="493" y="209"/>
	  <point x="493" y="569" type="curve" smooth="yes"/>
	  <point x="493" y="930"/>
	  <point x="393" y="1225"/>
	  <point x="222" y="1501" type="curve"/>
	  <point x="86" y="1441" type="line"/>
	  <point x="241" y="1179"/>
	  <point x="314" y="873"/>
	  <point x="314" y="569" type="curve" smooth="yes"/>
	  <point x="314" y="266"/>
	  <point x="241" y="-40"/>
	</contour>
  </outline>
</glyph>
<glyph name="plus" format="1">
  <advance width="1042"/>
  <unicode hex="002B"/>
  <outline>
	<contour>
	  <point x="437" y="205" type="line"/>
	  <point x="604" y="205" type="line"/>
	  <point x="604" y="596" type="line"/>
	  <point x="972" y="596" type="line"/>
	  <point x="972" y="755" type="line"/>
	  <point x="604" y="755" type="line"/>
	  <point x="604" y="1147" type="line"/>
	  <point x="437" y="1147" type="line"/>
	  <point x="437" y="755" type="line"/>
	  <point x="70" y="755" type="line"/>
	  <point x="70" y="596" type="line"/>
	  <point x="437" y="596" type="line"/>
	</contour>
  </outline>
</glyph>
<glyph name="comma" format="1">
  <advance width="550"/>
  <unicode hex="002C"/>
  <outline>
	<contour>
	  <point x="144" y="-387" type="line"/>
	  <point x="338" y="-317"/>
	  <point x="451" y="-147"/>
	  <point x="451" y="48" type="curve" smooth="yes"/>
	  <point x="451" y="192"/>
	  <point x="390" y="279"/>
	  <point x="283" y="279" type="curve" smooth="yes"/>
	  <point x="202" y="279"/>
	  <point x="134" y="226"/>
	  <point x="134" y="141" type="curve" smooth="yes"/>
	  <point x="134" y="52"/>
	  <point x="202" y="3"/>
	  <point x="279" y="3" type="curve" smooth="yes"/>
	  <point x="285" y="3"/>
	  <point x="291" y="3"/>
	  <point x="298" y="5" type="curve"/>
	  <point x="298" y="-104"/>
	  <point x="224" y="-213"/>
	  <point x="95" y="-265" type="curve"/>
	</contour>
  </outline>
</glyph>
<glyph name="slash" format="1">
  <advance width="708"/>
  <unicode hex="002F"/>
  <outline>
	<contour>
	  <point x="23" y="-328" type="line"/>
	  <point x="175" y="-328" type="line"/>
	  <point x="669" y="1454" type="line"/>
	  <point x="518" y="1454" type="line"/>
	</contour>
  </outline>
</glyph>
<glyph name="seven" format="1">
  <advance width="1042"/>
  <unicode hex="0037"/>
  <outline>
	<contour>
	  <point x="348" y="0" type="curve"/>
	  <point x="572" y="0" type="line"/>
	  <point x="590" y="509"/>
	  <point x="650" y="825"/>
	  <point x="956" y="1208" type="curve"/>
	  <point x="956" y="1343" type="line"/>
	  <point x="90" y="1343" type="line"/>
	  <point x="90" y="1156" type="line"/>
	  <point x="715" y="1156" type="line"/>
	  <point x="462" y="805"/>
	  <point x="367" y="469"/>
	</contour>
  </outline>
</glyph>
<glyph name="colon" format="1">
  <advance width="550"/>
  <unicode hex="003A"/>
  <outline>
	<contour>
	  <point x="130" y="836" type="curve" smooth="yes"/>
	  <point x="130" y="749"/>
	  <point x="194" y="686"/>
	  <point x="275" y="686" type="curve" smooth="yes"/>
	  <point x="356" y="686"/>
	  <point x="420" y="749"/>
	  <point x="420" y="836" type="curve" smooth="yes"/>
	  <point x="420" y="926"/>
	  <point x="356" y="989"/>
	  <point x="275" y="989" type="curve" smooth="yes"/>
	  <point x="194" y="989"/>
	  <point x="130" y="926"/>
	</contour>
	<contour>
	  <point x="130" y="126" type="curve" smooth="yes"/>
	  <point x="130" y="40"/>
	  <point x="194" y="-25"/>
	  <point x="275" y="-25" type="curve" smooth="yes"/>
	  <point x="356" y="-25"/>
	  <point x="420" y="40"/>
	  <point x="420" y="126" type="curve" smooth="yes"/>
	  <point x="420" y="215"/>
	  <point x="356" y="279"/>
	  <point x="275" y="279" type="curve" smooth="yes"/>
	  <point x="194" y="279"/>
	  <point x="130" y="215"/>
	</contour>
  </outline>
</glyph>
<glyph name="semicolon" format="1">
  <advance width="550"/>
  <unicode hex="003B"/>
  <outline>
	<contour>
	  <point x="275" y="686" type="curve" smooth="yes"/>
	  <point x="356" y="686"/>
	  <point x="420" y="749"/>
	  <point x="420" y="836" type="curve" smooth="yes"/>
	  <point x="420" y="926"/>
	  <point x="356" y="989"/>
	  <point x="275" y="989" type="curve" smooth="yes"/>
	  <point x="194" y="989"/>
	  <point x="130" y="926"/>
	  <point x="130" y="836" type="curve" smooth="yes"/>
	  <point x="130" y="749"/>
	  <point x="194" y="686"/>
	</contour>
	<contour>
	  <point x="144" y="-367" type="line"/>
	  <point x="338" y="-297"/>
	  <point x="451" y="-147"/>
	  <point x="451" y="48" type="curve" smooth="yes"/>
	  <point x="451" y="192"/>
	  <point x="390" y="279"/>
	  <point x="283" y="279" type="curve" smooth="yes"/>
	  <point x="202" y="279"/>
	  <point x="134" y="226"/>
	  <point x="134" y="141" type="curve" smooth="yes"/>
	  <point x="134" y="52"/>
	  <point x="202" y="3"/>
	  <point x="279" y="3" type="curve" smooth="yes"/>
	  <point x="285" y="3"/>
	  <point x="291" y="3"/>
	  <point x="298" y="5" type="curve"/>
	  <point x="298" y="-104"/>
	  <point x="224" y="-193"/>
	  <point x="95" y="-245" type="curve"/>
	</contour>
  </outline>
</glyph>
<glyph name="less" format="1">
  <advance width="1042"/>
  <unicode hex="003C"/>
  <outline>
	<contour>
	  <point x="70" y="598" type="line"/>
	  <point x="972" y="247" type="line"/>
	  <point x="972" y="432" type="line"/>
	  <point x="568" y="576" type="line"/>
	  <point x="293" y="676" type="line"/>
	  <point x="293" y="684" type="line"/>
	  <point x="568" y="784" type="line"/>
	  <point x="972" y="928" type="line"/>
	  <point x="972" y="1113" type="line"/>
	  <point x="70" y="762" type="line"/>
	</contour>
  </outline>
</glyph>
<glyph name="greater" format="1">
  <advance width="1042"/>
  <unicode hex="003E"/>
  <outline>
	<contour>
	  <point x="972" y="762" type="line"/>
	  <point x="70" y="1113" type="line"/>
	  <point x="70" y="928" type="line"/>
	  <point x="475" y="784" type="line"/>
	  <point x="750" y="684" type="line"/>
	  <point x="750" y="676" type="line"/>
	  <point x="475" y="576" type="line"/>
	  <point x="70" y="432" type="line"/>
	  <point x="70" y="247" type="line"/>
	  <point x="972" y="598" type="line"/>
	</contour>
  </outline>
</glyph>
<glyph name="question" format="1">
  <advance width="900"/>
  <unicode hex="003F"/>
  <outline>
	<contour>
	  <point x="323" y="432" type="curve"/>
	  <point x="515" y="432" type="line"/>
	  <point x="472" y="705"/>
	  <point x="806" y="762"/>
	  <point x="806" y="1070" type="curve" smooth="yes"/>
	  <point x="806" y="1302"/>
	  <point x="667" y="1397"/>
	  <point x="441" y="1397" type="curve" smooth="yes"/>
	  <point x="289" y="1397"/>
	  <point x="164" y="1334"/>
	  <point x="75" y="1231" type="curve"/>
	  <point x="198" y="1113" type="line"/>
	  <point x="259" y="1179"/>
	  <point x="321" y="1215"/>
	  <point x="417" y="1215" type="curve" smooth="yes"/>
	  <point x="534" y="1215"/>
	  <point x="595" y="1168"/>
	  <point x="595" y="1054" type="curve" smooth="yes"/>
	  <point x="595" y="815"/>
	  <point x="260" y="742"/>
	</contour>
	<contour>
	  <point x="282" y="126" type="curve" smooth="yes"/>
	  <point x="282" y="40"/>
	  <point x="344" y="-25"/>
	  <point x="425" y="-25" type="curve" smooth="yes"/>
	  <point x="507" y="-25"/>
	  <point x="571" y="40"/>
	  <point x="571" y="126" type="curve" smooth="yes"/>
	  <point x="571" y="215"/>
	  <point x="507" y="279"/>
	  <point x="425" y="279" type="curve" smooth="yes"/>
	  <point x="344" y="279"/>
	  <point x="282" y="215"/>
	</contour>
  </outline>
</glyph>
<glyph name="D" format="1">
  <advance width="1270"/>
  <unicode hex="0044"/>
  <outline>
	<contour>
	  <point x="170" y="0" type="line"/>
	  <point x="540" y="0" type="line"/>
	  <point x="940" y="0"/>
	  <point x="1169" y="235"/>
	  <point x="1169" y="678" type="curve" smooth="yes"/>
	  <point x="1169" y="1127"/>
	  <point x="950" y="1340"/>
	  <point x="534" y="1340" type="curve" smooth="yes"/>
	  <point x="170" y="1340" type="line"/>
	</contour>
	<contour>
	  <point x="392" y="179" type="line"/>
	  <point x="392" y="1161" type="line"/>
	  <point x="520" y="1161" type="line"/>
	  <point x="805" y="1161"/>
	  <point x="943" y="1018"/>
	  <point x="943" y="678" type="curve" smooth="yes"/>
	  <point x="943" y="341"/>
	  <point x="795" y="179"/>
	  <point x="514" y="179" type="curve" smooth="yes"/>
	</contour>
	<contour>
	  <point x="626" y="-45" type="move" name="mark0"/>
	</contour>
  </outline>
</glyph>
<glyph name="E" format="1">
  <advance width="1088"/>
  <unicode hex="0045"/>
  <outline>
	<contour>
	  <point x="170" y="0" type="line"/>
	  <point x="989" y="0" type="line"/>
	  <point x="989" y="187" type="line"/>
	  <point x="392" y="187" type="line"/>
	  <point x="392" y="606" type="line"/>
	  <point x="879" y="606" type="line"/>
	  <point x="879" y="791" type="line"/>
	  <point x="392" y="791" type="line"/>
	  <point x="392" y="1155" type="line"/>
	  <point x="968" y="1155" type="line"/>
	  <point x="968" y="1340" type="line"/>
	  <point x="170" y="1340" type="line"/>
	</contour>
	<contour>
	  <point x="796" y="0" type="move" name="mark0"/>
	</contour>
  </outline>
</glyph>
<glyph name="H" format="1">
  <advance width="1344"/>
  <unicode hex="0048"/>
  <outline>
	<contour>
	  <point x="170" y="0" type="line"/>
	  <point x="392" y="0" type="line"/>
	  <point x="392" y="604" type="line"/>
	  <point x="954" y="604" type="line"/>
	  <point x="954" y="0" type="line"/>
	  <point x="1174" y="0" type="line"/>
	  <point x="1174" y="1340" type="line"/>
	  <point x="954" y="1340" type="line"/>
	  <point x="954" y="796" type="line"/>
	  <point x="392" y="796" type="line"/>
	  <point x="392" y="1340" type="line"/>
	  <point x="170" y="1340" type="line"/>
	</contour>
	<contour>
	  <point x="669" y="-45" type="move" name="mark0"/>
	</contour>
  </outline>
</glyph>
<glyph name="I" format="1">
  <advance width="561"/>
  <unicode hex="0049"/>
  <outline>
	<contour>
	  <point x="170" y="0" type="line"/>
	  <point x="392" y="0" type="line"/>
	  <point x="392" y="1340" type="line"/>
	  <point x="170" y="1340" type="line"/>
	</contour>
	<contour>
	  <point x="236" y="0" type="move" name="mark0"/>
	</contour>
  </outline>
</glyph>
<glyph name="O" format="1">
  <advance width="1369"/>
  <unicode hex="004F"/>
  <outline>
	<contour>
	  <point x="683" y="-25" type="curve" smooth="yes"/>
	  <point x="1040" y="-25"/>
	  <point x="1270" y="228"/>
	  <point x="1270" y="675" type="curve" smooth="yes"/>
	  <point x="1270" y="1118"/>
	  <point x="1040" y="1365"/>
	  <point x="683" y="1365" type="curve" smooth="yes"/>
	  <point x="326" y="1365"/>
	  <point x="97" y="1120"/>
	  <point x="97" y="675" type="curve" smooth="yes"/>
	  <point x="97" y="228"/>
	  <point x="326" y="-25"/>
	</contour>
	<contour>
	  <point x="683" y="167" type="curve" smooth="yes"/>
	  <point x="456" y="167"/>
	  <point x="324" y="355"/>
	  <point x="324" y="675" type="curve" smooth="yes"/>
	  <point x="324" y="992"/>
	  <point x="456" y="1174"/>
	  <point x="683" y="1174" type="curve" smooth="yes"/>
	  <point x="908" y="1174"/>
	  <point x="1043" y="992"/>
	  <point x="1043" y="675" type="curve" smooth="yes"/>
	  <point x="1043" y="355"/>
	  <point x="908" y="167"/>
	</contour>
	<contour>
	  <point x="684" y="0" type="move" name="mark0"/>
	</contour>
  </outline>
</glyph>
<glyph name="P" format="1">
  <advance width="1196"/>
  <unicode hex="0050"/>
  <outline>
	<contour>
	  <point x="170" y="0" type="line"/>
	  <point x="392" y="0" type="line"/>
	  <point x="392" y="485" type="line"/>
	  <point x="623" y="485" type="line"/>
	  <point x="920" y="485"/>
	  <point x="1117" y="632"/>
	  <point x="1117" y="925" type="curve" smooth="yes"/>
	  <point x="1117" y="1232"/>
	  <point x="928" y="1340"/>
	  <point x="621" y="1340" type="curve" smooth="yes"/>
	  <point x="170" y="1340" type="line"/>
	</contour>
	<contour>
	  <point x="392" y="663" type="line"/>
	  <point x="392" y="1164" type="line"/>
	  <point x="604" y="1164" type="line"/>
	  <point x="815" y="1164"/>
	  <point x="900" y="1099"/>
	  <point x="900" y="925" type="curve" smooth="yes"/>
	  <point x="900" y="755"/>
	  <point x="818" y="663"/>
	  <point x="602" y="663" type="curve" smooth="yes"/>
	</contour>
	<contour>
	  <point x="296" y="-45" type="move" name="mark0"/>
	</contour>
  </outline>
</glyph>
<glyph name="Q" format="1">
  <advance width="1369"/>
  <unicode hex="0051"/>
  <outline>
	<contour>
	  <point x="320" y="676" type="curve" smooth="yes"/>
	  <point x="320" y="992"/>
	  <point x="455" y="1174"/>
	  <point x="679" y="1174" type="curve" smooth="yes"/>
	  <point x="903" y="1174"/>
	  <point x="1038" y="992"/>
	  <point x="1038" y="676" type="curve" smooth="yes"/>
	  <point x="1038" y="358"/>
	  <point x="903" y="167"/>
	  <point x="679" y="167" type="curve" smooth="yes"/>
	  <point x="455" y="167"/>
	  <point x="320" y="358"/>
	</contour>
	<contour>
	  <point x="1270" y="-145" type="line"/>
	  <point x="1233" y="-156"/>
	  <point x="1177" y="-167"/>
	  <point x="1118" y="-167" type="curve" smooth="yes"/>
	  <point x="985" y="-167"/>
	  <point x="851" y="-119"/>
	  <point x="811" y="-10" type="curve"/>
	  <point x="1086" y="49"/>
	  <point x="1266" y="289"/>
	  <point x="1266" y="676" type="curve" smooth="yes"/>
	  <point x="1266" y="1117"/>
	  <point x="1036" y="1365"/>
	  <point x="679" y="1365" type="curve" smooth="yes"/>
	  <point x="323" y="1365"/>
	  <point x="93" y="1119"/>
	  <point x="93" y="676" type="curve" smooth="yes"/>
	  <point x="93" y="278"/>
	  <point x="285" y="33"/>
	  <point x="575" y="-15" type="curve"/>
	  <point x="644" y="-214"/>
	  <point x="832" y="-347"/>
	  <point x="1093" y="-347" type="curve" smooth="yes"/>
	  <point x="1182" y="-347"/>
	  <point x="1267" y="-329"/>
	  <point x="1311" y="-311" type="curve"/>
	</contour>
	<contour>
	  <point x="690" y="1397" type="move" name="mark0"/>
	</contour>
  </outline>
</glyph>
<glyph name="T" format="1">
  <advance width="1106"/>
  <unicode hex="0054"/>
  <outline>
	<contour>
	  <point x="443" y="0" type="line"/>
	  <point x="663" y="0" type="line"/>
	  <point x="663" y="1155" type="line"/>
	  <point x="1055" y="1155" type="line"/>
	  <point x="1055" y="1340" type="line"/>
	  <point x="50" y="1340" type="line"/>
	  <point x="50" y="1155" type="line"/>
	  <point x="443" y="1155" type="line"/>
	</contour>
	<contour>
	  <point x="553" y="-45" type="move" name="mark0"/>
	</contour>
  </outline>
</glyph>
<glyph name="U" format="1">
  <advance width="1329"/>
  <unicode hex="0055"/>
  <outline>
	<contour>
	  <point x="164" y="571" type="line"/>
	  <point x="164" y="136"/>
	  <point x="364" y="-25"/>
	  <point x="665" y="-25" type="curve" smooth="yes"/>
	  <point x="967" y="-25"/>
	  <point x="1166" y="134"/>
	  <point x="1166" y="571" type="curve" smooth="yes"/>
	  <point x="1166" y="1340" type="line"/>
	  <point x="954" y="1340" type="line"/>
	  <point x="954" y="557" type="line"/>
	  <point x="954" y="258"/>
	  <point x="833" y="167"/>
	  <point x="665" y="167" type="curve" smooth="yes"/>
	  <point x="500" y="167"/>
	  <point x="385" y="259"/>
	  <point x="385" y="557" type="curve" smooth="yes"/>
	  <point x="385" y="1340" type="line"/>
	  <point x="164" y="1340" type="line"/>
	</contour>
	<contour>
	  <point x="664" y="0" type="move" name="mark0"/>
	</contour>
  </outline>
</glyph>
<glyph name="V" format="1">
  <advance width="1079"/>
  <unicode hex="0056"/>
  <outline>
	<contour>
	  <point x="410" y="0" type="line"/>
	  <point x="671" y="0" type="line"/>
	  <point x="1089" y="1340" type="line"/>
	  <point x="863" y="1340" type="line"/>
	  <point x="669" y="654" type="line"/>
	  <point x="627" y="500"/>
	  <point x="596" y="370"/>
	  <point x="549" y="216" type="curve"/>
	  <point x="541" y="216" type="line"/>
	  <point x="495" y="370"/>
	  <point x="464" y="500"/>
	  <point x="420" y="654" type="curve" smooth="yes"/>
	  <point x="224" y="1340" type="line"/>
	  <point x="-9" y="1340" type="line"/>
	</contour>
	<contour>
	  <point x="538" y="-45" type="move" name="mark0"/>
	</contour>
  </outline>
</glyph>
<glyph name="Y" format="1">
  <advance width="1006"/>
  <unicode hex="0059"/>
  <outline>
	<contour>
	  <point x="392" y="0" type="line"/>
	  <point x="612" y="0" type="line"/>
	  <point x="612" y="503" type="line"/>
	  <point x="1016" y="1340" type="line"/>
	  <point x="787" y="1340" type="line"/>
	  <point x="634" y="989" type="line"/>
	  <point x="595" y="890"/>
	  <point x="550" y="796"/>
	  <point x="508" y="695" type="curve"/>
	  <point x="500" y="695" type="line"/>
	  <point x="456" y="796"/>
	  <point x="418" y="890"/>
	  <point x="378" y="989" type="curve" smooth="yes"/>
	  <point x="225" y="1340" type="line"/>
	  <point x="-11" y="1340" type="line"/>
	  <point x="392" y="503" type="line"/>
	</contour>
	<contour>
	  <point x="506" y="-45" type="move" name="mark0"/>
	</contour>
  </outline>
</glyph>
<glyph name="Z" format="1">
  <advance width="1099"/>
  <unicode hex="005A"/>
  <outline>
	<contour>
	  <point x="81" y="0" type="line"/>
	  <point x="1022" y="0" type="line"/>
	  <point x="1022" y="187" type="line"/>
	  <point x="353" y="187" type="line"/>
	  <point x="1017" y="1209" type="line"/>
	  <point x="1017" y="1340" type="line"/>
	  <point x="141" y="1340" type="line"/>
	  <point x="141" y="1155" type="line"/>
	  <point x="744" y="1155" type="line"/>
	  <point x="81" y="133" type="line"/>
	</contour>
	<contour>
	  <point x="573" y="-45" type="move" name="mark0"/>
	</contour>
  </outline>
</glyph>
<glyph name="bracketleft" format="1">
  <advance width="653"/>
  <unicode hex="005B"/>
  <outline>
	<contour>
	  <point x="187" y="-311" type="line"/>
	  <point x="578" y="-311" type="line"/>
	  <point x="578" y="-191" type="line"/>
	  <point x="351" y="-191" type="line"/>
	  <point x="351" y="1328" type="line"/>
	  <point x="578" y="1328" type="line"/>
	  <point x="578" y="1450" type="line"/>
	  <point x="187" y="1450" type="line"/>
	</contour>
  </outline>
</glyph>
<glyph name="backslash" format="1">
  <advance width="708"/>
  <unicode hex="005C"/>
  <outline>
	<contour>
	  <point x="533" y="-328" type="line"/>
	  <point x="685" y="-328" type="line"/>
	  <point x="190" y="1454" type="line"/>
	  <point x="40" y="1454" type="line"/>
	</contour>
  </outline>
</glyph>
<glyph name="bracketright" format="1">
  <advance width="653"/>
  <unicode hex="005D"/>
  <outline>
	<contour>
	  <point x="75" y="-191" type="line"/>
	  <point x="75" y="-311" type="line"/>
	  <point x="465" y="-311" type="line"/>
	  <point x="465" y="1450" type="line"/>
	  <point x="75" y="1450" type="line"/>
	  <point x="75" y="1328" type="line"/>
	  <point x="302" y="1328" type="line"/>
	  <point x="302" y="-191" type="line"/>
	</contour>
  </outline>
</glyph>
<glyph name="asciicircum" format="1">
  <advance width="1042"/>
  <unicode hex="005E"/>
  <outline>
	<contour>
	  <point x="115" y="574" type="line"/>
	  <point x="301" y="574" type="line"/>
	  <point x="419" y="897" type="line"/>
	  <point x="518" y="1170" type="line"/>
	  <point x="526" y="1170" type="line"/>
	  <point x="623" y="897" type="line"/>
	  <point x="742" y="574" type="line"/>
	  <point x="927" y="574" type="line"/>
	  <point x="614" y="1372" type="line"/>
	  <point x="429" y="1372" type="line"/>
	</contour>
  </outline>
</glyph>
<glyph name="grave" format="1">
  <advance width="1120"/>
  <unicode hex="0060"/>
  <outline>
	<contour>
	  <point x="543" y="1175" type="line"/>
	  <point x="706" y="1175" type="line"/>
	  <point x="523" y="1470" type="line"/>
	  <point x="303" y="1470" type="line"/>
	</contour>
  </outline>
</glyph>
<glyph name="b" format="1">
  <advance width="1151"/>
  <unicode hex="0062"/>
  <outline>
	<contour>
	  <point x="155" y="0" type="line"/>
	  <point x="328" y="0" type="line"/>
	  <point x="346" y="101" type="line"/>
	  <point x="353" y="101" type="line"/>
	  <point x="438" y="20"/>
	  <point x="536" y="-25"/>
	  <point x="631" y="-25" type="curve" smooth="yes"/>
	  <point x="862" y="-25"/>
	  <point x="1059" y="160"/>
	  <point x="1059" y="517" type="curve" smooth="yes"/>
	  <point x="1059" y="838"/>
	  <point x="926" y="1028"/>
	  <point x="664" y="1028" type="curve" smooth="yes"/>
	  <point x="556" y="1028"/>
	  <point x="453" y="975"/>
	  <point x="368" y="899" type="curve"/>
	  <point x="373" y="1069" type="line"/>
	  <point x="373" y="1450" type="line"/>
	  <point x="155" y="1450" type="line"/>
	</contour>
	<contour>
	  <point x="373" y="246" type="curve"/>
	  <point x="373" y="727" type="line"/>
	  <point x="454" y="806"/>
	  <point x="526" y="847"/>
	  <point x="604" y="847" type="curve" smooth="yes"/>
	  <point x="773" y="847"/>
	  <point x="833" y="724"/>
	  <point x="833" y="514" type="curve" smooth="yes"/>
	  <point x="833" y="276"/>
	  <point x="730" y="157"/>
	  <point x="585" y="157" type="curve" smooth="yes"/>
	  <point x="523" y="157"/>
	  <point x="448" y="180"/>
	</contour>
	<contour>
	  <point x="589" y="-45" type="move" name="mark0"/>
	</contour>
  </outline>
</glyph>
<glyph name="d" format="1">
  <advance width="1151"/>
  <unicode hex="0064"/>
  <outline>
	<contour>
	  <point x="90" y="502" type="curve" smooth="yes"/>
	  <point x="90" y="161"/>
	  <point x="255" y="-25"/>
	  <point x="503" y="-25" type="curve" smooth="yes"/>
	  <point x="613" y="-25"/>
	  <point x="717" y="36"/>
	  <point x="793" y="111" type="curve"/>
	  <point x="799" y="111" type="line"/>
	  <point x="816" y="0" type="line"/>
	  <point x="996" y="0" type="line"/>
	  <point x="996" y="1450" type="line"/>
	  <point x="776" y="1450" type="line"/>
	  <point x="776" y="1081" type="line"/>
	  <point x="786" y="916" type="line"/>
	  <point x="705" y="985"/>
	  <point x="632" y="1028"/>
	  <point x="518" y="1028" type="curve" smooth="yes"/>
	  <point x="289" y="1028"/>
	  <point x="90" y="837"/>
	</contour>
	<contour>
	  <point x="314" y="505" type="curve" smooth="yes"/>
	  <point x="314" y="725"/>
	  <point x="421" y="847"/>
	  <point x="562" y="847" type="curve" smooth="yes"/>
	  <point x="634" y="847"/>
	  <point x="704" y="823"/>
	  <point x="776" y="757" type="curve"/>
	  <point x="776" y="277" type="line"/>
	  <point x="707" y="194"/>
	  <point x="638" y="157"/>
	  <point x="556" y="157" type="curve" smooth="yes"/>
	  <point x="398" y="157"/>
	  <point x="314" y="275"/>
	</contour>
	<contour>
	  <point x="625" y="-45" type="move" name="mark0"/>
	</contour>
  </outline>
</glyph>
<glyph name="e" format="1">
  <advance width="1033"/>
  <unicode hex="0065"/>
  <outline>
	<contour>
	  <point x="86" y="501" type="curve" smooth="yes"/>
	  <point x="86" y="165"/>
	  <point x="302" y="-25"/>
	  <point x="577" y="-25" type="curve" smooth="yes"/>
	  <point x="708" y="-25"/>
	  <point x="824" y="16"/>
	  <point x="916" y="77" type="curve"/>
	  <point x="842" y="214" type="line"/>
	  <point x="768" y="168"/>
	  <point x="693" y="147"/>
	  <point x="606" y="147" type="curve" smooth="yes"/>
	  <point x="436" y="147"/>
	  <point x="314" y="251"/>
	  <point x="300" y="448" type="curve"/>
	  <point x="948" y="448" type="line"/>
	  <point x="952" y="472"/>
	  <point x="956" y="511"/>
	  <point x="956" y="553" type="curve" smooth="yes"/>
	  <point x="956" y="841"/>
	  <point x="822" y="1028"/>
	  <point x="544" y="1028" type="curve" smooth="yes"/>
	  <point x="300" y="1028"/>
	  <point x="86" y="838"/>
	</contour>
	<contour>
	  <point x="298" y="587" type="line"/>
	  <point x="317" y="769"/>
	  <point x="421" y="858"/>
	  <point x="549" y="858" type="curve" smooth="yes"/>
	  <point x="697" y="858"/>
	  <point x="767" y="763"/>
	  <point x="767" y="587" type="curve"/>
	</contour>
	<contour>
	  <point x="803" y="0" type="move" name="mark0"/>
	</contour>
  </outline>
</glyph>
<glyph name="h" format="1">
  <advance width="1135"/>
  <unicode hex="0068"/>
  <outline>
	<contour>
	  <point x="155" y="0" type="line"/>
	  <point x="373" y="0" type="line"/>
	  <point x="373" y="708" type="line"/>
	  <point x="460" y="794"/>
	  <point x="522" y="840"/>
	  <point x="614" y="840" type="curve" smooth="yes"/>
	  <point x="731" y="840"/>
	  <point x="778" y="776"/>
	  <point x="778" y="604" type="curve" smooth="yes"/>
	  <point x="778" y="0" type="line"/>
	  <point x="997" y="0" type="line"/>
	  <point x="997" y="633" type="line"/>
	  <point x="997" y="887"/>
	  <point x="906" y="1028"/>
	  <point x="689" y="1028" type="curve" smooth="yes"/>
	  <point x="551" y="1028"/>
	  <point x="451" y="955"/>
	  <point x="364" y="873" type="curve"/>
	  <point x="373" y="1069" type="line"/>
	  <point x="373" y="1450" type="line"/>
	  <point x="155" y="1450" type="line"/>
	</contour>
	<contour>
	  <point x="591" y="-45" type="move" name="mark0"/>
	</contour>
  </outline>
</glyph>
<glyph name="j" format="1">
  <advance width="530"/>
  <unicode hex="006A"/>
  <outline>
	<contour>
	  <point x="157" y="-74" type="line"/>
	  <point x="157" y="-192"/>
	  <point x="131" y="-253"/>
	  <point x="40" y="-253" type="curve" smooth="yes"/>
	  <point x="7" y="-253"/>
	  <point x="-24" y="-246"/>
	  <point x="-49" y="-238" type="curve"/>
	  <point x="-90" y="-401" type="line"/>
	  <point x="-53" y="-416"/>
	  <point x="-1" y="-428"/>
	  <point x="69" y="-428" type="curve" smooth="yes"/>
	  <point x="297" y="-428"/>
	  <point x="375" y="-281"/>
	  <point x="375" y="-71" type="curve" smooth="yes"/>
	  <point x="375" y="1003" type="line"/>
	  <point x="157" y="1003" type="line"/>
	</contour>
	<contour>
	  <point x="268" y="1187" type="curve" smooth="yes"/>
	  <point x="345" y="1187"/>
	  <point x="405" y="1240"/>
	  <point x="405" y="1314" type="curve" smooth="yes"/>
	  <point x="405" y="1390"/>
	  <point x="345" y="1441"/>
	  <point x="268" y="1441" type="curve" smooth="yes"/>
	  <point x="188" y="1441"/>
	  <point x="129" y="1390"/>
	  <point x="129" y="1314" type="curve" smooth="yes"/>
	  <point x="129" y="1240"/>
	  <point x="188" y="1187"/>
	</contour>
	<contour>
	  <point x="137" y="-476" type="move" name="mark0"/>
	</contour>
  </outline>
</glyph>
<glyph name="k" format="1">
  <advance width="1055"/>
  <unicode hex="006B"/>
  <outline>
	<contour>
	  <point x="155" y="0" type="line"/>
	  <point x="369" y="0" type="line"/>
	  <point x="369" y="257" type="line"/>
	  <point x="533" y="447" type="line"/>
	  <point x="801" y="0" type="line"/>
	  <point x="1039" y="0" type="line"/>
	  <point x="658" y="597" type="line"/>
	  <point x="1001" y="1003" type="line"/>
	  <point x="761" y="1003" type="line"/>
	  <point x="376" y="525" type="line"/>
	  <point x="369" y="525" type="line"/>
	  <point x="369" y="1450" type="line"/>
	  <point x="155" y="1450" type="line"/>
	</contour>
	<contour>
	  <point x="574" y="-45" type="move" name="mark0"/>
	</contour>
  </outline>
</glyph>
<glyph name="q" format="1">
  <advance width="1143"/>
  <unicode hex="0071"/>
  <outline>
	<contour>
	  <point x="90" y="499" type="curve" smooth="yes"/>
	  <point x="90" y="161"/>
	  <point x="248" y="-25"/>
	  <point x="504" y="-25" type="curve" smooth="yes"/>
	  <point x="613" y="-25"/>
	  <point x="711" y="32"/>
	  <point x="786" y="102" type="curve"/>
	  <point x="776" y="-67" type="line"/>
	  <point x="776" y="-404" type="line"/>
	  <point x="996" y="-404" type="line"/>
	  <point x="996" y="1003" type="line"/>
	  <point x="823" y="1003" type="line"/>
	  <point x="803" y="906" type="line"/>
	  <point x="797" y="906" type="line"/>
	  <point x="711" y="987"/>
	  <point x="635" y="1028"/>
	  <point x="519" y="1028" type="curve" smooth="yes"/>
	  <point x="292" y="1028"/>
	  <point x="90" y="832"/>
	</contour>
	<contour>
	  <point x="315" y="502" type="curve" smooth="yes"/>
	  <point x="315" y="720"/>
	  <point x="425" y="847"/>
	  <point x="564" y="847" type="curve" smooth="yes"/>
	  <point x="638" y="847"/>
	  <point x="704" y="823"/>
	  <point x="776" y="757" type="curve"/>
	  <point x="776" y="277" type="line"/>
	  <point x="707" y="194"/>
	  <point x="641" y="157"/>
	  <point x="558" y="157" type="curve" smooth="yes"/>
	  <point x="401" y="157"/>
	  <point x="315" y="273"/>
	</contour>
	<contour>
	  <point x="875" y="-446" type="move" name="mark0"/>
	</contour>
  </outline>
</glyph>
<glyph name="u" format="1">
  <advance width="1133"/>
  <unicode hex="0075"/>
  <outline>
	<contour>
	  <point x="142" y="370" type="line"/>
	  <point x="142" y="116"/>
	  <point x="230" y="-25"/>
	  <point x="451" y="-25" type="curve" smooth="yes"/>
	  <point x="595" y="-25"/>
	  <point x="686" y="44"/>
	  <point x="775" y="150" type="curve"/>
	  <point x="782" y="150" type="line"/>
	  <point x="799" y="0" type="line"/>
	  <point x="979" y="0" type="line"/>
	  <point x="979" y="1003" type="line"/>
	  <point x="760" y="1003" type="line"/>
	  <point x="760" y="310" type="line"/>
	  <point x="679" y="207"/>
	  <point x="624" y="163"/>
	  <point x="526" y="163" type="curve" smooth="yes"/>
	  <point x="405" y="163"/>
	  <point x="362" y="228"/>
	  <point x="362" y="399" type="curve" smooth="yes"/>
	  <point x="362" y="1003" type="line"/>
	  <point x="142" y="1003" type="line"/>
	</contour>
	<contour>
	  <point x="898" y="0" type="move" name="mark0"/>
	</contour>
  </outline>
</glyph>
<glyph name="y" format="1">
  <advance width="998"/>
  <unicode hex="0079"/>
  <outline>
	<contour>
	  <point x="121" y="-226" type="curve"/>
	  <point x="81" y="-396" type="line"/>
	  <point x="116" y="-408"/>
	  <point x="156" y="-416"/>
	  <point x="208" y="-416" type="curve" smooth="yes"/>
	  <point x="423" y="-416"/>
	  <point x="528" y="-274"/>
	  <point x="608" y="-55" type="curve" smooth="yes"/>
	  <point x="974" y="1003" type="line"/>
	  <point x="760" y="1003" type="line"/>
	  <point x="604" y="496" type="line"/>
	  <point x="578" y="404"/>
	  <point x="554" y="305"/>
	  <point x="527" y="212" type="curve"/>
	  <point x="519" y="212" type="line"/>
	  <point x="490" y="308"/>
	  <point x="459" y="407"/>
	  <point x="428" y="496" type="curve" smooth="yes"/>
	  <point x="248" y="1003" type="line"/>
	  <point x="25" y="1003" type="line"/>
	  <point x="421" y="9" type="line"/>
	  <point x="401" y="-57" type="line"/>
	  <point x="366" y="-164"/>
	  <point x="302" y="-240"/>
	  <point x="194" y="-240" type="curve" smooth="yes"/>
	  <point x="171" y="-240"/>
	  <point x="141" y="-232"/>
	</contour>
	<contour>
	  <point x="431" y="-495" type="move" name="mark0"/>
	</contour>
  </outline>
</glyph>
<glyph name="bar" format="1">
  <advance width="515"/>
  <unicode hex="007C"/>
  <outline>
	<contour>
	  <point x="183" y="-512" type="line"/>
	  <point x="332" y="-512" type="line"/>
	  <point x="332" y="1536" type="line"/>
	  <point x="183" y="1536" type="line"/>
	</contour>
  </outline>
</glyph>
<glyph name="braceright" format="1">
  <advance width="653"/>
  <unicode hex="007D"/>
  <outline>
	<contour>
	  <point x="75" y="-191" type="line"/>
	  <point x="75" y="-311" type="line"/>
	  <point x="180" y="-311" type="line"/>
	  <point x="350" y="-311"/>
	  <point x="428" y="-247"/>
	  <point x="428" y="-32" type="curve" smooth="yes"/>
	  <point x="428" y="116"/>
	  <point x="409" y="212"/>
	  <point x="409" y="346" type="curve" smooth="yes"/>
	  <point x="409" y="423"/>
	  <point x="450" y="500"/>
	  <point x="585" y="503" type="curve"/>
	  <point x="585" y="636" type="line"/>
	  <point x="450" y="639"/>
	  <point x="409" y="715"/>
	  <point x="409" y="791" type="curve" smooth="yes"/>
	  <point x="409" y="919"/>
	  <point x="428" y="1028"/>
	  <point x="428" y="1171" type="curve" smooth="yes"/>
	  <point x="428" y="1383"/>
	  <point x="350" y="1450"/>
	  <point x="180" y="1450" type="curve" smooth="yes"/>
	  <point x="75" y="1450" type="line"/>
	  <point x="75" y="1328" type="line"/>
	  <point x="123" y="1328" type="line"/>
	  <point x="224" y="1328"/>
	  <point x="251" y="1285"/>
	  <point x="251" y="1159" type="curve" smooth="yes"/>
	  <point x="251" y="1045"/>
	  <point x="241" y="927"/>
	  <point x="241" y="803" type="curve" smooth="yes"/>
	  <point x="241" y="661"/>
	  <point x="281" y="598"/>
	  <point x="374" y="573" type="curve"/>
	  <point x="374" y="565" type="line"/>
	  <point x="281" y="541"/>
	  <point x="241" y="476"/>
	  <point x="241" y="336" type="curve" smooth="yes"/>
	  <point x="241" y="202"/>
	  <point x="251" y="98"/>
	  <point x="251" y="-21" type="curve" smooth="yes"/>
	  <point x="251" y="-146"/>
	  <point x="224" y="-191"/>
	  <point x="123" y="-191" type="curve" smooth="yes"/>
	</contour>
  </outline>
</glyph>
<glyph name="asciitilde" format="1">
  <advance width="1042"/>
  <unicode hex="007E"/>
  <outline>
	<contour>
	  <point x="186" y="556" type="line"/>
	  <point x="228" y="646"/>
	  <point x="274" y="679"/>
	  <point x="339" y="679" type="curve" smooth="yes"/>
	  <point x="452" y="679"/>
	  <point x="538" y="513"/>
	  <point x="703" y="513" type="curve" smooth="yes"/>
	  <point x="805" y="513"/>
	  <point x="902" y="568"/>
	  <point x="974" y="706" type="curve"/>
	  <point x="856" y="795" type="line"/>
	  <point x="818" y="711"/>
	  <point x="769" y="673"/>
	  <point x="704" y="673" type="curve" smooth="yes"/>
	  <point x="590" y="673"/>
	  <point x="509" y="838"/>
	  <point x="344" y="838" type="curve" smooth="yes"/>
	  <point x="235" y="838"/>
	  <point x="137" y="789"/>
	  <point x="68" y="644" type="curve"/>
	</contour>
  </outline>
</glyph>
<glyph name="exclamdown" format="1">
  <advance width="632"/>
  <unicode hex="00A1"/>
  <outline>
	<contour>
	  <point x="389" y="572" type="line"/>
	  <point x="243" y="572" type="line"/>
	  <point x="212" y="-146" type="line"/>
	  <point x="206" y="-369" type="line"/>
	  <point x="426" y="-369" type="line"/>
	  <point x="420" y="-146" type="line"/>
	</contour>
	<contour>
	  <point x="461" y="877" type="curve" smooth="yes"/>
	  <point x="461" y="964"/>
	  <point x="397" y="1028"/>
	  <point x="316" y="1028" type="curve" smooth="yes"/>
	  <point x="235" y="1028"/>
	  <point x="171" y="964"/>
	  <point x="171" y="877" type="curve" smooth="yes"/>
	  <point x="171" y="788"/>
	  <point x="235" y="724"/>
	  <point x="316" y="724" type="curve" smooth="yes"/>
	  <point x="397" y="724"/>
	  <point x="461" y="788"/>
	</contour>
  </outline>
</glyph>
<glyph name="brokenbar" format="1">
  <advance width="515"/>
  <unicode hex="00A6"/>
  <outline>
	<contour>
	  <point x="183" y="612" type="line"/>
	  <point x="332" y="612" type="line"/>
	  <point x="332" y="1536" type="line"/>
	  <point x="183" y="1536" type="line"/>
	</contour>
	<contour>
	  <point x="183" y="430" type="line"/>
	  <point x="183" y="-512" type="line"/>
	  <point x="332" y="-512" type="line"/>
	  <point x="332" y="430" type="line"/>
	</contour>
  </outline>
</glyph>
<glyph name="guillemotleft" format="1">
  <advance width="935"/>
  <unicode hex="00AB"/>
  <outline>
	<contour>
	  <point x="373" y="127" type="line"/>
	  <point x="460" y="198" type="line"/>
	  <point x="225" y="516" type="line"/>
	  <point x="460" y="833" type="line"/>
	  <point x="373" y="905" type="line"/>
	  <point x="95" y="596" type="line"/>
	  <point x="95" y="437" type="line"/>
	</contour>
	<contour>
	  <point x="740" y="127" type="line"/>
	  <point x="827" y="198" type="line"/>
	  <point x="591" y="516" type="line"/>
	  <point x="827" y="833" type="line"/>
	  <point x="740" y="905" type="line"/>
	  <point x="461" y="596" type="line"/>
	  <point x="461" y="437" type="line"/>
	</contour>
  </outline>
</glyph>
<glyph name="macron" format="1">
  <advance width="1120"/>
  <unicode hex="00AF"/>
  <outline>
	<contour>
	  <point x="298" y="1224" type="line"/>
	  <point x="824" y="1224" type="line"/>
	  <point x="824" y="1369" type="line"/>
	  <point x="298" y="1369" type="line"/>
	</contour>
  </outline>
</glyph>
<glyph name="plusminus" format="1">
  <advance width="1042"/>
  <unicode hex="00B1"/>
  <outline>
	<contour>
	  <point x="437" y="284" type="line"/>
	  <point x="604" y="284" type="line"/>
	  <point x="604" y="615" type="line"/>
	  <point x="972" y="615" type="line"/>
	  <point x="972" y="775" type="line"/>
	  <point x="604" y="775" type="line"/>
	  <point x="604" y="1147" type="line"/>
	  <point x="437" y="1147" type="line"/>
	  <point x="437" y="775" type="line"/>
	  <point x="70" y="775" type="line"/>
	  <point x="70" y="615" type="line"/>
	  <point x="437" y="615" type="line"/>
	</contour>
	<contour>
	  <point x="70" y="0" type="line"/>
	  <point x="972" y="0" type="line"/>
	  <point x="972" y="160" type="line"/>
	  <point x="70" y="160" type="line"/>
	</contour>
  </outline>
</glyph>
<glyph name="acute" format="1">
  <advance width="1120"/>
  <unicode hex="00B4"/>
  <outline>
	<contour>
	  <point x="817" y="1470" type="line"/>
	  <point x="598" y="1470" type="line"/>
	  <point x="414" y="1175" type="line"/>
	  <point x="578" y="1175" type="line"/>
	</contour>
  </outline>
</glyph>
<glyph name="paragraph" format="1">
  <advance width="1207"/>
  <unicode hex="00B6"/>
  <outline>
	<contour>
	  <point x="788" y="-164" type="line"/>
	  <point x="1010" y="-164" type="line"/>
	  <point x="1010" y="1340" type="line"/>
	  <point x="788" y="1340" type="line"/>
	</contour>
	<contour>
	  <point x="603" y="440" type="curve"/>
	  <point x="658" y="440" type="line"/>
	  <point x="658" y="1340" type="line"/>
	  <point x="586" y="1340" type="line"/>
	  <point x="303" y="1340"/>
	  <point x="82" y="1227"/>
	  <point x="82" y="896" type="curve" smooth="yes"/>
	  <point x="82" y="585"/>
	  <point x="308" y="440"/>
	</contour>
  </outline>
</glyph>
<glyph name="periodcentered" format="1">
  <advance width="550"/>
  <unicode hex="00B7"/>
  <outline>
	<contour>
	  <point x="130" y="656" type="curve" smooth="yes"/>
	  <point x="130" y="571"/>
	  <point x="194" y="506"/>
	  <point x="275" y="506" type="curve" smooth="yes"/>
	  <point x="356" y="506"/>
	  <point x="420" y="571"/>
	  <point x="420" y="656" type="curve" smooth="yes"/>
	  <point x="420" y="746"/>
	  <point x="356" y="810"/>
	  <point x="275" y="810" type="curve" smooth="yes"/>
	  <point x="194" y="810"/>
	  <point x="130" y="746"/>
	</contour>
  </outline>
</glyph>
<glyph name="one.sups" format="1">
  <advance width="759"/>
  <unicode hex="00B9"/>
  <outline>
	<contour>
	  <point x="347" y="901" type="line"/>
	  <point x="513" y="901" type="line"/>
	  <point x="513" y="1700" type="line"/>
	  <point x="380" y="1700" type="line"/>
	  <point x="320" y="1657"/>
	  <point x="267" y="1632"/>
	  <point x="170" y="1616" type="curve"/>
	  <point x="170" y="1511" type="line"/>
	  <point x="347" y="1511" type="line"/>
	</contour>
  </outline>
</glyph>
<glyph name="guillemotright" format="1">
  <advance width="929"/>
  <unicode hex="00BB"/>
  <outline>
	<contour>
	  <point x="102" y="198" type="line"/>
	  <point x="188" y="127" type="line"/>
	  <point x="467" y="437" type="line"/>
	  <point x="467" y="596" type="line"/>
	  <point x="188" y="905" type="line"/>
	  <point x="102" y="833" type="line"/>
	  <point x="337" y="516" type="line"/>
	</contour>
	<contour>
	  <point x="468" y="198" type="line"/>
	  <point x="556" y="127" type="line"/>
	  <point x="834" y="437" type="line"/>
	  <point x="834" y="596" type="line"/>
	  <point x="556" y="905" type="line"/>
	  <point x="468" y="833" type="line"/>
	  <point x="704" y="516" type="line"/>
	</contour>
  </outline>
</glyph>
<glyph name="onequarter" format="1">
  <advance width="1621"/>
  <unicode hex="00BC"/>
  <outline>
	<contour>
	  <point x="459" y="542" type="line"/>
	  <point x="459" y="1340" type="line"/>
	  <point x="325" y="1340" type="line"/>
	  <point x="265" y="1297"/>
	  <point x="214" y="1273"/>
	  <point x="116" y="1256" type="curve"/>
	  <point x="116" y="1151" type="line"/>
	  <point x="293" y="1151" type="line"/>
	  <point x="293" y="542" type="line"/>
	</contour>
	<contour>
	  <point x="1107" y="1365" type="line"/>
	  <point x="374" y="-25" type="line"/>
	  <point x="510" y="-25" type="line"/>
	  <point x="1244" y="1365" type="line"/>
	</contour>
	<contour>
	  <point x="1104" y="313" type="line"/>
	  <point x="1215" y="500" type="line"/>
	  <point x="1309" y="663" type="line"/>
	  <point x="1318" y="663" type="line"/>
	  <point x="1307" y="434" type="line"/>
	  <point x="1307" y="313" type="line"/>
	</contour>
	<contour>
	  <point x="1574" y="313" type="line"/>
	  <point x="1455" y="313" type="line"/>
	  <point x="1455" y="799" type="line"/>
	  <point x="1259" y="799" type="line"/>
	  <point x="942" y="284" type="line"/>
	  <point x="942" y="200" type="line"/>
	  <point x="1307" y="200" type="line"/>
	  <point x="1307" y="0" type="line"/>
	  <point x="1455" y="0" type="line"/>
	  <point x="1455" y="200" type="line"/>
	  <point x="1574" y="200" type="line"/>
	</contour>
  </outline>
</glyph>
<glyph name="onehalf" format="1">
  <advance width="1685"/>
  <unicode hex="00BD"/>
  <outline>
	<contour>
	  <point x="293" y="542" type="line"/>
	  <point x="459" y="542" type="line"/>
	  <point x="459" y="1340" type="line"/>
	  <point x="325" y="1340" type="line"/>
	  <point x="265" y="1297"/>
	  <point x="214" y="1273"/>
	  <point x="116" y="1256" type="curve"/>
	  <point x="116" y="1151" type="line"/>
	  <point x="293" y="1151" type="line"/>
	</contour>
	<contour>
	  <point x="473" y="-25" type="line"/>
	  <point x="1207" y="1365" type="line"/>
	  <point x="1069" y="1365" type="line"/>
	  <point x="336" y="-25" type="line"/>
	</contour>
	<contour>
	  <point x="1026" y="0" type="line"/>
	  <point x="1592" y="0" type="line"/>
	  <point x="1592" y="140" type="line"/>
	  <point x="1291" y="140" type="line"/>
	  <point x="1439" y="295"/>
	  <point x="1555" y="417"/>
	  <point x="1555" y="560" type="curve" smooth="yes"/>
	  <point x="1555" y="730"/>
	  <point x="1444" y="823"/>
	  <point x="1278" y="823" type="curve" smooth="yes"/>
	  <point x="1164" y="823"/>
	  <point x="1066" y="763"/>
	  <point x="997" y="665" type="curve"/>
	  <point x="1093" y="577" type="line"/>
	  <point x="1138" y="640"/>
	  <point x="1192" y="686"/>
	  <point x="1254" y="686" type="curve" smooth="yes"/>
	  <point x="1341" y="686"/>
	  <point x="1394" y="628"/>
	  <point x="1394" y="534" type="curve" smooth="yes"/>
	  <point x="1394" y="421"/>
	  <point x="1257" y="294"/>
	  <point x="1026" y="92" type="curve"/>
	</contour>
  </outline>
</glyph>
<glyph name="threequarters" format="1">
  <advance width="1647"/>
  <unicode hex="00BE"/>
  <outline>
	<contour>
	  <point x="190" y="1146" type="line"/>
	  <point x="233" y="1199"/>
	  <point x="286" y="1237"/>
	  <point x="342" y="1237" type="curve" smooth="yes"/>
	  <point x="419" y="1237"/>
	  <point x="468" y="1193"/>
	  <point x="468" y="1125" type="curve" smooth="yes"/>
	  <point x="468" y="1049"/>
	  <point x="395" y="999"/>
	  <point x="272" y="999" type="curve"/>
	  <point x="272" y="898" type="line"/>
	  <point x="418" y="898"/>
	  <point x="499" y="855"/>
	  <point x="499" y="771" type="curve" smooth="yes"/>
	  <point x="499" y="692"/>
	  <point x="435" y="646"/>
	  <point x="355" y="646" type="curve" smooth="yes"/>
	  <point x="279" y="646"/>
	  <point x="215" y="686"/>
	  <point x="166" y="756" type="curve"/>
	  <point x="62" y="676" type="line"/>
	  <point x="126" y="581"/>
	  <point x="235" y="517"/>
	  <point x="370" y="517" type="curve" smooth="yes"/>
	  <point x="528" y="517"/>
	  <point x="662" y="611"/>
	  <point x="662" y="759" type="curve" smooth="yes"/>
	  <point x="662" y="861"/>
	  <point x="588" y="929"/>
	  <point x="502" y="956" type="curve"/>
	  <point x="580" y="995"/>
	  <point x="631" y="1056"/>
	  <point x="631" y="1147" type="curve" smooth="yes"/>
	  <point x="631" y="1283"/>
	  <point x="510" y="1365"/>
	  <point x="368" y="1365" type="curve" smooth="yes"/>
	  <point x="251" y="1365"/>
	  <point x="169" y="1316"/>
	  <point x="94" y="1232" type="curve"/>
	</contour>
	<contour>
	  <point x="1172" y="1365" type="line"/>
	  <point x="438" y="-25" type="line"/>
	  <point x="575" y="-25" type="line"/>
	  <point x="1307" y="1365" type="line"/>
	</contour>
	<contour>
	  <point x="1130" y="313" type="line"/>
	  <point x="1241" y="500" type="line"/>
	  <point x="1335" y="663" type="line"/>
	  <point x="1343" y="663" type="line"/>
	  <point x="1332" y="434" type="line"/>
	  <point x="1332" y="313" type="line"/>
	</contour>
	<contour>
	  <point x="1600" y="313" type="line"/>
	  <point x="1481" y="313" type="line"/>
	  <point x="1481" y="799" type="line"/>
	  <point x="1285" y="799" type="line"/>
	  <point x="968" y="284" type="line"/>
	  <point x="968" y="200" type="line"/>
	  <point x="1332" y="200" type="line"/>
	  <point x="1332" y="0" type="line"/>
	  <point x="1481" y="0" type="line"/>
	  <point x="1481" y="200" type="line"/>
	  <point x="1600" y="200" type="line"/>
	</contour>
  </outline>
</glyph>
<glyph name="questiondown" format="1">
  <advance width="900"/>
  <unicode hex="00BF"/>
  <outline>
	<contour>
	  <point x="577" y="572" type="curve"/>
	  <point x="385" y="572" type="line"/>
	  <point x="415" y="302"/>
	  <point x="93" y="206"/>
	  <point x="93" y="-57" type="curve" smooth="yes"/>
	  <point x="93" y="-274"/>
	  <point x="246" y="-393"/>
	  <point x="465" y="-393" type="curve" smooth="yes"/>
	  <point x="613" y="-393"/>
	  <point x="732" y="-319"/>
	  <point x="820" y="-217" type="curve"/>
	  <point x="696" y="-105" type="line"/>
	  <point x="636" y="-172"/>
	  <point x="565" y="-213"/>
	  <point x="480" y="-213" type="curve" smooth="yes"/>
	  <point x="368" y="-213"/>
	  <point x="305" y="-141"/>
	  <point x="305" y="-42" type="curve" smooth="yes"/>
	  <point x="305" y="151"/>
	  <point x="621" y="267"/>
	</contour>
	<contour>
	  <point x="623" y="877" type="curve" smooth="yes"/>
	  <point x="623" y="964"/>
	  <point x="559" y="1028"/>
	  <point x="479" y="1028" type="curve" smooth="yes"/>
	  <point x="397" y="1028"/>
	  <point x="333" y="964"/>
	  <point x="333" y="877" type="curve" smooth="yes"/>
	  <point x="333" y="788"/>
	  <point x="397" y="724"/>
	  <point x="479" y="724" type="curve" smooth="yes"/>
	  <point x="559" y="724"/>
	  <point x="623" y="788"/>
	</contour>
  </outline>
</glyph>
<glyph name="Agrave" format="1">
  <advance width="1128"/>
  <unicode hex="00C0"/>
  <outline>
	<contour>
	  <point x="683" y="1443" type="line"/>
	  <point x="508" y="1678" type="line"/>
	  <point x="268" y="1678" type="line"/>
	  <point x="504" y="1443" type="line"/>
	</contour>
	<contour>
	  <point x="380" y="549" type="line"/>
	  <point x="434" y="723" type="line"/>
	  <point x="477" y="866"/>
	  <point x="518" y="1017"/>
	  <point x="556" y="1167" type="curve"/>
	  <point x="564" y="1167" type="line"/>
	  <point x="604" y="1018"/>
	  <point x="644" y="866"/>
	  <point x="688" y="723" type="curve" smooth="yes"/>
	  <point x="740" y="549" type="line"/>
	</contour>
	<contour>
	  <point x="901" y="0" type="line"/>
	  <point x="1134" y="0" type="line"/>
	  <point x="692" y="1340" type="line"/>
	  <point x="436" y="1340" type="line"/>
	  <point x="-5" y="0" type="line"/>
	  <point x="219" y="0" type="line"/>
	  <point x="330" y="375" type="line"/>
	  <point x="790" y="375" type="line"/>
	</contour>
  </outline>
</glyph>
<glyph name="Atilde" format="1">
  <advance width="1128"/>
  <unicode hex="00C3"/>
  <outline>
	<contour>
	  <point x="760" y="1693" type="line"/>
	  <point x="746" y="1626"/>
	  <point x="717" y="1592"/>
	  <point x="678" y="1592" type="curve" smooth="yes"/>
	  <point x="608" y="1592"/>
	  <point x="542" y="1693"/>
	  <point x="435" y="1693" type="curve" smooth="yes"/>
	  <point x="333" y="1693"/>
	  <point x="259" y="1599"/>
	  <point x="243" y="1450" type="curve"/>
	  <point x="360" y="1450" type="line"/>
	  <point x="372" y="1519"/>
	  <point x="403" y="1551"/>
	  <point x="441" y="1551" type="curve" smooth="yes"/>
	  <point x="512" y="1551"/>
	  <point x="576" y="1450"/>
	  <point x="685" y="1450" type="curve" smooth="yes"/>
	  <point x="787" y="1450"/>
	  <point x="861" y="1544"/>
	  <point x="876" y="1693" type="curve"/>
	</contour>
	<contour>
	  <point x="380" y="549" type="line"/>
	  <point x="434" y="723" type="line"/>
	  <point x="477" y="866"/>
	  <point x="518" y="1017"/>
	  <point x="556" y="1167" type="curve"/>
	  <point x="564" y="1167" type="line"/>
	  <point x="604" y="1018"/>
	  <point x="644" y="866"/>
	  <point x="688" y="723" type="curve" smooth="yes"/>
	  <point x="740" y="549" type="line"/>
	</contour>
	<contour>
	  <point x="901" y="0" type="line"/>
	  <point x="1134" y="0" type="line"/>
	  <point x="692" y="1340" type="line"/>
	  <point x="436" y="1340" type="line"/>
	  <point x="-5" y="0" type="line"/>
	  <point x="219" y="0" type="line"/>
	  <point x="330" y="375" type="line"/>
	  <point x="790" y="375" type="line"/>
	</contour>
  </outline>
</glyph>
<glyph name="Aring" format="1">
  <advance width="1128"/>
  <unicode hex="00C5"/>
  <outline>
	<contour>
	  <point x="560" y="1716" type="curve" smooth="yes"/>
	  <point x="610" y="1716"/>
	  <point x="651" y="1677"/>
	  <point x="651" y="1618" type="curve" smooth="yes"/>
	  <point x="651" y="1555"/>
	  <point x="610" y="1518"/>
	  <point x="560" y="1518" type="curve" smooth="yes"/>
	  <point x="509" y="1518"/>
	  <point x="468" y="1555"/>
	  <point x="468" y="1618" type="curve" smooth="yes"/>
	  <point x="468" y="1677"/>
	  <point x="509" y="1716"/>
	</contour>
	<contour>
	  <point x="560" y="1430" type="curve" smooth="yes"/>
	  <point x="679" y="1430"/>
	  <point x="766" y="1503"/>
	  <point x="766" y="1618" type="curve" smooth="yes"/>
	  <point x="766" y="1731"/>
	  <point x="679" y="1806"/>
	  <point x="560" y="1806" type="curve" smooth="yes"/>
	  <point x="438" y="1806"/>
	  <point x="353" y="1731"/>
	  <point x="353" y="1618" type="curve" smooth="yes"/>
	  <point x="353" y="1503"/>
	  <point x="438" y="1430"/>
	</contour>
	<contour>
	  <point x="380" y="549" type="line"/>
	  <point x="434" y="723" type="line"/>
	  <point x="477" y="866"/>
	  <point x="518" y="1017"/>
	  <point x="556" y="1167" type="curve"/>
	  <point x="564" y="1167" type="line"/>
	  <point x="604" y="1018"/>
	  <point x="644" y="866"/>
	  <point x="688" y="723" type="curve" smooth="yes"/>
	  <point x="740" y="549" type="line"/>
	</contour>
	<contour>
	  <point x="901" y="0" type="line"/>
	  <point x="1134" y="0" type="line"/>
	  <point x="692" y="1340" type="line"/>
	  <point x="436" y="1340" type="line"/>
	  <point x="-5" y="0" type="line"/>
	  <point x="219" y="0" type="line"/>
	  <point x="330" y="375" type="line"/>
	  <point x="790" y="375" type="line"/>
	</contour>
  </outline>
</glyph>
<glyph name="AE" format="1">
  <advance width="1694"/>
  <unicode hex="00C6"/>
  <outline>
	<contour>
	  <point x="489" y="532" type="line"/>
	  <point x="599" y="754" type="line"/>
	  <point x="664" y="889"/>
	  <point x="732" y="1030"/>
	  <point x="798" y="1170" type="curve"/>
	  <point x="806" y="1170" type="line"/>
	  <point x="806" y="532" type="line"/>
	</contour>
	<contour>
	  <point x="1027" y="187" type="line"/>
	  <point x="1027" y="606" type="line"/>
	  <point x="1486" y="606" type="line"/>
	  <point x="1486" y="791" type="line"/>
	  <point x="1027" y="791" type="line"/>
	  <point x="1027" y="1155" type="line"/>
	  <point x="1575" y="1155" type="line"/>
	  <point x="1575" y="1340" type="line"/>
	  <point x="674" y="1340" type="line"/>
	  <point x="-4" y="0" type="line"/>
	  <point x="226" y="0" type="line"/>
	  <point x="404" y="358" type="line"/>
	  <point x="806" y="358" type="line"/>
	  <point x="806" y="0" type="line"/>
	  <point x="1595" y="0" type="line"/>
	  <point x="1595" y="187" type="line"/>
	</contour>
	<contour>
	  <point x="1130" y="1421" type="move" name="mark0"/>
	</contour>
  </outline>
</glyph>
<glyph name="Egrave" format="1">
  <advance width="1088"/>
  <unicode hex="00C8"/>
  <outline>
	<contour>
	  <point x="170" y="0" type="line"/>
	  <point x="989" y="0" type="line"/>
	  <point x="989" y="187" type="line"/>
	  <point x="392" y="187" type="line"/>
	  <point x="392" y="606" type="line"/>
	  <point x="879" y="606" type="line"/>
	  <point x="879" y="791" type="line"/>
	  <point x="392" y="791" type="line"/>
	  <point x="392" y="1155" type="line"/>
	  <point x="968" y="1155" type="line"/>
	  <point x="968" y="1340" type="line"/>
	  <point x="170" y="1340" type="line"/>
	</contour>
	<contour>
	  <point x="526" y="1443" type="line"/>
	  <point x="705" y="1443" type="line"/>
	  <point x="531" y="1678" type="line"/>
	  <point x="290" y="1678" type="line"/>
	</contour>
  </outline>
</glyph>
<glyph name="Eacute" format="1">
  <advance width="1088"/>
  <unicode hex="00C9"/>
  <outline>
	<contour>
	  <point x="170" y="0" type="line"/>
	  <point x="989" y="0" type="line"/>
	  <point x="989" y="187" type="line"/>
	  <point x="392" y="187" type="line"/>
	  <point x="392" y="606" type="line"/>
	  <point x="879" y="606" type="line"/>
	  <point x="879" y="791" type="line"/>
	  <point x="392" y="791" type="line"/>
	  <point x="392" y="1155" type="line"/>
	  <point x="968" y="1155" type="line"/>
	  <point x="968" y="1340" type="line"/>
	  <point x="170" y="1340" type="line"/>
	</contour>
	<contour>
	  <point x="875" y="1678" type="line"/>
	  <point x="634" y="1678" type="line"/>
	  <point x="459" y="1443" type="line"/>
	  <point x="638" y="1443" type="line"/>
	</contour>
  </outline>
</glyph>
<glyph name="Edieresis" format="1">
  <advance width="1088"/>
  <unicode hex="00CB"/>
  <outline>
	<contour>
	  <point x="170" y="0" type="line"/>
	  <point x="989" y="0" type="line"/>
	  <point x="989" y="187" type="line"/>
	  <point x="392" y="187" type="line"/>
	  <point x="392" y="606" type="line"/>
	  <point x="879" y="606" type="line"/>
	  <point x="879" y="791" type="line"/>
	  <point x="392" y="791" type="line"/>
	  <point x="392" y="1155" type="line"/>
	  <point x="968" y="1155" type="line"/>
	  <point x="968" y="1340" type="line"/>
	  <point x="170" y="1340" type="line"/>
	</contour>
	<contour>
	  <point x="394" y="1453" type="curve" smooth="yes"/>
	  <point x="464" y="1453"/>
	  <point x="511" y="1502"/>
	  <point x="511" y="1570" type="curve" smooth="yes"/>
	  <point x="511" y="1637"/>
	  <point x="464" y="1686"/>
	  <point x="394" y="1686" type="curve" smooth="yes"/>
	  <point x="327" y="1686"/>
	  <point x="279" y="1637"/>
	  <point x="279" y="1570" type="curve" smooth="yes"/>
	  <point x="279" y="1502"/>
	  <point x="327" y="1453"/>
	</contour>
	<contour>
	  <point x="769" y="1453" type="curve" smooth="yes"/>
	  <point x="836" y="1453"/>
	  <point x="885" y="1502"/>
	  <point x="885" y="1570" type="curve" smooth="yes"/>
	  <point x="885" y="1637"/>
	  <point x="836" y="1686"/>
	  <point x="769" y="1686" type="curve" smooth="yes"/>
	  <point x="701" y="1686"/>
	  <point x="651" y="1637"/>
	  <point x="651" y="1570" type="curve" smooth="yes"/>
	  <point x="651" y="1502"/>
	  <point x="701" y="1453"/>
	</contour>
  </outline>
</glyph>
<glyph name="Igrave" format="1">
  <advance width="561"/>
  <unicode hex="00CC"/>
  <outline>
	<contour>
	  <point x="170" y="0" type="line"/>
	  <point x="392" y="0" type="line"/>
	  <point x="392" y="1340" type="line"/>
	  <point x="170" y="1340" type="line"/>
	</contour>
	<contour>
	  <point x="224" y="1443" type="line"/>
	  <point x="404" y="1443" type="line"/>
	  <point x="229" y="1678" type="line"/>
	  <point x="-12" y="1678" type="line"/>
	</contour>
  </outline>
</glyph>
<glyph name="Iacute" format="1">
  <advance width="561"/>
  <unicode hex="00CD"/>
  <outline>
	<contour>
	  <point x="170" y="0" type="line"/>
	  <point x="392" y="0" type="line"/>
	  <point x="392" y="1340" type="line"/>
	  <point x="170" y="1340" type="line"/>
	</contour>
	<contour>
	  <point x="573" y="1678" type="line"/>
	  <point x="332" y="1678" type="line"/>
	  <point x="158" y="1443" type="line"/>
	  <point x="336" y="1443" type="line"/>
	</contour>
  </outline>
</glyph>
<glyph name="Icircumflex" format="1">
  <advance width="561"/>
  <unicode hex="00CE"/>
  <outline>
	<contour>
	  <point x="170" y="0" type="line"/>
	  <point x="392" y="0" type="line"/>
	  <point x="392" y="1340" type="line"/>
	  <point x="170" y="1340" type="line"/>
	</contour>
	<contour>
	  <point x="150" y="1443" type="line"/>
	  <point x="276" y="1577" type="line"/>
	  <point x="284" y="1577" type="line"/>
	  <point x="411" y="1443" type="line"/>
	  <point x="584" y="1443" type="line"/>
	  <point x="388" y="1678" type="line"/>
	  <point x="174" y="1678" type="line"/>
	  <point x="-23" y="1443" type="line"/>
	</contour>
  </outline>
</glyph>
<glyph name="Idieresis" format="1">
  <advance width="561"/>
  <unicode hex="00CF"/>
  <outline>
	<contour>
	  <point x="170" y="0" type="line"/>
	  <point x="392" y="0" type="line"/>
	  <point x="392" y="1340" type="line"/>
	  <point x="170" y="1340" type="line"/>
	</contour>
	<contour>
	  <point x="94" y="1453" type="curve" smooth="yes"/>
	  <point x="161" y="1453"/>
	  <point x="211" y="1502"/>
	  <point x="211" y="1570" type="curve" smooth="yes"/>
	  <point x="211" y="1637"/>
	  <point x="161" y="1686"/>
	  <point x="94" y="1686" type="curve" smooth="yes"/>
	  <point x="26" y="1686"/>
	  <point x="-22" y="1637"/>
	  <point x="-22" y="1570" type="curve" smooth="yes"/>
	  <point x="-22" y="1502"/>
	  <point x="26" y="1453"/>
	</contour>
	<contour>
	  <point x="467" y="1453" type="curve" smooth="yes"/>
	  <point x="536" y="1453"/>
	  <point x="584" y="1502"/>
	  <point x="584" y="1570" type="curve" smooth="yes"/>
	  <point x="584" y="1637"/>
	  <point x="536" y="1686"/>
	  <point x="467" y="1686" type="curve" smooth="yes"/>
	  <point x="399" y="1686"/>
	  <point x="350" y="1637"/>
	  <point x="350" y="1570" type="curve" smooth="yes"/>
	  <point x="350" y="1502"/>
	  <point x="399" y="1453"/>
	</contour>
  </outline>
</glyph>
<glyph name="Ntilde" format="1">
  <advance width="1332"/>
  <unicode hex="00D1"/>
  <outline>
	<contour>
	  <point x="170" y="0" type="line"/>
	  <point x="380" y="0" type="line"/>
	  <point x="380" y="615" type="line"/>
	  <point x="380" y="763"/>
	  <point x="363" y="919"/>
	  <point x="352" y="1059" type="curve"/>
	  <point x="361" y="1059" type="line"/>
	  <point x="500" y="777" type="line"/>
	  <point x="933" y="0" type="line"/>
	  <point x="1161" y="0" type="line"/>
	  <point x="1161" y="1340" type="line"/>
	  <point x="951" y="1340" type="line"/>
	  <point x="951" y="731" type="line"/>
	  <point x="951" y="584"/>
	  <point x="969" y="418"/>
	  <point x="979" y="281" type="curve"/>
	  <point x="971" y="281" type="line"/>
	  <point x="831" y="566" type="line"/>
	  <point x="396" y="1340" type="line"/>
	  <point x="170" y="1340" type="line"/>
	</contour>
	<contour>
	  <point x="796" y="1450" type="curve" smooth="yes"/>
	  <point x="898" y="1450"/>
	  <point x="972" y="1544"/>
	  <point x="987" y="1693" type="curve"/>
	  <point x="870" y="1693" type="line"/>
	  <point x="858" y="1626"/>
	  <point x="826" y="1592"/>
	  <point x="789" y="1592" type="curve" smooth="yes"/>
	  <point x="719" y="1592"/>
	  <point x="654" y="1693"/>
	  <point x="546" y="1693" type="curve" smooth="yes"/>
	  <point x="443" y="1693"/>
	  <point x="369" y="1599"/>
	  <point x="354" y="1450" type="curve"/>
	  <point x="470" y="1450" type="line"/>
	  <point x="483" y="1519"/>
	  <point x="514" y="1551"/>
	  <point x="551" y="1551" type="curve" smooth="yes"/>
	  <point x="621" y="1551"/>
	  <point x="686" y="1450"/>
	</contour>
  </outline>
</glyph>
<glyph name="Ograve" format="1">
  <advance width="1369"/>
  <unicode hex="00D2"/>
  <outline>
	<contour>
	  <point x="684" y="-25" type="curve" smooth="yes"/>
	  <point x="1030" y="-25"/>
	  <point x="1270" y="243"/>
	  <point x="1270" y="676" type="curve" smooth="yes"/>
	  <point x="1270" y="1107"/>
	  <point x="1030" y="1365"/>
	  <point x="684" y="1365" type="curve" smooth="yes"/>
	  <point x="339" y="1365"/>
	  <point x="97" y="1109"/>
	  <point x="97" y="676" type="curve" smooth="yes"/>
	  <point x="97" y="243"/>
	  <point x="339" y="-25"/>
	</contour>
	<contour>
	  <point x="684" y="167" type="curve" smooth="yes"/>
	  <point x="466" y="167"/>
	  <point x="324" y="366"/>
	  <point x="324" y="676" type="curve" smooth="yes"/>
	  <point x="324" y="985"/>
	  <point x="466" y="1174"/>
	  <point x="684" y="1174" type="curve" smooth="yes"/>
	  <point x="902" y="1174"/>
	  <point x="1043" y="985"/>
	  <point x="1043" y="676" type="curve" smooth="yes"/>
	  <point x="1043" y="366"/>
	  <point x="902" y="167"/>
	</contour>
	<contour>
	  <point x="629" y="1443" type="line"/>
	  <point x="807" y="1443" type="line"/>
	  <point x="633" y="1678" type="line"/>
	  <point x="392" y="1678" type="line"/>
	</contour>
  </outline>
</glyph>
<glyph name="Oacute" format="1">
  <advance width="1369"/>
  <unicode hex="00D3"/>
  <outline>
	<contour>
	  <point x="684" y="-25" type="curve" smooth="yes"/>
	  <point x="1030" y="-25"/>
	  <point x="1270" y="243"/>
	  <point x="1270" y="676" type="curve" smooth="yes"/>
	  <point x="1270" y="1107"/>
	  <point x="1030" y="1365"/>
	  <point x="684" y="1365" type="curve" smooth="yes"/>
	  <point x="339" y="1365"/>
	  <point x="97" y="1109"/>
	  <point x="97" y="676" type="curve" smooth="yes"/>
	  <point x="97" y="243"/>
	  <point x="339" y="-25"/>
	</contour>
	<contour>
	  <point x="684" y="167" type="curve" smooth="yes"/>
	  <point x="466" y="167"/>
	  <point x="324" y="366"/>
	  <point x="324" y="676" type="curve" smooth="yes"/>
	  <point x="324" y="985"/>
	  <point x="466" y="1174"/>
	  <point x="684" y="1174" type="curve" smooth="yes"/>
	  <point x="902" y="1174"/>
	  <point x="1043" y="985"/>
	  <point x="1043" y="676" type="curve" smooth="yes"/>
	  <point x="1043" y="366"/>
	  <point x="902" y="167"/>
	</contour>
	<contour>
	  <point x="977" y="1678" type="line"/>
	  <point x="736" y="1678" type="line"/>
	  <point x="561" y="1443" type="line"/>
	  <point x="740" y="1443" type="line"/>
	</contour>
  </outline>
</glyph>
<glyph name="Otilde" format="1">
  <advance width="1369"/>
  <unicode hex="00D5"/>
  <outline>
	<contour>
	  <point x="684" y="-25" type="curve" smooth="yes"/>
	  <point x="1030" y="-25"/>
	  <point x="1270" y="243"/>
	  <point x="1270" y="676" type="curve" smooth="yes"/>
	  <point x="1270" y="1107"/>
	  <point x="1030" y="1365"/>
	  <point x="684" y="1365" type="curve" smooth="yes"/>
	  <point x="339" y="1365"/>
	  <point x="97" y="1109"/>
	  <point x="97" y="676" type="curve" smooth="yes"/>
	  <point x="97" y="243"/>
	  <point x="339" y="-25"/>
	</contour>
	<contour>
	  <point x="684" y="167" type="curve" smooth="yes"/>
	  <point x="466" y="167"/>
	  <point x="324" y="366"/>
	  <point x="324" y="676" type="curve" smooth="yes"/>
	  <point x="324" y="985"/>
	  <point x="466" y="1174"/>
	  <point x="684" y="1174" type="curve" smooth="yes"/>
	  <point x="902" y="1174"/>
	  <point x="1043" y="985"/>
	  <point x="1043" y="676" type="curve" smooth="yes"/>
	  <point x="1043" y="366"/>
	  <point x="902" y="167"/>
	</contour>
	<contour>
	  <point x="810" y="1450" type="curve" smooth="yes"/>
	  <point x="911" y="1450"/>
	  <point x="984" y="1544"/>
	  <point x="1001" y="1693" type="curve"/>
	  <point x="885" y="1693" type="line"/>
	  <point x="872" y="1626"/>
	  <point x="841" y="1592"/>
	  <point x="803" y="1592" type="curve" smooth="yes"/>
	  <point x="732" y="1592"/>
	  <point x="667" y="1693"/>
	  <point x="558" y="1693" type="curve" smooth="yes"/>
	  <point x="458" y="1693"/>
	  <point x="384" y="1599"/>
	  <point x="368" y="1450" type="curve"/>
	  <point x="485" y="1450" type="line"/>
	  <point x="496" y="1519"/>
	  <point x="527" y="1551"/>
	  <point x="566" y="1551" type="curve" smooth="yes"/>
	  <point x="636" y="1551"/>
	  <point x="701" y="1450"/>
	</contour>
  </outline>
</glyph>
<glyph name="Odieresis" format="1">
  <advance width="1369"/>
  <unicode hex="00D6"/>
  <outline>
	<contour>
	  <point x="684" y="-25" type="curve" smooth="yes"/>
	  <point x="1030" y="-25"/>
	  <point x="1270" y="243"/>
	  <point x="1270" y="676" type="curve" smooth="yes"/>
	  <point x="1270" y="1107"/>
	  <point x="1030" y="1365"/>
	  <point x="684" y="1365" type="curve" smooth="yes"/>
	  <point x="339" y="1365"/>
	  <point x="97" y="1109"/>
	  <point x="97" y="676" type="curve" smooth="yes"/>
	  <point x="97" y="243"/>
	  <point x="339" y="-25"/>
	</contour>
	<contour>
	  <point x="684" y="167" type="curve" smooth="yes"/>
	  <point x="466" y="167"/>
	  <point x="324" y="366"/>
	  <point x="324" y="676" type="curve" smooth="yes"/>
	  <point x="324" y="985"/>
	  <point x="466" y="1174"/>
	  <point x="684" y="1174" type="curve" smooth="yes"/>
	  <point x="902" y="1174"/>
	  <point x="1043" y="985"/>
	  <point x="1043" y="676" type="curve" smooth="yes"/>
	  <point x="1043" y="366"/>
	  <point x="902" y="167"/>
	</contour>
	<contour>
	  <point x="497" y="1453" type="curve" smooth="yes"/>
	  <point x="566" y="1453"/>
	  <point x="614" y="1502"/>
	  <point x="614" y="1570" type="curve" smooth="yes"/>
	  <point x="614" y="1637"/>
	  <point x="566" y="1686"/>
	  <point x="497" y="1686" type="curve" smooth="yes"/>
	  <point x="429" y="1686"/>
	  <point x="380" y="1637"/>
	  <point x="380" y="1570" type="curve" smooth="yes"/>
	  <point x="380" y="1502"/>
	  <point x="429" y="1453"/>
	</contour>
	<contour>
	  <point x="871" y="1453" type="curve" smooth="yes"/>
	  <point x="939" y="1453"/>
	  <point x="987" y="1502"/>
	  <point x="987" y="1570" type="curve" smooth="yes"/>
	  <point x="987" y="1637"/>
	  <point x="939" y="1686"/>
	  <point x="871" y="1686" type="curve" smooth="yes"/>
	  <point x="803" y="1686"/>
	  <point x="755" y="1637"/>
	  <point x="755" y="1570" type="curve" smooth="yes"/>
	  <point x="755" y="1502"/>
	  <point x="803" y="1453"/>
	</contour>
  </outline>
</glyph>
<glyph name="Ugrave" format="1">
  <advance width="1329"/>
  <unicode hex="00D9"/>
  <outline>
	<contour>
	  <point x="164" y="579" type="line"/>
	  <point x="164" y="141"/>
	  <point x="364" y="-25"/>
	  <point x="665" y="-25" type="curve" smooth="yes"/>
	  <point x="967" y="-25"/>
	  <point x="1166" y="141"/>
	  <point x="1166" y="579" type="curve" smooth="yes"/>
	  <point x="1166" y="1340" type="line"/>
	  <point x="954" y="1340" type="line"/>
	  <point x="954" y="565" type="line"/>
	  <point x="954" y="265"/>
	  <point x="833" y="167"/>
	  <point x="665" y="167" type="curve" smooth="yes"/>
	  <point x="500" y="167"/>
	  <point x="385" y="265"/>
	  <point x="385" y="565" type="curve" smooth="yes"/>
	  <point x="385" y="1340" type="line"/>
	  <point x="164" y="1340" type="line"/>
	</contour>
	<contour>
	  <point x="608" y="1443" type="line"/>
	  <point x="787" y="1443" type="line"/>
	  <point x="614" y="1678" type="line"/>
	  <point x="372" y="1678" type="line"/>
	</contour>
  </outline>
</glyph>
<glyph name="Udieresis" format="1">
  <advance width="1329"/>
  <unicode hex="00DC"/>
  <outline>
	<contour>
	  <point x="164" y="579" type="line"/>
	  <point x="164" y="141"/>
	  <point x="364" y="-25"/>
	  <point x="665" y="-25" type="curve" smooth="yes"/>
	  <point x="967" y="-25"/>
	  <point x="1166" y="141"/>
	  <point x="1166" y="579" type="curve" smooth="yes"/>
	  <point x="1166" y="1340" type="line"/>
	  <point x="954" y="1340" type="line"/>
	  <point x="954" y="565" type="line"/>
	  <point x="954" y="265"/>
	  <point x="833" y="167"/>
	  <point x="665" y="167" type="curve" smooth="yes"/>
	  <point x="500" y="167"/>
	  <point x="385" y="265"/>
	  <point x="385" y="565" type="curve" smooth="yes"/>
	  <point x="385" y="1340" type="line"/>
	  <point x="164" y="1340" type="line"/>
	</contour>
	<contour>
	  <point x="478" y="1453" type="curve" smooth="yes"/>
	  <point x="546" y="1453"/>
	  <point x="595" y="1502"/>
	  <point x="595" y="1570" type="curve" smooth="yes"/>
	  <point x="595" y="1637"/>
	  <point x="546" y="1686"/>
	  <point x="478" y="1686" type="curve" smooth="yes"/>
	  <point x="410" y="1686"/>
	  <point x="362" y="1637"/>
	  <point x="362" y="1570" type="curve" smooth="yes"/>
	  <point x="362" y="1502"/>
	  <point x="410" y="1453"/>
	</contour>
	<contour>
	  <point x="853" y="1453" type="curve" smooth="yes"/>
	  <point x="920" y="1453"/>
	  <point x="968" y="1502"/>
	  <point x="968" y="1570" type="curve" smooth="yes"/>
	  <point x="968" y="1637"/>
	  <point x="920" y="1686"/>
	  <point x="853" y="1686" type="curve" smooth="yes"/>
	  <point x="784" y="1686"/>
	  <point x="735" y="1637"/>
	  <point x="735" y="1570" type="curve" smooth="yes"/>
	  <point x="735" y="1502"/>
	  <point x="784" y="1453"/>
	</contour>
  </outline>
</glyph>
<glyph name="Yacute" format="1">
  <advance width="1006"/>
  <unicode hex="00DD"/>
  <outline>
	<contour>
	  <point x="392" y="0" type="line"/>
	  <point x="612" y="0" type="line"/>
	  <point x="612" y="503" type="line"/>
	  <point x="1016" y="1340" type="line"/>
	  <point x="787" y="1340" type="line"/>
	  <point x="634" y="989" type="line"/>
	  <point x="595" y="890"/>
	  <point x="550" y="796"/>
	  <point x="508" y="695" type="curve"/>
	  <point x="500" y="695" type="line"/>
	  <point x="456" y="796"/>
	  <point x="418" y="890"/>
	  <point x="378" y="989" type="curve" smooth="yes"/>
	  <point x="225" y="1340" type="line"/>
	  <point x="-11" y="1340" type="line"/>
	  <point x="392" y="503" type="line"/>
	</contour>
	<contour>
	  <point x="795" y="1678" type="line"/>
	  <point x="554" y="1678" type="line"/>
	  <point x="379" y="1443" type="line"/>
	  <point x="558" y="1443" type="line"/>
	</contour>
  </outline>
</glyph>
<glyph name="atilde" format="1">
  <advance width="1066"/>
  <unicode hex="00E3"/>
  <outline>
	<contour>
	  <point x="110" y="268" type="curve" smooth="yes"/>
	  <point x="110" y="92"/>
	  <point x="232" y="-25"/>
	  <point x="406" y="-25" type="curve" smooth="yes"/>
	  <point x="526" y="-25"/>
	  <point x="631" y="36"/>
	  <point x="723" y="113" type="curve"/>
	  <point x="728" y="113" type="line"/>
	  <point x="746" y="0" type="line"/>
	  <point x="926" y="0" type="line"/>
	  <point x="926" y="599" type="line"/>
	  <point x="926" y="871"/>
	  <point x="808" y="1028"/>
	  <point x="558" y="1028" type="curve" smooth="yes"/>
	  <point x="398" y="1028"/>
	  <point x="256" y="963"/>
	  <point x="150" y="897" type="curve"/>
	  <point x="232" y="749" type="line"/>
	  <point x="318" y="804"/>
	  <point x="415" y="850"/>
	  <point x="519" y="850" type="curve" smooth="yes"/>
	  <point x="661" y="850"/>
	  <point x="705" y="752"/>
	  <point x="707" y="639" type="curve"/>
	  <point x="291" y="595"/>
	  <point x="110" y="483"/>
	</contour>
	<contour>
	  <point x="322" y="283" type="curve" smooth="yes"/>
	  <point x="322" y="392"/>
	  <point x="418" y="466"/>
	  <point x="707" y="502" type="curve"/>
	  <point x="707" y="263" type="line"/>
	  <point x="627" y="190"/>
	  <point x="560" y="148"/>
	  <point x="475" y="148" type="curve" smooth="yes"/>
	  <point x="386" y="148"/>
	  <point x="322" y="189"/>
	</contour>
	<contour>
	  <point x="255" y="1183" type="curve"/>
	  <point x="372" y="1183" type="line"/>
	  <point x="384" y="1251"/>
	  <point x="407" y="1282"/>
	  <point x="446" y="1282" type="curve" smooth="yes"/>
	  <point x="511" y="1282"/>
	  <point x="577" y="1183"/>
	  <point x="682" y="1183" type="curve" smooth="yes"/>
	  <point x="786" y="1183"/>
	  <point x="851" y="1276"/>
	  <point x="867" y="1422" type="curve"/>
	  <point x="748" y="1422" type="line"/>
	  <point x="735" y="1354"/>
	  <point x="714" y="1323"/>
	  <point x="675" y="1323" type="curve" smooth="yes"/>
	  <point x="611" y="1323"/>
	  <point x="544" y="1422"/>
	  <point x="439" y="1422" type="curve" smooth="yes"/>
	  <point x="335" y="1422"/>
	  <point x="270" y="1330"/>
	</contour>
  </outline>
</glyph>
<glyph name="adieresis" format="1">
  <advance width="1066"/>
  <unicode hex="00E4"/>
  <outline>
	<contour>
	  <point x="110" y="268" type="curve" smooth="yes"/>
	  <point x="110" y="92"/>
	  <point x="232" y="-25"/>
	  <point x="406" y="-25" type="curve" smooth="yes"/>
	  <point x="526" y="-25"/>
	  <point x="631" y="36"/>
	  <point x="723" y="113" type="curve"/>
	  <point x="728" y="113" type="line"/>
	  <point x="746" y="0" type="line"/>
	  <point x="926" y="0" type="line"/>
	  <point x="926" y="599" type="line"/>
	  <point x="926" y="871"/>
	  <point x="808" y="1028"/>
	  <point x="558" y="1028" type="curve" smooth="yes"/>
	  <point x="398" y="1028"/>
	  <point x="256" y="963"/>
	  <point x="150" y="897" type="curve"/>
	  <point x="232" y="749" type="line"/>
	  <point x="318" y="804"/>
	  <point x="415" y="850"/>
	  <point x="519" y="850" type="curve" smooth="yes"/>
	  <point x="661" y="850"/>
	  <point x="705" y="752"/>
	  <point x="707" y="639" type="curve"/>
	  <point x="291" y="595"/>
	  <point x="110" y="483"/>
	</contour>
	<contour>
	  <point x="322" y="283" type="curve" smooth="yes"/>
	  <point x="322" y="392"/>
	  <point x="418" y="466"/>
	  <point x="707" y="502" type="curve"/>
	  <point x="707" y="263" type="line"/>
	  <point x="627" y="190"/>
	  <point x="560" y="148"/>
	  <point x="475" y="148" type="curve" smooth="yes"/>
	  <point x="386" y="148"/>
	  <point x="322" y="189"/>
	</contour>
	<contour>
	  <point x="374" y="1191" type="curve" smooth="yes"/>
	  <point x="306" y="1191"/>
	  <point x="257" y="1241"/>
	  <point x="257" y="1308" type="curve" smooth="yes"/>
	  <point x="257" y="1374"/>
	  <point x="306" y="1424"/>
	  <point x="374" y="1424" type="curve" smooth="yes"/>
	  <point x="442" y="1424"/>
	  <point x="490" y="1374"/>
	  <point x="490" y="1308" type="curve" smooth="yes"/>
	  <point x="490" y="1241"/>
	  <point x="442" y="1191"/>
	</contour>
	<contour>
	  <point x="748" y="1191" type="curve" smooth="yes"/>
	  <point x="815" y="1191"/>
	  <point x="863" y="1241"/>
	  <point x="863" y="1308" type="curve" smooth="yes"/>
	  <point x="863" y="1374"/>
	  <point x="815" y="1424"/>
	  <point x="748" y="1424" type="curve" smooth="yes"/>
	  <point x="679" y="1424"/>
	  <point x="631" y="1374"/>
	  <point x="631" y="1308" type="curve" smooth="yes"/>
	  <point x="631" y="1241"/>
	  <point x="679" y="1191"/>
	</contour>
  </outline>
</glyph>
<glyph name="aring" format="1">
  <advance width="1066"/>
  <unicode hex="00E5"/>
  <outline>
	<contour>
	  <point x="110" y="268" type="curve" smooth="yes"/>
	  <point x="110" y="92"/>
	  <point x="232" y="-25"/>
	  <point x="406" y="-25" type="curve" smooth="yes"/>
	  <point x="526" y="-25"/>
	  <point x="631" y="36"/>
	  <point x="723" y="113" type="curve"/>
	  <point x="728" y="113" type="line"/>
	  <point x="746" y="0" type="line"/>
	  <point x="926" y="0" type="line"/>
	  <point x="926" y="599" type="line"/>
	  <point x="926" y="871"/>
	  <point x="808" y="1028"/>
	  <point x="558" y="1028" type="curve" smooth="yes"/>
	  <point x="398" y="1028"/>
	  <point x="256" y="963"/>
	  <point x="150" y="897" type="curve"/>
	  <point x="232" y="749" type="line"/>
	  <point x="318" y="804"/>
	  <point x="415" y="850"/>
	  <point x="519" y="850" type="curve" smooth="yes"/>
	  <point x="661" y="850"/>
	  <point x="705" y="752"/>
	  <point x="707" y="639" type="curve"/>
	  <point x="291" y="595"/>
	  <point x="110" y="483"/>
	</contour>
	<contour>
	  <point x="322" y="283" type="curve" smooth="yes"/>
	  <point x="322" y="392"/>
	  <point x="418" y="466"/>
	  <point x="707" y="502" type="curve"/>
	  <point x="707" y="263" type="line"/>
	  <point x="627" y="190"/>
	  <point x="560" y="148"/>
	  <point x="475" y="148" type="curve" smooth="yes"/>
	  <point x="386" y="148"/>
	  <point x="322" y="189"/>
	</contour>
	<contour>
	  <point x="560" y="1115" type="curve" smooth="yes"/>
	  <point x="683" y="1115"/>
	  <point x="767" y="1193"/>
	  <point x="767" y="1312" type="curve" smooth="yes"/>
	  <point x="767" y="1430"/>
	  <point x="683" y="1508"/>
	  <point x="560" y="1508" type="curve" smooth="yes"/>
	  <point x="439" y="1508"/>
	  <point x="354" y="1430"/>
	  <point x="354" y="1312" type="curve" smooth="yes"/>
	  <point x="354" y="1193"/>
	  <point x="439" y="1115"/>
	</contour>
	<contour>
	  <point x="560" y="1205" type="curve" smooth="yes"/>
	  <point x="509" y="1205"/>
	  <point x="468" y="1247"/>
	  <point x="468" y="1312" type="curve" smooth="yes"/>
	  <point x="468" y="1376"/>
	  <point x="509" y="1418"/>
	  <point x="560" y="1418" type="curve" smooth="yes"/>
	  <point x="612" y="1418"/>
	  <point x="652" y="1376"/>
	  <point x="652" y="1312" type="curve" smooth="yes"/>
	  <point x="652" y="1247"/>
	  <point x="612" y="1205"/>
	</contour>
  </outline>
</glyph>
<glyph name="edieresis" format="1">
  <advance width="1033"/>
  <unicode hex="00EB"/>
  <outline>
	<contour>
	  <point x="86" y="501" type="curve" smooth="yes"/>
	  <point x="86" y="171"/>
	  <point x="302" y="-25"/>
	  <point x="577" y="-25" type="curve" smooth="yes"/>
	  <point x="708" y="-25"/>
	  <point x="825" y="21"/>
	  <point x="918" y="83" type="curve"/>
	  <point x="843" y="220" type="line"/>
	  <point x="769" y="174"/>
	  <point x="693" y="147"/>
	  <point x="606" y="147" type="curve" smooth="yes"/>
	  <point x="436" y="147"/>
	  <point x="317" y="256"/>
	  <point x="300" y="448" type="curve"/>
	  <point x="948" y="448" type="line"/>
	  <point x="952" y="472"/>
	  <point x="956" y="511"/>
	  <point x="956" y="553" type="curve" smooth="yes"/>
	  <point x="956" y="835"/>
	  <point x="813" y="1028"/>
	  <point x="546" y="1028" type="curve" smooth="yes"/>
	  <point x="311" y="1028"/>
	  <point x="86" y="827"/>
	</contour>
	<contour>
	  <point x="298" y="587" type="line"/>
	  <point x="319" y="763"/>
	  <point x="429" y="858"/>
	  <point x="550" y="858" type="curve" smooth="yes"/>
	  <point x="692" y="858"/>
	  <point x="767" y="757"/>
	  <point x="767" y="587" type="curve"/>
	</contour>
	<contour>
	  <point x="359" y="1191" type="curve" smooth="yes"/>
	  <point x="427" y="1191"/>
	  <point x="476" y="1241"/>
	  <point x="476" y="1308" type="curve" smooth="yes"/>
	  <point x="476" y="1374"/>
	  <point x="427" y="1424"/>
	  <point x="359" y="1424" type="curve" smooth="yes"/>
	  <point x="291" y="1424"/>
	  <point x="242" y="1374"/>
	  <point x="242" y="1308" type="curve" smooth="yes"/>
	  <point x="242" y="1241"/>
	  <point x="291" y="1191"/>
	</contour>
	<contour>
	  <point x="733" y="1191" type="curve" smooth="yes"/>
	  <point x="800" y="1191"/>
	  <point x="850" y="1241"/>
	  <point x="850" y="1308" type="curve" smooth="yes"/>
	  <point x="850" y="1374"/>
	  <point x="800" y="1424"/>
	  <point x="733" y="1424" type="curve" smooth="yes"/>
	  <point x="664" y="1424"/>
	  <point x="616" y="1374"/>
	  <point x="616" y="1308" type="curve" smooth="yes"/>
	  <point x="616" y="1241"/>
	  <point x="664" y="1191"/>
	</contour>
  </outline>
</glyph>
<glyph name="igrave" format="1">
  <advance width="527"/>
  <unicode hex="00EC"/>
  <outline>
	<contour>
	  <point x="155" y="0" type="line"/>
	  <point x="373" y="0" type="line"/>
	  <point x="373" y="1003" type="line"/>
	  <point x="155" y="1003" type="line"/>
	</contour>
	<contour>
	  <point x="246" y="1175" type="line"/>
	  <point x="410" y="1175" type="line"/>
	  <point x="227" y="1470" type="line"/>
	  <point x="7" y="1470" type="line"/>
	</contour>
  </outline>
</glyph>
<glyph name="iacute" format="1">
  <advance width="527"/>
  <unicode hex="00ED"/>
  <outline>
	<contour>
	  <point x="155" y="0" type="line"/>
	  <point x="373" y="0" type="line"/>
	  <point x="373" y="1003" type="line"/>
	  <point x="155" y="1003" type="line"/>
	</contour>
	<contour>
	  <point x="521" y="1470" type="line"/>
	  <point x="301" y="1470" type="line"/>
	  <point x="118" y="1175" type="line"/>
	  <point x="282" y="1175" type="line"/>
	</contour>
  </outline>
</glyph>
<glyph name="icircumflex" format="1">
  <advance width="527"/>
  <unicode hex="00EE"/>
  <outline>
	<contour>
	  <point x="155" y="0" type="line"/>
	  <point x="373" y="0" type="line"/>
	  <point x="373" y="1003" type="line"/>
	  <point x="155" y="1003" type="line"/>
	</contour>
	<contour>
	  <point x="-19" y="1175" type="line"/>
	  <point x="134" y="1175" type="line"/>
	  <point x="260" y="1351" type="line"/>
	  <point x="268" y="1351" type="line"/>
	  <point x="394" y="1175" type="line"/>
	  <point x="547" y="1175" type="line"/>
	  <point x="353" y="1470" type="line"/>
	  <point x="175" y="1470" type="line"/>
	</contour>
  </outline>
</glyph>
<glyph name="idieresis" format="1">
  <advance width="527"/>
  <unicode hex="00EF"/>
  <outline>
	<contour>
	  <point x="155" y="0" type="line"/>
	  <point x="373" y="0" type="line"/>
	  <point x="373" y="1003" type="line"/>
	  <point x="155" y="1003" type="line"/>
	</contour>
	<contour>
	  <point x="78" y="1191" type="curve" smooth="yes"/>
	  <point x="145" y="1191"/>
	  <point x="194" y="1241"/>
	  <point x="194" y="1308" type="curve" smooth="yes"/>
	  <point x="194" y="1374"/>
	  <point x="145" y="1424"/>
	  <point x="78" y="1424" type="curve" smooth="yes"/>
	  <point x="10" y="1424"/>
	  <point x="-40" y="1374"/>
	  <point x="-40" y="1308" type="curve" smooth="yes"/>
	  <point x="-40" y="1241"/>
	  <point x="10" y="1191"/>
	</contour>
	<contour>
	  <point x="450" y="1191" type="curve" smooth="yes"/>
	  <point x="518" y="1191"/>
	  <point x="567" y="1241"/>
	  <point x="567" y="1308" type="curve" smooth="yes"/>
	  <point x="567" y="1374"/>
	  <point x="518" y="1424"/>
	  <point x="450" y="1424" type="curve" smooth="yes"/>
	  <point x="382" y="1424"/>
	  <point x="335" y="1374"/>
	  <point x="335" y="1308" type="curve" smooth="yes"/>
	  <point x="335" y="1241"/>
	  <point x="382" y="1191"/>
	</contour>
  </outline>
</glyph>
<glyph name="ntilde" format="1">
  <advance width="1139"/>
  <unicode hex="00F1"/>
  <outline>
	<contour>
	  <point x="155" y="0" type="line"/>
	  <point x="373" y="0" type="line"/>
	  <point x="373" y="708" type="line"/>
	  <point x="460" y="794"/>
	  <point x="522" y="840"/>
	  <point x="614" y="840" type="curve" smooth="yes"/>
	  <point x="728" y="840"/>
	  <point x="778" y="774"/>
	  <point x="778" y="602" type="curve" smooth="yes"/>
	  <point x="778" y="0" type="line"/>
	  <point x="997" y="0" type="line"/>
	  <point x="997" y="631" type="line"/>
	  <point x="997" y="885"/>
	  <point x="902" y="1028"/>
	  <point x="689" y="1028" type="curve" smooth="yes"/>
	  <point x="551" y="1028"/>
	  <point x="449" y="955"/>
	  <point x="359" y="865" type="curve"/>
	  <point x="351" y="865" type="line"/>
	  <point x="334" y="1003" type="line"/>
	  <point x="155" y="1003" type="line"/>
	</contour>
	<contour>
	  <point x="305" y="1183" type="curve"/>
	  <point x="422" y="1183" type="line"/>
	  <point x="435" y="1251"/>
	  <point x="457" y="1282"/>
	  <point x="496" y="1282" type="curve" smooth="yes"/>
	  <point x="561" y="1282"/>
	  <point x="626" y="1183"/>
	  <point x="733" y="1183" type="curve" smooth="yes"/>
	  <point x="836" y="1183"/>
	  <point x="901" y="1276"/>
	  <point x="917" y="1422" type="curve"/>
	  <point x="798" y="1422" type="line"/>
	  <point x="786" y="1354"/>
	  <point x="764" y="1323"/>
	  <point x="725" y="1323" type="curve" smooth="yes"/>
	  <point x="661" y="1323"/>
	  <point x="593" y="1422"/>
	  <point x="489" y="1422" type="curve" smooth="yes"/>
	  <point x="385" y="1422"/>
	  <point x="319" y="1330"/>
	</contour>
  </outline>
</glyph>
<glyph name="ograve" format="1">
  <advance width="1120"/>
  <unicode hex="00F2"/>
  <outline>
	<contour>
	  <point x="86" y="501" type="curve" smooth="yes"/>
	  <point x="86" y="168"/>
	  <point x="311" y="-25"/>
	  <point x="560" y="-25" type="curve" smooth="yes"/>
	  <point x="809" y="-25"/>
	  <point x="1034" y="168"/>
	  <point x="1034" y="501" type="curve" smooth="yes"/>
	  <point x="1034" y="835"/>
	  <point x="809" y="1028"/>
	  <point x="560" y="1028" type="curve" smooth="yes"/>
	  <point x="311" y="1028"/>
	  <point x="86" y="835"/>
	</contour>
	<contour>
	  <point x="312" y="501" type="curve" smooth="yes"/>
	  <point x="312" y="709"/>
	  <point x="408" y="849"/>
	  <point x="560" y="849" type="curve" smooth="yes"/>
	  <point x="714" y="849"/>
	  <point x="809" y="709"/>
	  <point x="809" y="501" type="curve" smooth="yes"/>
	  <point x="809" y="292"/>
	  <point x="714" y="155"/>
	  <point x="560" y="155" type="curve" smooth="yes"/>
	  <point x="408" y="155"/>
	  <point x="312" y="292"/>
	</contour>
	<contour>
	  <point x="543" y="1175" type="line"/>
	  <point x="706" y="1175" type="line"/>
	  <point x="523" y="1470" type="line"/>
	  <point x="303" y="1470" type="line"/>
	</contour>
  </outline>
</glyph>
<glyph name="otilde" format="1">
  <advance width="1120"/>
  <unicode hex="00F5"/>
  <outline>
	<contour>
	  <point x="86" y="501" type="curve" smooth="yes"/>
	  <point x="86" y="168"/>
	  <point x="311" y="-25"/>
	  <point x="560" y="-25" type="curve" smooth="yes"/>
	  <point x="809" y="-25"/>
	  <point x="1034" y="168"/>
	  <point x="1034" y="501" type="curve" smooth="yes"/>
	  <point x="1034" y="835"/>
	  <point x="809" y="1028"/>
	  <point x="560" y="1028" type="curve" smooth="yes"/>
	  <point x="311" y="1028"/>
	  <point x="86" y="835"/>
	</contour>
	<contour>
	  <point x="312" y="501" type="curve" smooth="yes"/>
	  <point x="312" y="709"/>
	  <point x="408" y="849"/>
	  <point x="560" y="849" type="curve" smooth="yes"/>
	  <point x="714" y="849"/>
	  <point x="809" y="709"/>
	  <point x="809" y="501" type="curve" smooth="yes"/>
	  <point x="809" y="292"/>
	  <point x="714" y="155"/>
	  <point x="560" y="155" type="curve" smooth="yes"/>
	  <point x="408" y="155"/>
	  <point x="312" y="292"/>
	</contour>
	<contour>
	  <point x="254" y="1183" type="curve"/>
	  <point x="373" y="1183" type="line"/>
	  <point x="385" y="1251"/>
	  <point x="406" y="1282"/>
	  <point x="446" y="1282" type="curve" smooth="yes"/>
	  <point x="512" y="1282"/>
	  <point x="577" y="1183"/>
	  <point x="682" y="1183" type="curve" smooth="yes"/>
	  <point x="786" y="1183"/>
	  <point x="851" y="1276"/>
	  <point x="866" y="1422" type="curve"/>
	  <point x="748" y="1422" type="line"/>
	  <point x="735" y="1354"/>
	  <point x="714" y="1323"/>
	  <point x="675" y="1323" type="curve" smooth="yes"/>
	  <point x="611" y="1323"/>
	  <point x="544" y="1422"/>
	  <point x="438" y="1422" type="curve" smooth="yes"/>
	  <point x="335" y="1422"/>
	  <point x="269" y="1330"/>
	</contour>
  </outline>
</glyph>
<glyph name="odieresis" format="1">
  <advance width="1120"/>
  <unicode hex="00F6"/>
  <outline>
	<contour>
	  <point x="86" y="501" type="curve" smooth="yes"/>
	  <point x="86" y="168"/>
	  <point x="311" y="-25"/>
	  <point x="560" y="-25" type="curve" smooth="yes"/>
	  <point x="809" y="-25"/>
	  <point x="1034" y="168"/>
	  <point x="1034" y="501" type="curve" smooth="yes"/>
	  <point x="1034" y="835"/>
	  <point x="809" y="1028"/>
	  <point x="560" y="1028" type="curve" smooth="yes"/>
	  <point x="311" y="1028"/>
	  <point x="86" y="835"/>
	</contour>
	<contour>
	  <point x="312" y="501" type="curve" smooth="yes"/>
	  <point x="312" y="709"/>
	  <point x="408" y="849"/>
	  <point x="560" y="849" type="curve" smooth="yes"/>
	  <point x="714" y="849"/>
	  <point x="809" y="709"/>
	  <point x="809" y="501" type="curve" smooth="yes"/>
	  <point x="809" y="292"/>
	  <point x="714" y="155"/>
	  <point x="560" y="155" type="curve" smooth="yes"/>
	  <point x="408" y="155"/>
	  <point x="312" y="292"/>
	</contour>
	<contour>
	  <point x="374" y="1191" type="curve" smooth="yes"/>
	  <point x="306" y="1191"/>
	  <point x="258" y="1241"/>
	  <point x="258" y="1308" type="curve" smooth="yes"/>
	  <point x="258" y="1374"/>
	  <point x="306" y="1424"/>
	  <point x="374" y="1424" type="curve" smooth="yes"/>
	  <point x="442" y="1424"/>
	  <point x="490" y="1374"/>
	  <point x="490" y="1308" type="curve" smooth="yes"/>
	  <point x="490" y="1241"/>
	  <point x="442" y="1191"/>
	</contour>
	<contour>
	  <point x="747" y="1191" type="curve" smooth="yes"/>
	  <point x="816" y="1191"/>
	  <point x="863" y="1241"/>
	  <point x="863" y="1308" type="curve" smooth="yes"/>
	  <point x="863" y="1374"/>
	  <point x="816" y="1424"/>
	  <point x="747" y="1424" type="curve" smooth="yes"/>
	  <point x="679" y="1424"/>
	  <point x="631" y="1374"/>
	  <point x="631" y="1308" type="curve" smooth="yes"/>
	  <point x="631" y="1241"/>
	  <point x="679" y="1191"/>
	</contour>
  </outline>
</glyph>
<glyph name="divide" format="1">
  <advance width="1042"/>
  <unicode hex="00F7"/>
  <outline>
	<contour>
	  <point x="522" y="916" type="curve" smooth="yes"/>
	  <point x="595" y="916"/>
	  <point x="654" y="969"/>
	  <point x="654" y="1044" type="curve" smooth="yes"/>
	  <point x="654" y="1119"/>
	  <point x="595" y="1172"/>
	  <point x="522" y="1172" type="curve" smooth="yes"/>
	  <point x="446" y="1172"/>
	  <point x="389" y="1119"/>
	  <point x="389" y="1044" type="curve" smooth="yes"/>
	  <point x="389" y="969"/>
	  <point x="446" y="916"/>
	</contour>
	<contour>
	  <point x="389" y="307" type="curve" smooth="yes"/>
	  <point x="389" y="232"/>
	  <point x="446" y="179"/>
	  <point x="522" y="179" type="curve" smooth="yes"/>
	  <point x="595" y="179"/>
	  <point x="654" y="232"/>
	  <point x="654" y="307" type="curve" smooth="yes"/>
	  <point x="654" y="382"/>
	  <point x="595" y="435"/>
	  <point x="522" y="435" type="curve" smooth="yes"/>
	  <point x="446" y="435"/>
	  <point x="389" y="382"/>
	</contour>
	<contour>
	  <point x="70" y="596" type="line"/>
	  <point x="972" y="596" type="line"/>
	  <point x="972" y="755" type="line"/>
	  <point x="70" y="755" type="line"/>
	</contour>
  </outline>
</glyph>
<glyph name="ucircumflex" format="1">
  <advance width="1133"/>
  <unicode hex="00FB"/>
  <outline>
	<contour>
	  <point x="142" y="373" type="line"/>
	  <point x="142" y="119"/>
	  <point x="236" y="-25"/>
	  <point x="451" y="-25" type="curve" smooth="yes"/>
	  <point x="589" y="-25"/>
	  <point x="686" y="44"/>
	  <point x="775" y="150" type="curve"/>
	  <point x="782" y="150" type="line"/>
	  <point x="799" y="0" type="line"/>
	  <point x="979" y="0" type="line"/>
	  <point x="979" y="1003" type="line"/>
	  <point x="760" y="1003" type="line"/>
	  <point x="760" y="310" type="line"/>
	  <point x="679" y="207"/>
	  <point x="618" y="163"/>
	  <point x="526" y="163" type="curve" smooth="yes"/>
	  <point x="411" y="163"/>
	  <point x="362" y="231"/>
	  <point x="362" y="401" type="curve" smooth="yes"/>
	  <point x="362" y="1003" type="line"/>
	  <point x="142" y="1003" type="line"/>
	</contour>
	<contour>
	  <point x="285" y="1175" type="line"/>
	  <point x="437" y="1175" type="line"/>
	  <point x="563" y="1351" type="line"/>
	  <point x="571" y="1351" type="line"/>
	  <point x="697" y="1175" type="line"/>
	  <point x="851" y="1175" type="line"/>
	  <point x="657" y="1470" type="line"/>
	  <point x="479" y="1470" type="line"/>
	</contour>
  </outline>
</glyph>
<glyph name="udieresis" format="1">
  <advance width="1133"/>
  <unicode hex="00FC"/>
  <outline>
	<contour>
	  <point x="142" y="373" type="line"/>
	  <point x="142" y="119"/>
	  <point x="236" y="-25"/>
	  <point x="451" y="-25" type="curve" smooth="yes"/>
	  <point x="589" y="-25"/>
	  <point x="686" y="44"/>
	  <point x="775" y="150" type="curve"/>
	  <point x="782" y="150" type="line"/>
	  <point x="799" y="0" type="line"/>
	  <point x="979" y="0" type="line"/>
	  <point x="979" y="1003" type="line"/>
	  <point x="760" y="1003" type="line"/>
	  <point x="760" y="310" type="line"/>
	  <point x="679" y="207"/>
	  <point x="618" y="163"/>
	  <point x="526" y="163" type="curve" smooth="yes"/>
	  <point x="411" y="163"/>
	  <point x="362" y="231"/>
	  <point x="362" y="401" type="curve" smooth="yes"/>
	  <point x="362" y="1003" type="line"/>
	  <point x="142" y="1003" type="line"/>
	</contour>
	<contour>
	  <point x="381" y="1191" type="curve" smooth="yes"/>
	  <point x="448" y="1191"/>
	  <point x="497" y="1241"/>
	  <point x="497" y="1308" type="curve" smooth="yes"/>
	  <point x="497" y="1374"/>
	  <point x="448" y="1424"/>
	  <point x="381" y="1424" type="curve" smooth="yes"/>
	  <point x="314" y="1424"/>
	  <point x="265" y="1374"/>
	  <point x="265" y="1308" type="curve" smooth="yes"/>
	  <point x="265" y="1241"/>
	  <point x="314" y="1191"/>
	</contour>
	<contour>
	  <point x="754" y="1191" type="curve" smooth="yes"/>
	  <point x="822" y="1191"/>
	  <point x="872" y="1241"/>
	  <point x="872" y="1308" type="curve" smooth="yes"/>
	  <point x="872" y="1374"/>
	  <point x="822" y="1424"/>
	  <point x="754" y="1424" type="curve" smooth="yes"/>
	  <point x="686" y="1424"/>
	  <point x="638" y="1374"/>
	  <point x="638" y="1308" type="curve" smooth="yes"/>
	  <point x="638" y="1241"/>
	  <point x="686" y="1191"/>
	</contour>
  </outline>
</glyph>
<glyph name="ydieresis" format="1">
  <advance width="998"/>
  <unicode hex="00FF"/>
  <outline>
	<contour>
	  <point x="121" y="-226" type="curve"/>
	  <point x="81" y="-396" type="line"/>
	  <point x="116" y="-408"/>
	  <point x="156" y="-416"/>
	  <point x="208" y="-416" type="curve" smooth="yes"/>
	  <point x="423" y="-416"/>
	  <point x="528" y="-274"/>
	  <point x="608" y="-55" type="curve" smooth="yes"/>
	  <point x="974" y="1003" type="line"/>
	  <point x="763" y="1003" type="line"/>
	  <point x="606" y="496" type="line"/>
	  <point x="579" y="404"/>
	  <point x="554" y="305"/>
	  <point x="527" y="212" type="curve"/>
	  <point x="519" y="212" type="line"/>
	  <point x="490" y="308"/>
	  <point x="459" y="407"/>
	  <point x="428" y="496" type="curve" smooth="yes"/>
	  <point x="248" y="1003" type="line"/>
	  <point x="25" y="1003" type="line"/>
	  <point x="421" y="9" type="line"/>
	  <point x="401" y="-57" type="line"/>
	  <point x="366" y="-164"/>
	  <point x="302" y="-240"/>
	  <point x="194" y="-240" type="curve" smooth="yes"/>
	  <point x="171" y="-240"/>
	  <point x="141" y="-232"/>
	</contour>
	<contour>
	  <point x="330" y="1191" type="curve" smooth="yes"/>
	  <point x="398" y="1191"/>
	  <point x="447" y="1241"/>
	  <point x="447" y="1308" type="curve" smooth="yes"/>
	  <point x="447" y="1374"/>
	  <point x="398" y="1424"/>
	  <point x="330" y="1424" type="curve" smooth="yes"/>
	  <point x="262" y="1424"/>
	  <point x="213" y="1374"/>
	  <point x="213" y="1308" type="curve" smooth="yes"/>
	  <point x="213" y="1241"/>
	  <point x="262" y="1191"/>
	</contour>
	<contour>
	  <point x="703" y="1191" type="curve" smooth="yes"/>
	  <point x="772" y="1191"/>
	  <point x="819" y="1241"/>
	  <point x="819" y="1308" type="curve" smooth="yes"/>
	  <point x="819" y="1374"/>
	  <point x="772" y="1424"/>
	  <point x="703" y="1424" type="curve" smooth="yes"/>
	  <point x="635" y="1424"/>
	  <point x="587" y="1374"/>
	  <point x="587" y="1308" type="curve" smooth="yes"/>
	  <point x="587" y="1241"/>
	  <point x="635" y="1191"/>
	</contour>
  </outline>
</glyph>
<glyph name="ccircumflex" format="1">
  <advance width="942"/>
  <unicode hex="0109"/>
  <outline>
	<contour>
	  <point x="86" y="501" type="curve" smooth="yes"/>
	  <point x="86" y="168"/>
	  <point x="295" y="-25"/>
	  <point x="566" y="-25" type="curve" smooth="yes"/>
	  <point x="682" y="-25"/>
	  <point x="803" y="22"/>
	  <point x="896" y="103" type="curve"/>
	  <point x="803" y="245" type="line"/>
	  <point x="747" y="197"/>
	  <point x="675" y="155"/>
	  <point x="588" y="155" type="curve" smooth="yes"/>
	  <point x="426" y="155"/>
	  <point x="312" y="292"/>
	  <point x="312" y="501" type="curve" smooth="yes"/>
	  <point x="312" y="709"/>
	  <point x="428" y="849"/>
	  <point x="596" y="849" type="curve" smooth="yes"/>
	  <point x="662" y="849"/>
	  <point x="718" y="819"/>
	  <point x="773" y="772" type="curve"/>
	  <point x="877" y="910" type="line"/>
	  <point x="810" y="976"/>
	  <point x="713" y="1028"/>
	  <point x="584" y="1028" type="curve" smooth="yes"/>
	  <point x="319" y="1028"/>
	  <point x="86" y="835"/>
	</contour>
	<contour>
	  <point x="296" y="1175" type="line"/>
	  <point x="449" y="1175" type="line"/>
	  <point x="576" y="1351" type="line"/>
	  <point x="584" y="1351" type="line"/>
	  <point x="711" y="1175" type="line"/>
	  <point x="863" y="1175" type="line"/>
	  <point x="668" y="1470" type="line"/>
	  <point x="492" y="1470" type="line"/>
	</contour>
  </outline>
</glyph>
<glyph name="Cdotaccent" format="1">
  <advance width="1170"/>
  <unicode hex="010A"/>
  <outline>
	<contour>
	  <point x="97" y="667" type="curve" smooth="yes"/>
	  <point x="97" y="225"/>
	  <point x="361" y="-25"/>
	  <point x="702" y="-25" type="curve" smooth="yes"/>
	  <point x="870" y="-25"/>
	  <point x="1009" y="45"/>
	  <point x="1116" y="171" type="curve"/>
	  <point x="993" y="305" type="line"/>
	  <point x="914" y="218"/>
	  <point x="827" y="167"/>
	  <point x="706" y="167" type="curve" smooth="yes"/>
	  <point x="473" y="167"/>
	  <point x="324" y="360"/>
	  <point x="324" y="674" type="curve" smooth="yes"/>
	  <point x="324" y="983"/>
	  <point x="485" y="1174"/>
	  <point x="714" y="1174" type="curve" smooth="yes"/>
	  <point x="818" y="1174"/>
	  <point x="896" y="1128"/>
	  <point x="966" y="1058" type="curve"/>
	  <point x="1089" y="1196" type="line"/>
	  <point x="1005" y="1285"/>
	  <point x="873" y="1365"/>
	  <point x="711" y="1365" type="curve" smooth="yes"/>
	  <point x="367" y="1365"/>
	  <point x="97" y="1103"/>
	</contour>
	<contour>
	  <point x="683" y="1452" type="curve" smooth="yes"/>
	  <point x="762" y="1452"/>
	  <point x="821" y="1505"/>
	  <point x="821" y="1581" type="curve" smooth="yes"/>
	  <point x="821" y="1655"/>
	  <point x="762" y="1708"/>
	  <point x="683" y="1708" type="curve" smooth="yes"/>
	  <point x="604" y="1708"/>
	  <point x="544" y="1655"/>
	  <point x="544" y="1581" type="curve" smooth="yes"/>
	  <point x="544" y="1505"/>
	  <point x="604" y="1452"/>
	</contour>
  </outline>
</glyph>
<glyph name="cdotaccent" format="1">
  <advance width="942"/>
  <unicode hex="010B"/>
  <outline>
	<contour>
	  <point x="86" y="501" type="curve" smooth="yes"/>
	  <point x="86" y="168"/>
	  <point x="295" y="-25"/>
	  <point x="566" y="-25" type="curve" smooth="yes"/>
	  <point x="682" y="-25"/>
	  <point x="803" y="22"/>
	  <point x="896" y="103" type="curve"/>
	  <point x="803" y="245" type="line"/>
	  <point x="747" y="197"/>
	  <point x="675" y="155"/>
	  <point x="588" y="155" type="curve" smooth="yes"/>
	  <point x="426" y="155"/>
	  <point x="312" y="292"/>
	  <point x="312" y="501" type="curve" smooth="yes"/>
	  <point x="312" y="709"/>
	  <point x="428" y="849"/>
	  <point x="596" y="849" type="curve" smooth="yes"/>
	  <point x="662" y="849"/>
	  <point x="718" y="819"/>
	  <point x="773" y="772" type="curve"/>
	  <point x="877" y="910" type="line"/>
	  <point x="810" y="976"/>
	  <point x="713" y="1028"/>
	  <point x="584" y="1028" type="curve" smooth="yes"/>
	  <point x="319" y="1028"/>
	  <point x="86" y="835"/>
	</contour>
	<contour>
	  <point x="580" y="1187" type="curve" smooth="yes"/>
	  <point x="657" y="1187"/>
	  <point x="713" y="1240"/>
	  <point x="713" y="1316" type="curve" smooth="yes"/>
	  <point x="713" y="1390"/>
	  <point x="657" y="1444"/>
	  <point x="580" y="1444" type="curve" smooth="yes"/>
	  <point x="503" y="1444"/>
	  <point x="447" y="1390"/>
	  <point x="447" y="1316" type="curve" smooth="yes"/>
	  <point x="447" y="1240"/>
	  <point x="503" y="1187"/>
	</contour>
  </outline>
</glyph>
<glyph name="Ccaron" format="1">
  <advance width="1170"/>
  <unicode hex="010C"/>
  <outline>
	<contour>
	  <point x="97" y="667" type="curve" smooth="yes"/>
	  <point x="97" y="225"/>
	  <point x="361" y="-25"/>
	  <point x="702" y="-25" type="curve" smooth="yes"/>
	  <point x="870" y="-25"/>
	  <point x="1009" y="45"/>
	  <point x="1116" y="171" type="curve"/>
	  <point x="993" y="305" type="line"/>
	  <point x="914" y="218"/>
	  <point x="827" y="167"/>
	  <point x="706" y="167" type="curve" smooth="yes"/>
	  <point x="473" y="167"/>
	  <point x="324" y="360"/>
	  <point x="324" y="674" type="curve" smooth="yes"/>
	  <point x="324" y="983"/>
	  <point x="485" y="1174"/>
	  <point x="714" y="1174" type="curve" smooth="yes"/>
	  <point x="818" y="1174"/>
	  <point x="896" y="1128"/>
	  <point x="966" y="1058" type="curve"/>
	  <point x="1089" y="1196" type="line"/>
	  <point x="1005" y="1285"/>
	  <point x="873" y="1365"/>
	  <point x="711" y="1365" type="curve" smooth="yes"/>
	  <point x="367" y="1365"/>
	  <point x="97" y="1103"/>
	</contour>
	<contour>
	  <point x="814" y="1678" type="line"/>
	  <point x="687" y="1545" type="line"/>
	  <point x="679" y="1545" type="line"/>
	  <point x="552" y="1678" type="line"/>
	  <point x="380" y="1678" type="line"/>
	  <point x="577" y="1443" type="line"/>
	  <point x="790" y="1443" type="line"/>
	  <point x="986" y="1678" type="line"/>
	</contour>
  </outline>
</glyph>
<glyph name="Dcaron" format="1">
  <advance width="1270"/>
  <unicode hex="010E"/>
  <outline>
	<contour>
	  <point x="170" y="0" type="line"/>
	  <point x="533" y="0" type="line"/>
	  <point x="933" y="0"/>
	  <point x="1170" y="237"/>
	  <point x="1170" y="676" type="curve" smooth="yes"/>
	  <point x="1170" y="1115"/>
	  <point x="933" y="1340"/>
	  <point x="521" y="1340" type="curve" smooth="yes"/>
	  <point x="170" y="1340" type="line"/>
	</contour>
	<contour>
	  <point x="392" y="179" type="line"/>
	  <point x="392" y="1161" type="line"/>
	  <point x="507" y="1161" type="line"/>
	  <point x="788" y="1161"/>
	  <point x="943" y="1007"/>
	  <point x="943" y="676" type="curve" smooth="yes"/>
	  <point x="943" y="344"/>
	  <point x="788" y="179"/>
	  <point x="507" y="179" type="curve" smooth="yes"/>
	</contour>
	<contour>
	  <point x="766" y="1678" type="line"/>
	  <point x="639" y="1545" type="line"/>
	  <point x="631" y="1545" type="line"/>
	  <point x="505" y="1678" type="line"/>
	  <point x="332" y="1678" type="line"/>
	  <point x="529" y="1443" type="line"/>
	  <point x="741" y="1443" type="line"/>
	  <point x="937" y="1678" type="line"/>
	</contour>
  </outline>
</glyph>
<glyph name="dcaron" format="1">
  <advance width="1206"/>
  <unicode hex="010F"/>
  <outline>
	<contour>
	  <point x="90" y="501" type="curve" smooth="yes"/>
	  <point x="90" y="169"/>
	  <point x="253" y="-25"/>
	  <point x="503" y="-25" type="curve" smooth="yes"/>
	  <point x="613" y="-25"/>
	  <point x="717" y="36"/>
	  <point x="793" y="111" type="curve"/>
	  <point x="799" y="111" type="line"/>
	  <point x="816" y="0" type="line"/>
	  <point x="996" y="0" type="line"/>
	  <point x="996" y="1450" type="line"/>
	  <point x="776" y="1450" type="line"/>
	  <point x="776" y="1081" type="line"/>
	  <point x="786" y="916" type="line"/>
	  <point x="705" y="985"/>
	  <point x="632" y="1028"/>
	  <point x="518" y="1028" type="curve" smooth="yes"/>
	  <point x="296" y="1028"/>
	  <point x="90" y="827"/>
	</contour>
	<contour>
	  <point x="315" y="503" type="curve" smooth="yes"/>
	  <point x="315" y="717"/>
	  <point x="427" y="847"/>
	  <point x="562" y="847" type="curve" smooth="yes"/>
	  <point x="634" y="847"/>
	  <point x="704" y="823"/>
	  <point x="776" y="757" type="curve"/>
	  <point x="776" y="277" type="line"/>
	  <point x="707" y="194"/>
	  <point x="638" y="157"/>
	  <point x="556" y="157" type="curve" smooth="yes"/>
	  <point x="404" y="157"/>
	  <point x="315" y="279"/>
	</contour>
	<contour>
	  <point x="1202" y="1122" type="line"/>
	  <point x="1239" y="1438" type="line"/>
	  <point x="1242" y="1564" type="line"/>
	  <point x="1093" y="1564" type="line"/>
	  <point x="1102" y="1122" type="line"/>
	</contour>
  </outline>
</glyph>
<glyph name="Dcroat" format="1">
  <advance width="1313"/>
  <unicode hex="0110"/>
  <outline>
	<contour>
	  <point x="434" y="179" type="line"/>
	  <point x="434" y="641" type="line"/>
	  <point x="725" y="641" type="line"/>
	  <point x="725" y="757" type="line"/>
	  <point x="434" y="757" type="line"/>
	  <point x="434" y="1161" type="line"/>
	  <point x="551" y="1161" type="line"/>
	  <point x="831" y="1161"/>
	  <point x="987" y="1007"/>
	  <point x="987" y="676" type="curve" smooth="yes"/>
	  <point x="987" y="344"/>
	  <point x="831" y="179"/>
	  <point x="551" y="179" type="curve" smooth="yes"/>
	</contour>
	<contour>
	  <point x="214" y="1340" type="line"/>
	  <point x="214" y="757" type="line"/>
	  <point x="58" y="748" type="line"/>
	  <point x="58" y="641" type="line"/>
	  <point x="214" y="641" type="line"/>
	  <point x="214" y="0" type="line"/>
	  <point x="577" y="0" type="line"/>
	  <point x="977" y="0"/>
	  <point x="1214" y="237"/>
	  <point x="1214" y="676" type="curve" smooth="yes"/>
	  <point x="1214" y="1115"/>
	  <point x="977" y="1340"/>
	  <point x="566" y="1340" type="curve" smooth="yes"/>
	</contour>
  </outline>
</glyph>
<glyph name="dcroat" format="1">
  <advance width="1151"/>
  <unicode hex="0111"/>
  <outline>
	<contour>
	  <point x="776" y="277" type="line"/>
	  <point x="707" y="194"/>
	  <point x="638" y="157"/>
	  <point x="556" y="157" type="curve" smooth="yes"/>
	  <point x="404" y="157"/>
	  <point x="315" y="269"/>
	  <point x="315" y="483" type="curve" smooth="yes"/>
	  <point x="315" y="684"/>
	  <point x="427" y="806"/>
	  <point x="562" y="806" type="curve" smooth="yes"/>
	  <point x="634" y="806"/>
	  <point x="704" y="782"/>
	  <point x="776" y="716" type="curve"/>
	</contour>
	<contour>
	  <point x="1140" y="1274" type="line"/>
	  <point x="996" y="1274" type="line"/>
	  <point x="996" y="1450" type="line"/>
	  <point x="776" y="1450" type="line"/>
	  <point x="776" y="1274" type="line"/>
	  <point x="456" y="1274" type="line"/>
	  <point x="456" y="1158" type="line"/>
	  <point x="776" y="1158" type="line"/>
	  <point x="776" y="1040" type="line"/>
	  <point x="786" y="875" type="line"/>
	  <point x="705" y="944"/>
	  <point x="632" y="987"/>
	  <point x="518" y="987" type="curve" smooth="yes"/>
	  <point x="296" y="987"/>
	  <point x="90" y="791"/>
	  <point x="90" y="480" type="curve" smooth="yes"/>
	  <point x="90" y="159"/>
	  <point x="253" y="-25"/>
	  <point x="503" y="-25" type="curve" smooth="yes"/>
	  <point x="616" y="-25"/>
	  <point x="716" y="32"/>
	  <point x="790" y="104" type="curve"/>
	  <point x="797" y="104" type="line"/>
	  <point x="811" y="0" type="line"/>
	  <point x="996" y="0" type="line"/>
	  <point x="996" y="1158" type="line"/>
	  <point x="1140" y="1169" type="line"/>
	</contour>
  </outline>
</glyph>
<glyph name="Emacron" format="1">
  <advance width="1088"/>
  <unicode hex="0112"/>
  <outline>
	<contour>
	  <point x="170" y="0" type="line"/>
	  <point x="989" y="0" type="line"/>
	  <point x="989" y="187" type="line"/>
	  <point x="392" y="187" type="line"/>
	  <point x="392" y="606" type="line"/>
	  <point x="879" y="606" type="line"/>
	  <point x="879" y="791" type="line"/>
	  <point x="392" y="791" type="line"/>
	  <point x="392" y="1155" type="line"/>
	  <point x="968" y="1155" type="line"/>
	  <point x="968" y="1340" type="line"/>
	  <point x="170" y="1340" type="line"/>
	</contour>
	<contour>
	  <point x="314" y="1486" type="line"/>
	  <point x="849" y="1486" type="line"/>
	  <point x="849" y="1631" type="line"/>
	  <point x="314" y="1631" type="line"/>
	</contour>
  </outline>
</glyph>
<glyph name="Ebreve" format="1">
  <advance width="1088"/>
  <unicode hex="0114"/>
  <outline>
	<contour>
	  <point x="170" y="0" type="line"/>
	  <point x="989" y="0" type="line"/>
	  <point x="989" y="187" type="line"/>
	  <point x="392" y="187" type="line"/>
	  <point x="392" y="606" type="line"/>
	  <point x="879" y="606" type="line"/>
	  <point x="879" y="791" type="line"/>
	  <point x="392" y="791" type="line"/>
	  <point x="392" y="1155" type="line"/>
	  <point x="968" y="1155" type="line"/>
	  <point x="968" y="1340" type="line"/>
	  <point x="170" y="1340" type="line"/>
	</contour>
	<contour>
	  <point x="583" y="1445" type="curve" smooth="yes"/>
	  <point x="751" y="1445"/>
	  <point x="830" y="1552"/>
	  <point x="844" y="1678" type="curve"/>
	  <point x="719" y="1678" type="line"/>
	  <point x="706" y="1618"/>
	  <point x="666" y="1562"/>
	  <point x="583" y="1562" type="curve" smooth="yes"/>
	  <point x="498" y="1562"/>
	  <point x="457" y="1618"/>
	  <point x="445" y="1678" type="curve"/>
	  <point x="320" y="1678" type="line"/>
	  <point x="333" y="1552"/>
	  <point x="413" y="1445"/>
	</contour>
  </outline>
</glyph>
<glyph name="Edotaccent" format="1">
  <advance width="1088"/>
  <unicode hex="0116"/>
  <outline>
	<contour>
	  <point x="170" y="0" type="line"/>
	  <point x="989" y="0" type="line"/>
	  <point x="989" y="187" type="line"/>
	  <point x="392" y="187" type="line"/>
	  <point x="392" y="606" type="line"/>
	  <point x="879" y="606" type="line"/>
	  <point x="879" y="791" type="line"/>
	  <point x="392" y="791" type="line"/>
	  <point x="392" y="1155" type="line"/>
	  <point x="968" y="1155" type="line"/>
	  <point x="968" y="1340" type="line"/>
	  <point x="170" y="1340" type="line"/>
	</contour>
	<contour>
	  <point x="583" y="1452" type="curve" smooth="yes"/>
	  <point x="661" y="1452"/>
	  <point x="721" y="1505"/>
	  <point x="721" y="1581" type="curve" smooth="yes"/>
	  <point x="721" y="1655"/>
	  <point x="661" y="1708"/>
	  <point x="583" y="1708" type="curve" smooth="yes"/>
	  <point x="502" y="1708"/>
	  <point x="444" y="1655"/>
	  <point x="444" y="1581" type="curve" smooth="yes"/>
	  <point x="444" y="1505"/>
	  <point x="502" y="1452"/>
	</contour>
  </outline>
</glyph>
<glyph name="Ecaron" format="1">
  <advance width="1088"/>
  <unicode hex="011A"/>
  <outline>
	<contour>
	  <point x="170" y="0" type="line"/>
	  <point x="989" y="0" type="line"/>
	  <point x="989" y="187" type="line"/>
	  <point x="392" y="187" type="line"/>
	  <point x="392" y="606" type="line"/>
	  <point x="879" y="606" type="line"/>
	  <point x="879" y="791" type="line"/>
	  <point x="392" y="791" type="line"/>
	  <point x="392" y="1155" type="line"/>
	  <point x="968" y="1155" type="line"/>
	  <point x="968" y="1340" type="line"/>
	  <point x="170" y="1340" type="line"/>
	</contour>
	<contour>
	  <point x="713" y="1678" type="line"/>
	  <point x="587" y="1545" type="line"/>
	  <point x="578" y="1545" type="line"/>
	  <point x="451" y="1678" type="line"/>
	  <point x="279" y="1678" type="line"/>
	  <point x="475" y="1443" type="line"/>
	  <point x="688" y="1443" type="line"/>
	  <point x="885" y="1678" type="line"/>
	</contour>
  </outline>
</glyph>
<glyph name="ecaron" format="1">
  <advance width="1033"/>
  <unicode hex="011B"/>
  <outline>
	<contour>
	  <point x="86" y="501" type="curve" smooth="yes"/>
	  <point x="86" y="171"/>
	  <point x="302" y="-25"/>
	  <point x="577" y="-25" type="curve" smooth="yes"/>
	  <point x="708" y="-25"/>
	  <point x="825" y="21"/>
	  <point x="918" y="83" type="curve"/>
	  <point x="843" y="220" type="line"/>
	  <point x="769" y="174"/>
	  <point x="693" y="147"/>
	  <point x="606" y="147" type="curve" smooth="yes"/>
	  <point x="436" y="147"/>
	  <point x="317" y="256"/>
	  <point x="300" y="448" type="curve"/>
	  <point x="948" y="448" type="line"/>
	  <point x="952" y="472"/>
	  <point x="956" y="511"/>
	  <point x="956" y="553" type="curve" smooth="yes"/>
	  <point x="956" y="835"/>
	  <point x="813" y="1028"/>
	  <point x="546" y="1028" type="curve" smooth="yes"/>
	  <point x="311" y="1028"/>
	  <point x="86" y="827"/>
	</contour>
	<contour>
	  <point x="298" y="587" type="line"/>
	  <point x="319" y="763"/>
	  <point x="429" y="858"/>
	  <point x="550" y="858" type="curve" smooth="yes"/>
	  <point x="692" y="858"/>
	  <point x="767" y="757"/>
	  <point x="767" y="587" type="curve"/>
	</contour>
	<contour>
	  <point x="457" y="1175" type="line"/>
	  <point x="634" y="1175" type="line"/>
	  <point x="829" y="1470" type="line"/>
	  <point x="676" y="1470" type="line"/>
	  <point x="550" y="1292" type="line"/>
	  <point x="542" y="1292" type="line"/>
	  <point x="415" y="1470" type="line"/>
	  <point x="263" y="1470" type="line"/>
	</contour>
  </outline>
</glyph>
<glyph name="Gbreve" format="1">
  <advance width="1272"/>
  <unicode hex="011E"/>
  <outline>
	<contour>
	  <point x="97" y="667" type="curve" smooth="yes"/>
	  <point x="97" y="225"/>
	  <point x="362" y="-25"/>
	  <point x="718" y="-25" type="curve" smooth="yes"/>
	  <point x="901" y="-25"/>
	  <point x="1056" y="48"/>
	  <point x="1147" y="133" type="curve"/>
	  <point x="1147" y="717" type="line"/>
	  <point x="688" y="717" type="line"/>
	  <point x="688" y="536" type="line"/>
	  <point x="949" y="536" type="line"/>
	  <point x="949" y="232" type="line"/>
	  <point x="903" y="192"/>
	  <point x="824" y="167"/>
	  <point x="744" y="167" type="curve" smooth="yes"/>
	  <point x="470" y="167"/>
	  <point x="324" y="360"/>
	  <point x="324" y="674" type="curve" smooth="yes"/>
	  <point x="324" y="983"/>
	  <point x="488" y="1174"/>
	  <point x="735" y="1174" type="curve" smooth="yes"/>
	  <point x="861" y="1174"/>
	  <point x="937" y="1125"/>
	  <point x="1005" y="1058" type="curve"/>
	  <point x="1129" y="1196" type="line"/>
	  <point x="1045" y="1281"/>
	  <point x="916" y="1365"/>
	  <point x="732" y="1365" type="curve" smooth="yes"/>
	  <point x="370" y="1365"/>
	  <point x="97" y="1103"/>
	</contour>
	<contour>
	  <point x="731" y="1445" type="curve" smooth="yes"/>
	  <point x="900" y="1445"/>
	  <point x="978" y="1552"/>
	  <point x="994" y="1678" type="curve"/>
	  <point x="867" y="1678" type="line"/>
	  <point x="855" y="1618"/>
	  <point x="814" y="1562"/>
	  <point x="731" y="1562" type="curve" smooth="yes"/>
	  <point x="647" y="1562"/>
	  <point x="607" y="1618"/>
	  <point x="594" y="1678" type="curve"/>
	  <point x="468" y="1678" type="line"/>
	  <point x="483" y="1552"/>
	  <point x="561" y="1445"/>
	</contour>
  </outline>
</glyph>
<glyph name="Gdotaccent" format="1">
  <advance width="1272"/>
  <unicode hex="0120"/>
  <outline>
	<contour>
	  <point x="97" y="667" type="curve" smooth="yes"/>
	  <point x="97" y="225"/>
	  <point x="362" y="-25"/>
	  <point x="718" y="-25" type="curve" smooth="yes"/>
	  <point x="901" y="-25"/>
	  <point x="1056" y="48"/>
	  <point x="1147" y="133" type="curve"/>
	  <point x="1147" y="717" type="line"/>
	  <point x="688" y="717" type="line"/>
	  <point x="688" y="536" type="line"/>
	  <point x="949" y="536" type="line"/>
	  <point x="949" y="232" type="line"/>
	  <point x="903" y="192"/>
	  <point x="824" y="167"/>
	  <point x="744" y="167" type="curve" smooth="yes"/>
	  <point x="470" y="167"/>
	  <point x="324" y="360"/>
	  <point x="324" y="674" type="curve" smooth="yes"/>
	  <point x="324" y="983"/>
	  <point x="488" y="1174"/>
	  <point x="735" y="1174" type="curve" smooth="yes"/>
	  <point x="861" y="1174"/>
	  <point x="937" y="1125"/>
	  <point x="1005" y="1058" type="curve"/>
	  <point x="1129" y="1196" type="line"/>
	  <point x="1045" y="1281"/>
	  <point x="916" y="1365"/>
	  <point x="732" y="1365" type="curve" smooth="yes"/>
	  <point x="370" y="1365"/>
	  <point x="97" y="1103"/>
	</contour>
	<contour>
	  <point x="731" y="1452" type="curve" smooth="yes"/>
	  <point x="810" y="1452"/>
	  <point x="870" y="1505"/>
	  <point x="870" y="1581" type="curve" smooth="yes"/>
	  <point x="870" y="1655"/>
	  <point x="810" y="1708"/>
	  <point x="731" y="1708" type="curve" smooth="yes"/>
	  <point x="651" y="1708"/>
	  <point x="592" y="1655"/>
	  <point x="592" y="1581" type="curve" smooth="yes"/>
	  <point x="592" y="1505"/>
	  <point x="651" y="1452"/>
	</contour>
  </outline>
</glyph>
<glyph name="uni0122" format="1">
  <advance width="1272"/>
  <unicode hex="0122"/>
  <outline>
	<contour>
	  <point x="97" y="667" type="curve" smooth="yes"/>
	  <point x="97" y="225"/>
	  <point x="362" y="-25"/>
	  <point x="718" y="-25" type="curve" smooth="yes"/>
	  <point x="901" y="-25"/>
	  <point x="1056" y="48"/>
	  <point x="1147" y="133" type="curve"/>
	  <point x="1147" y="717" type="line"/>
	  <point x="688" y="717" type="line"/>
	  <point x="688" y="536" type="line"/>
	  <point x="949" y="536" type="line"/>
	  <point x="949" y="232" type="line"/>
	  <point x="903" y="192"/>
	  <point x="824" y="167"/>
	  <point x="744" y="167" type="curve" smooth="yes"/>
	  <point x="470" y="167"/>
	  <point x="324" y="360"/>
	  <point x="324" y="674" type="curve" smooth="yes"/>
	  <point x="324" y="983"/>
	  <point x="488" y="1174"/>
	  <point x="735" y="1174" type="curve" smooth="yes"/>
	  <point x="861" y="1174"/>
	  <point x="937" y="1125"/>
	  <point x="1005" y="1058" type="curve"/>
	  <point x="1129" y="1196" type="line"/>
	  <point x="1045" y="1281"/>
	  <point x="916" y="1365"/>
	  <point x="732" y="1365" type="curve" smooth="yes"/>
	  <point x="370" y="1365"/>
	  <point x="97" y="1103"/>
	</contour>
	<contour>
	  <point x="656" y="-93" type="curve"/>
	  <point x="611" y="-184" type="line"/>
	  <point x="671" y="-199"/>
	  <point x="710" y="-221"/>
	  <point x="710" y="-268" type="curve" smooth="yes"/>
	  <point x="710" y="-319"/>
	  <point x="636" y="-343"/>
	  <point x="533" y="-355" type="curve"/>
	  <point x="552" y="-452" type="line"/>
	  <point x="722" y="-441"/>
	  <point x="874" y="-383"/>
	  <point x="874" y="-257" type="curve" smooth="yes"/>
	  <point x="874" y="-161"/>
	  <point x="811" y="-113"/>
	</contour>
  </outline>
</glyph>
<glyph name="Hcircumflex" format="1">
  <advance width="1344"/>
  <unicode hex="0124"/>
  <outline>
	<contour>
	  <point x="170" y="0" type="line"/>
	  <point x="392" y="0" type="line"/>
	  <point x="392" y="604" type="line"/>
	  <point x="954" y="604" type="line"/>
	  <point x="954" y="0" type="line"/>
	  <point x="1174" y="0" type="line"/>
	  <point x="1174" y="1340" type="line"/>
	  <point x="954" y="1340" type="line"/>
	  <point x="954" y="796" type="line"/>
	  <point x="392" y="796" type="line"/>
	  <point x="392" y="1340" type="line"/>
	  <point x="170" y="1340" type="line"/>
	</contour>
	<contour>
	  <point x="540" y="1443" type="line"/>
	  <point x="667" y="1577" type="line"/>
	  <point x="675" y="1577" type="line"/>
	  <point x="802" y="1443" type="line"/>
	  <point x="974" y="1443" type="line"/>
	  <point x="778" y="1678" type="line"/>
	  <point x="565" y="1678" type="line"/>
	  <point x="368" y="1443" type="line"/>
	</contour>
  </outline>
</glyph>
<glyph name="hcircumflex" format="1">
  <advance width="1135"/>
  <unicode hex="0125"/>
  <outline>
	<contour>
	  <point x="155" y="0" type="line"/>
	  <point x="373" y="0" type="line"/>
	  <point x="373" y="708" type="line"/>
	  <point x="460" y="794"/>
	  <point x="522" y="840"/>
	  <point x="614" y="840" type="curve" smooth="yes"/>
	  <point x="728" y="840"/>
	  <point x="778" y="774"/>
	  <point x="778" y="602" type="curve" smooth="yes"/>
	  <point x="778" y="0" type="line"/>
	  <point x="997" y="0" type="line"/>
	  <point x="997" y="631" type="line"/>
	  <point x="997" y="885"/>
	  <point x="902" y="1028"/>
	  <point x="689" y="1028" type="curve" smooth="yes"/>
	  <point x="551" y="1028"/>
	  <point x="451" y="955"/>
	  <point x="364" y="873" type="curve"/>
	  <point x="373" y="1069" type="line"/>
	  <point x="373" y="1450" type="line"/>
	  <point x="155" y="1450" type="line"/>
	</contour>
	<contour>
	  <point x="134" y="1535" type="line"/>
	  <point x="260" y="1668" type="line"/>
	  <point x="268" y="1668" type="line"/>
	  <point x="394" y="1535" type="line"/>
	  <point x="566" y="1535" type="line"/>
	  <point x="370" y="1769" type="line"/>
	  <point x="157" y="1769" type="line"/>
	  <point x="-40" y="1535" type="line"/>
	</contour>
  </outline>
</glyph>
<glyph name="Hbar" format="1">
  <advance width="1420"/>
  <unicode hex="0126"/>
  <outline>
	<contour>
	  <point x="990" y="796" type="line"/>
	  <point x="428" y="796" type="line"/>
	  <point x="428" y="1003" type="line"/>
	  <point x="990" y="1003" type="line"/>
	</contour>
	<contour>
	  <point x="1362" y="1118" type="line"/>
	  <point x="1212" y="1118" type="line"/>
	  <point x="1212" y="1340" type="line"/>
	  <point x="990" y="1340" type="line"/>
	  <point x="990" y="1118" type="line"/>
	  <point x="428" y="1118" type="line"/>
	  <point x="428" y="1340" type="line"/>
	  <point x="208" y="1340" type="line"/>
	  <point x="208" y="1118" type="line"/>
	  <point x="56" y="1107" type="line"/>
	  <point x="56" y="1003" type="line"/>
	  <point x="208" y="1003" type="line"/>
	  <point x="208" y="0" type="line"/>
	  <point x="428" y="0" type="line"/>
	  <point x="428" y="604" type="line"/>
	  <point x="990" y="604" type="line"/>
	  <point x="990" y="0" type="line"/>
	  <point x="1212" y="0" type="line"/>
	  <point x="1212" y="1003" type="line"/>
	  <point x="1362" y="1003" type="line"/>
	</contour>
  </outline>
</glyph>
<glyph name="Itilde" format="1">
  <advance width="561"/>
  <unicode hex="0128"/>
  <outline>
	<contour>
	  <point x="170" y="0" type="line"/>
	  <point x="392" y="0" type="line"/>
	  <point x="392" y="1340" type="line"/>
	  <point x="170" y="1340" type="line"/>
	</contour>
	<contour>
	  <point x="406" y="1450" type="curve" smooth="yes"/>
	  <point x="507" y="1450"/>
	  <point x="582" y="1544"/>
	  <point x="597" y="1693" type="curve"/>
	  <point x="480" y="1693" type="line"/>
	  <point x="468" y="1626"/>
	  <point x="437" y="1592"/>
	  <point x="399" y="1592" type="curve" smooth="yes"/>
	  <point x="328" y="1592"/>
	  <point x="264" y="1693"/>
	  <point x="155" y="1693" type="curve" smooth="yes"/>
	  <point x="54" y="1693"/>
	  <point x="-20" y="1599"/>
	  <point x="-36" y="1450" type="curve"/>
	  <point x="80" y="1450" type="line"/>
	  <point x="93" y="1519"/>
	  <point x="124" y="1551"/>
	  <point x="161" y="1551" type="curve" smooth="yes"/>
	  <point x="232" y="1551"/>
	  <point x="297" y="1450"/>
	</contour>
  </outline>
</glyph>
<glyph name="itilde" format="1">
  <advance width="527"/>
  <unicode hex="0129"/>
  <outline>
	<contour>
	  <point x="155" y="0" type="line"/>
	  <point x="373" y="0" type="line"/>
	  <point x="373" y="1003" type="line"/>
	  <point x="155" y="1003" type="line"/>
	</contour>
	<contour>
	  <point x="-42" y="1183" type="curve"/>
	  <point x="76" y="1183" type="line"/>
	  <point x="89" y="1251"/>
	  <point x="110" y="1282"/>
	  <point x="149" y="1282" type="curve" smooth="yes"/>
	  <point x="215" y="1282"/>
	  <point x="281" y="1183"/>
	  <point x="386" y="1183" type="curve" smooth="yes"/>
	  <point x="489" y="1183"/>
	  <point x="555" y="1276"/>
	  <point x="570" y="1422" type="curve"/>
	  <point x="452" y="1422" type="line"/>
	  <point x="440" y="1354"/>
	  <point x="417" y="1323"/>
	  <point x="378" y="1323" type="curve" smooth="yes"/>
	  <point x="315" y="1323"/>
	  <point x="248" y="1422"/>
	  <point x="142" y="1422" type="curve" smooth="yes"/>
	  <point x="38" y="1422"/>
	  <point x="-28" y="1330"/>
	</contour>
  </outline>
</glyph>
<glyph name="Imacron" format="1">
  <advance width="561"/>
  <unicode hex="012A"/>
  <outline>
	<contour>
	  <point x="170" y="0" type="line"/>
	  <point x="392" y="0" type="line"/>
	  <point x="392" y="1340" type="line"/>
	  <point x="170" y="1340" type="line"/>
	</contour>
	<contour>
	  <point x="13" y="1486" type="line"/>
	  <point x="548" y="1486" type="line"/>
	  <point x="548" y="1631" type="line"/>
	  <point x="13" y="1631" type="line"/>
	</contour>
  </outline>
</glyph>
<glyph name="imacron" format="1">
  <advance width="527"/>
  <unicode hex="012B"/>
  <outline>
	<contour>
	  <point x="155" y="0" type="line"/>
	  <point x="373" y="0" type="line"/>
	  <point x="373" y="1003" type="line"/>
	  <point x="155" y="1003" type="line"/>
	</contour>
	<contour>
	  <point x="1" y="1224" type="line"/>
	  <point x="527" y="1224" type="line"/>
	  <point x="527" y="1369" type="line"/>
	  <point x="1" y="1369" type="line"/>
	</contour>
  </outline>
</glyph>
<glyph name="uni012C" format="1">
  <advance width="561"/>
  <unicode hex="012C"/>
  <outline>
	<contour>
	  <point x="170" y="0" type="line"/>
	  <point x="392" y="0" type="line"/>
	  <point x="392" y="1340" type="line"/>
	  <point x="170" y="1340" type="line"/>
	</contour>
	<contour>
	  <point x="280" y="1445" type="curve" smooth="yes"/>
	  <point x="450" y="1445"/>
	  <point x="528" y="1552"/>
	  <point x="543" y="1678" type="curve"/>
	  <point x="417" y="1678" type="line"/>
	  <point x="404" y="1618"/>
	  <point x="364" y="1562"/>
	  <point x="280" y="1562" type="curve" smooth="yes"/>
	  <point x="197" y="1562"/>
	  <point x="157" y="1618"/>
	  <point x="145" y="1678" type="curve"/>
	  <point x="18" y="1678" type="line"/>
	  <point x="33" y="1552"/>
	  <point x="111" y="1445"/>
	</contour>
  </outline>
</glyph>
<glyph name="uni012D" format="1">
  <advance width="527"/>
  <unicode hex="012D"/>
  <outline>
	<contour>
	  <point x="155" y="0" type="line"/>
	  <point x="373" y="0" type="line"/>
	  <point x="373" y="1003" type="line"/>
	  <point x="155" y="1003" type="line"/>
	</contour>
	<contour>
	  <point x="265" y="1177" type="curve" smooth="yes"/>
	  <point x="447" y="1177"/>
	  <point x="527" y="1315"/>
	  <point x="533" y="1446" type="curve"/>
	  <point x="405" y="1446" type="line"/>
	  <point x="395" y="1372"/>
	  <point x="352" y="1305"/>
	  <point x="265" y="1305" type="curve" smooth="yes"/>
	  <point x="178" y="1305"/>
	  <point x="136" y="1372"/>
	  <point x="124" y="1446" type="curve"/>
	  <point x="-4" y="1446" type="line"/>
	  <point x="4" y="1315"/>
	  <point x="83" y="1177"/>
	</contour>
  </outline>
</glyph>
<glyph name="Idotaccent" format="1">
  <advance width="561"/>
  <unicode hex="0130"/>
  <outline>
	<contour>
	  <point x="170" y="0" type="line"/>
	  <point x="392" y="0" type="line"/>
	  <point x="392" y="1340" type="line"/>
	  <point x="170" y="1340" type="line"/>
	</contour>
	<contour>
	  <point x="280" y="1452" type="curve" smooth="yes"/>
	  <point x="360" y="1452"/>
	  <point x="419" y="1505"/>
	  <point x="419" y="1581" type="curve" smooth="yes"/>
	  <point x="419" y="1655"/>
	  <point x="360" y="1708"/>
	  <point x="280" y="1708" type="curve" smooth="yes"/>
	  <point x="202" y="1708"/>
	  <point x="142" y="1655"/>
	  <point x="142" y="1581" type="curve" smooth="yes"/>
	  <point x="142" y="1505"/>
	  <point x="202" y="1452"/>
	</contour>
  </outline>
</glyph>
<glyph name="dotlessi" format="1">
  <advance width="527"/>
  <unicode hex="0131"/>
  <outline>
	<contour>
	  <point x="155" y="0" type="line"/>
	  <point x="373" y="0" type="line"/>
	  <point x="373" y="1003" type="line"/>
	  <point x="155" y="1003" type="line"/>
	</contour>
	<contour>
	  <point x="332" y="0" type="move" name="mark0"/>
	</contour>
  </outline>
</glyph>
<glyph name="Jcircumflex" format="1">
  <advance width="997"/>
  <unicode hex="0134"/>
  <outline>
	<contour>
	  <point x="48" y="200" type="line"/>
	  <point x="132" y="51"/>
	  <point x="258" y="-25"/>
	  <point x="441" y="-25" type="curve" smooth="yes"/>
	  <point x="717" y="-25"/>
	  <point x="834" y="172"/>
	  <point x="834" y="414" type="curve" smooth="yes"/>
	  <point x="834" y="1340" type="line"/>
	  <point x="613" y="1340" type="line"/>
	  <point x="613" y="434" type="line"/>
	  <point x="613" y="239"/>
	  <point x="547" y="167"/>
	  <point x="417" y="167" type="curve" smooth="yes"/>
	  <point x="331" y="167"/>
	  <point x="259" y="212"/>
	  <point x="201" y="311" type="curve"/>
	</contour>
	<contour>
	  <point x="586" y="1443" type="line"/>
	  <point x="713" y="1577" type="line"/>
	  <point x="722" y="1577" type="line"/>
	  <point x="848" y="1443" type="line"/>
	  <point x="1020" y="1443" type="line"/>
	  <point x="823" y="1678" type="line"/>
	  <point x="611" y="1678" type="line"/>
	  <point x="414" y="1443" type="line"/>
	</contour>
  </outline>
</glyph>
<glyph name="jcircumflex" format="1">
  <advance width="530"/>
  <unicode hex="0135"/>
  <outline>
	<contour>
	  <point x="157" y="-71" type="line"/>
	  <point x="157" y="-188"/>
	  <point x="131" y="-253"/>
	  <point x="40" y="-253" type="curve" smooth="yes"/>
	  <point x="7" y="-253"/>
	  <point x="-24" y="-246"/>
	  <point x="-49" y="-238" type="curve"/>
	  <point x="-90" y="-401" type="line"/>
	  <point x="-53" y="-416"/>
	  <point x="-1" y="-428"/>
	  <point x="69" y="-428" type="curve" smooth="yes"/>
	  <point x="297" y="-428"/>
	  <point x="375" y="-277"/>
	  <point x="375" y="-68" type="curve" smooth="yes"/>
	  <point x="375" y="1003" type="line"/>
	  <point x="157" y="1003" type="line"/>
	</contour>
	<contour>
	  <point x="-17" y="1175" type="line"/>
	  <point x="136" y="1175" type="line"/>
	  <point x="263" y="1351" type="line"/>
	  <point x="271" y="1351" type="line"/>
	  <point x="397" y="1175" type="line"/>
	  <point x="549" y="1175" type="line"/>
	  <point x="355" y="1470" type="line"/>
	  <point x="177" y="1470" type="line"/>
	</contour>
  </outline>
</glyph>
<glyph name="uni0136" format="1">
  <advance width="1206"/>
  <unicode hex="0136"/>
  <outline>
	<contour>
	  <point x="170" y="0" type="line"/>
	  <point x="392" y="0" type="line"/>
	  <point x="392" y="400" type="line"/>
	  <point x="593" y="646" type="line"/>
	  <point x="965" y="0" type="line"/>
	  <point x="1209" y="0" type="line"/>
	  <point x="726" y="820" type="line"/>
	  <point x="1141" y="1340" type="line"/>
	  <point x="894" y="1340" type="line"/>
	  <point x="396" y="715" type="line"/>
	  <point x="392" y="715" type="line"/>
	  <point x="392" y="1340" type="line"/>
	  <point x="170" y="1340" type="line"/>
	</contour>
	<contour>
	  <point x="603" y="-93" type="curve"/>
	  <point x="558" y="-184" type="line"/>
	  <point x="619" y="-199"/>
	  <point x="657" y="-221"/>
	  <point x="657" y="-268" type="curve" smooth="yes"/>
	  <point x="657" y="-319"/>
	  <point x="584" y="-343"/>
	  <point x="481" y="-355" type="curve"/>
	  <point x="500" y="-452" type="line"/>
	  <point x="669" y="-441"/>
	  <point x="820" y="-383"/>
	  <point x="820" y="-257" type="curve" smooth="yes"/>
	  <point x="820" y="-161"/>
	  <point x="759" y="-113"/>
	</contour>
  </outline>
</glyph>
<glyph name="uni0137" format="1">
  <advance width="1055"/>
  <unicode hex="0137"/>
  <outline>
	<contour>
	  <point x="155" y="0" type="line"/>
	  <point x="369" y="0" type="line"/>
	  <point x="369" y="257" type="line"/>
	  <point x="533" y="447" type="line"/>
	  <point x="801" y="0" type="line"/>
	  <point x="1039" y="0" type="line"/>
	  <point x="658" y="597" type="line"/>
	  <point x="1001" y="1003" type="line"/>
	  <point x="761" y="1003" type="line"/>
	  <point x="376" y="525" type="line"/>
	  <point x="369" y="525" type="line"/>
	  <point x="369" y="1450" type="line"/>
	  <point x="155" y="1450" type="line"/>
	</contour>
	<contour>
	  <point x="509" y="-93" type="curve"/>
	  <point x="464" y="-184" type="line"/>
	  <point x="524" y="-199"/>
	  <point x="562" y="-221"/>
	  <point x="562" y="-268" type="curve" smooth="yes"/>
	  <point x="562" y="-319"/>
	  <point x="490" y="-343"/>
	  <point x="386" y="-355" type="curve"/>
	  <point x="405" y="-452" type="line"/>
	  <point x="574" y="-441"/>
	  <point x="726" y="-383"/>
	  <point x="726" y="-257" type="curve" smooth="yes"/>
	  <point x="726" y="-161"/>
	  <point x="666" y="-113"/>
	</contour>
  </outline>
</glyph>
<glyph name="Lacute" format="1">
  <advance width="1012"/>
  <unicode hex="0139"/>
  <outline>
	<contour>
	  <point x="170" y="0" type="line"/>
	  <point x="955" y="0" type="line"/>
	  <point x="955" y="187" type="line"/>
	  <point x="392" y="187" type="line"/>
	  <point x="392" y="1340" type="line"/>
	  <point x="170" y="1340" type="line"/>
	</contour>
	<contour>
	  <point x="580" y="1678" type="line"/>
	  <point x="339" y="1678" type="line"/>
	  <point x="164" y="1443" type="line"/>
	  <point x="343" y="1443" type="line"/>
	</contour>
  </outline>
</glyph>
<glyph name="lacute" format="1">
  <advance width="546"/>
  <unicode hex="013A"/>
  <outline>
	<contour>
	  <point x="155" y="245" type="line"/>
	  <point x="155" y="76"/>
	  <point x="213" y="-25"/>
	  <point x="370" y="-25" type="curve" smooth="yes"/>
	  <point x="424" y="-25"/>
	  <point x="461" y="-16"/>
	  <point x="487" y="-5" type="curve"/>
	  <point x="460" y="159" type="line"/>
	  <point x="442" y="155"/>
	  <point x="434" y="155"/>
	  <point x="423" y="155" type="curve" smooth="yes"/>
	  <point x="398" y="155"/>
	  <point x="373" y="175"/>
	  <point x="373" y="232" type="curve" smooth="yes"/>
	  <point x="373" y="1450" type="line"/>
	  <point x="155" y="1450" type="line"/>
	</contour>
	<contour>
	  <point x="554" y="1787" type="line"/>
	  <point x="312" y="1787" type="line"/>
	  <point x="137" y="1552" type="line"/>
	  <point x="317" y="1552" type="line"/>
	</contour>
  </outline>
</glyph>
<glyph name="uni013B" format="1">
  <advance width="1012"/>
  <unicode hex="013B"/>
  <outline>
	<contour>
	  <point x="170" y="0" type="line"/>
	  <point x="955" y="0" type="line"/>
	  <point x="955" y="187" type="line"/>
	  <point x="392" y="187" type="line"/>
	  <point x="392" y="1340" type="line"/>
	  <point x="170" y="1340" type="line"/>
	</contour>
	<contour>
	  <point x="522" y="-93" type="curve"/>
	  <point x="478" y="-184" type="line"/>
	  <point x="537" y="-199"/>
	  <point x="576" y="-221"/>
	  <point x="576" y="-268" type="curve" smooth="yes"/>
	  <point x="576" y="-319"/>
	  <point x="503" y="-343"/>
	  <point x="400" y="-355" type="curve"/>
	  <point x="418" y="-452" type="line"/>
	  <point x="588" y="-441"/>
	  <point x="740" y="-383"/>
	  <point x="740" y="-257" type="curve" smooth="yes"/>
	  <point x="740" y="-161"/>
	  <point x="679" y="-113"/>
	</contour>
  </outline>
</glyph>
<glyph name="uni013C" format="1">
  <advance width="546"/>
  <unicode hex="013C"/>
  <outline>
	<contour>
	  <point x="155" y="245" type="line"/>
	  <point x="155" y="76"/>
	  <point x="213" y="-25"/>
	  <point x="370" y="-25" type="curve" smooth="yes"/>
	  <point x="424" y="-25"/>
	  <point x="461" y="-16"/>
	  <point x="487" y="-5" type="curve"/>
	  <point x="460" y="159" type="line"/>
	  <point x="442" y="155"/>
	  <point x="434" y="155"/>
	  <point x="423" y="155" type="curve" smooth="yes"/>
	  <point x="398" y="155"/>
	  <point x="373" y="175"/>
	  <point x="373" y="232" type="curve" smooth="yes"/>
	  <point x="373" y="1450" type="line"/>
	  <point x="155" y="1450" type="line"/>
	</contour>
	<contour>
	  <point x="300" y="-93" type="curve"/>
	  <point x="255" y="-184" type="line"/>
	  <point x="314" y="-199"/>
	  <point x="353" y="-221"/>
	  <point x="353" y="-268" type="curve" smooth="yes"/>
	  <point x="353" y="-319"/>
	  <point x="280" y="-343"/>
	  <point x="176" y="-355" type="curve"/>
	  <point x="196" y="-452" type="line"/>
	  <point x="365" y="-441"/>
	  <point x="517" y="-383"/>
	  <point x="517" y="-257" type="curve" smooth="yes"/>
	  <point x="517" y="-161"/>
	  <point x="455" y="-113"/>
	</contour>
  </outline>
</glyph>
<glyph name="Lcaron" format="1">
  <advance width="1012"/>
  <unicode hex="013D"/>
  <outline>
	<contour>
	  <point x="170" y="0" type="line"/>
	  <point x="955" y="0" type="line"/>
	  <point x="955" y="187" type="line"/>
	  <point x="392" y="187" type="line"/>
	  <point x="392" y="1340" type="line"/>
	  <point x="170" y="1340" type="line"/>
	</contour>
	<contour>
	  <point x="794" y="1050" type="line"/>
	  <point x="830" y="1365" type="line"/>
	  <point x="834" y="1492" type="line"/>
	  <point x="686" y="1492" type="line"/>
	  <point x="694" y="1050" type="line"/>
	</contour>
  </outline>
</glyph>
<glyph name="lcaron" format="1">
  <advance width="584"/>
  <unicode hex="013E"/>
  <outline>
	<contour>
	  <point x="155" y="245" type="line"/>
	  <point x="155" y="76"/>
	  <point x="213" y="-25"/>
	  <point x="370" y="-25" type="curve" smooth="yes"/>
	  <point x="424" y="-25"/>
	  <point x="461" y="-16"/>
	  <point x="487" y="-5" type="curve"/>
	  <point x="460" y="159" type="line"/>
	  <point x="442" y="155"/>
	  <point x="434" y="155"/>
	  <point x="423" y="155" type="curve" smooth="yes"/>
	  <point x="398" y="155"/>
	  <point x="373" y="175"/>
	  <point x="373" y="232" type="curve" smooth="yes"/>
	  <point x="373" y="1450" type="line"/>
	  <point x="155" y="1450" type="line"/>
	</contour>
	<contour>
	  <point x="581" y="1122" type="line"/>
	  <point x="617" y="1438" type="line"/>
	  <point x="618" y="1564" type="line"/>
	  <point x="471" y="1564" type="line"/>
	  <point x="479" y="1122" type="line"/>
	</contour>
  </outline>
</glyph>
<glyph name="Ldot" format="1">
  <advance width="1012"/>
  <unicode hex="013F"/>
  <outline>
	<contour>
	  <point x="170" y="0" type="line"/>
	  <point x="955" y="0" type="line"/>
	  <point x="955" y="187" type="line"/>
	  <point x="392" y="187" type="line"/>
	  <point x="392" y="1340" type="line"/>
	  <point x="170" y="1340" type="line"/>
	</contour>
	<contour>
	  <point x="650" y="669" type="curve" smooth="yes"/>
	  <point x="650" y="581"/>
	  <point x="713" y="518"/>
	  <point x="793" y="518" type="curve" smooth="yes"/>
	  <point x="875" y="518"/>
	  <point x="939" y="581"/>
	  <point x="939" y="669" type="curve" smooth="yes"/>
	  <point x="939" y="757"/>
	  <point x="875" y="821"/>
	  <point x="793" y="821" type="curve" smooth="yes"/>
	  <point x="713" y="821"/>
	  <point x="650" y="757"/>
	</contour>
  </outline>
</glyph>
<glyph name="ldot" format="1">
  <advance width="812"/>
  <unicode hex="0140"/>
  <outline>
	<contour>
	  <point x="155" y="245" type="line"/>
	  <point x="155" y="76"/>
	  <point x="213" y="-25"/>
	  <point x="370" y="-25" type="curve" smooth="yes"/>
	  <point x="424" y="-25"/>
	  <point x="461" y="-16"/>
	  <point x="487" y="-5" type="curve"/>
	  <point x="460" y="159" type="line"/>
	  <point x="442" y="155"/>
	  <point x="434" y="155"/>
	  <point x="423" y="155" type="curve" smooth="yes"/>
	  <point x="398" y="155"/>
	  <point x="373" y="175"/>
	  <point x="373" y="232" type="curve" smooth="yes"/>
	  <point x="373" y="1450" type="line"/>
	  <point x="155" y="1450" type="line"/>
	</contour>
	<contour>
	  <point x="525" y="669" type="curve" smooth="yes"/>
	  <point x="525" y="581"/>
	  <point x="588" y="518"/>
	  <point x="668" y="518" type="curve" smooth="yes"/>
	  <point x="750" y="518"/>
	  <point x="814" y="581"/>
	  <point x="814" y="669" type="curve" smooth="yes"/>
	  <point x="814" y="757"/>
	  <point x="750" y="821"/>
	  <point x="668" y="821" type="curve" smooth="yes"/>
	  <point x="588" y="821"/>
	  <point x="525" y="757"/>
	</contour>
  </outline>
</glyph>
<glyph name="nacute" format="1">
  <advance width="1139"/>
  <unicode hex="0144"/>
  <outline>
	<contour>
	  <point x="155" y="0" type="line"/>
	  <point x="373" y="0" type="line"/>
	  <point x="373" y="708" type="line"/>
	  <point x="460" y="794"/>
	  <point x="522" y="840"/>
	  <point x="614" y="840" type="curve" smooth="yes"/>
	  <point x="728" y="840"/>
	  <point x="778" y="774"/>
	  <point x="778" y="602" type="curve" smooth="yes"/>
	  <point x="778" y="0" type="line"/>
	  <point x="997" y="0" type="line"/>
	  <point x="997" y="631" type="line"/>
	  <point x="997" y="885"/>
	  <point x="902" y="1028"/>
	  <point x="689" y="1028" type="curve" smooth="yes"/>
	  <point x="551" y="1028"/>
	  <point x="449" y="955"/>
	  <point x="359" y="865" type="curve"/>
	  <point x="351" y="865" type="line"/>
	  <point x="334" y="1003" type="line"/>
	  <point x="155" y="1003" type="line"/>
	</contour>
	<contour>
	  <point x="867" y="1470" type="line"/>
	  <point x="647" y="1470" type="line"/>
	  <point x="464" y="1175" type="line"/>
	  <point x="628" y="1175" type="line"/>
	</contour>
  </outline>
</glyph>
<glyph name="uni0145" format="1">
  <advance width="1332"/>
  <unicode hex="0145"/>
  <outline>
	<contour>
	  <point x="170" y="0" type="line"/>
	  <point x="380" y="0" type="line"/>
	  <point x="380" y="615" type="line"/>
	  <point x="380" y="763"/>
	  <point x="363" y="919"/>
	  <point x="352" y="1059" type="curve"/>
	  <point x="361" y="1059" type="line"/>
	  <point x="500" y="777" type="line"/>
	  <point x="933" y="0" type="line"/>
	  <point x="1161" y="0" type="line"/>
	  <point x="1161" y="1340" type="line"/>
	  <point x="951" y="1340" type="line"/>
	  <point x="951" y="731" type="line"/>
	  <point x="951" y="584"/>
	  <point x="969" y="418"/>
	  <point x="979" y="281" type="curve"/>
	  <point x="971" y="281" type="line"/>
	  <point x="831" y="566" type="line"/>
	  <point x="396" y="1340" type="line"/>
	  <point x="170" y="1340" type="line"/>
	</contour>
	<contour>
	  <point x="616" y="-93" type="curve"/>
	  <point x="570" y="-184" type="line"/>
	  <point x="631" y="-199"/>
	  <point x="669" y="-221"/>
	  <point x="669" y="-268" type="curve" smooth="yes"/>
	  <point x="669" y="-319"/>
	  <point x="596" y="-343"/>
	  <point x="493" y="-355" type="curve"/>
	  <point x="512" y="-452" type="line"/>
	  <point x="681" y="-441"/>
	  <point x="832" y="-383"/>
	  <point x="832" y="-257" type="curve" smooth="yes"/>
	  <point x="832" y="-161"/>
	  <point x="771" y="-113"/>
	</contour>
  </outline>
</glyph>
<glyph name="uni0146" format="1">
  <advance width="1139"/>
  <unicode hex="0146"/>
  <outline>
	<contour>
	  <point x="155" y="0" type="line"/>
	  <point x="373" y="0" type="line"/>
	  <point x="373" y="708" type="line"/>
	  <point x="460" y="794"/>
	  <point x="522" y="840"/>
	  <point x="614" y="840" type="curve" smooth="yes"/>
	  <point x="728" y="840"/>
	  <point x="778" y="774"/>
	  <point x="778" y="602" type="curve" smooth="yes"/>
	  <point x="778" y="0" type="line"/>
	  <point x="997" y="0" type="line"/>
	  <point x="997" y="631" type="line"/>
	  <point x="997" y="885"/>
	  <point x="902" y="1028"/>
	  <point x="689" y="1028" type="curve" smooth="yes"/>
	  <point x="551" y="1028"/>
	  <point x="449" y="955"/>
	  <point x="359" y="865" type="curve"/>
	  <point x="351" y="865" type="line"/>
	  <point x="334" y="1003" type="line"/>
	  <point x="155" y="1003" type="line"/>
	</contour>
	<contour>
	  <point x="517" y="-93" type="curve"/>
	  <point x="472" y="-184" type="line"/>
	  <point x="530" y="-199"/>
	  <point x="570" y="-221"/>
	  <point x="570" y="-268" type="curve" smooth="yes"/>
	  <point x="570" y="-319"/>
	  <point x="497" y="-343"/>
	  <point x="392" y="-355" type="curve"/>
	  <point x="412" y="-452" type="line"/>
	  <point x="582" y="-441"/>
	  <point x="734" y="-383"/>
	  <point x="734" y="-257" type="curve" smooth="yes"/>
	  <point x="734" y="-161"/>
	  <point x="671" y="-113"/>
	</contour>
  </outline>
</glyph>
<glyph name="napostrophe" format="1">
  <advance width="1647"/>
  <unicode hex="0149"/>
  <outline>
	<contour>
	  <point x="189" y="821" type="line"/>
	  <point x="352" y="909"/>
	  <point x="437" y="1037"/>
	  <point x="437" y="1212" type="curve" smooth="yes"/>
	  <point x="437" y="1351"/>
	  <point x="380" y="1430"/>
	  <point x="283" y="1430" type="curve" smooth="yes"/>
	  <point x="209" y="1430"/>
	  <point x="156" y="1379"/>
	  <point x="156" y="1295" type="curve" smooth="yes"/>
	  <point x="156" y="1219"/>
	  <point x="214" y="1174"/>
	  <point x="283" y="1174" type="curve" smooth="yes"/>
	  <point x="289" y="1174"/>
	  <point x="294" y="1174"/>
	  <point x="301" y="1177" type="curve"/>
	  <point x="301" y="1056"/>
	  <point x="245" y="984"/>
	  <point x="135" y="919" type="curve"/>
	</contour>
	<contour>
	  <point x="850" y="865" type="line"/>
	  <point x="833" y="1003" type="line"/>
	  <point x="653" y="1003" type="line"/>
	  <point x="653" y="0" type="line"/>
	  <point x="874" y="0" type="line"/>
	  <point x="874" y="708" type="line"/>
	  <point x="959" y="794"/>
	  <point x="1021" y="840"/>
	  <point x="1112" y="840" type="curve" smooth="yes"/>
	  <point x="1227" y="840"/>
	  <point x="1277" y="774"/>
	  <point x="1277" y="602" type="curve" smooth="yes"/>
	  <point x="1277" y="0" type="line"/>
	  <point x="1496" y="0" type="line"/>
	  <point x="1496" y="631" type="line"/>
	  <point x="1496" y="885"/>
	  <point x="1402" y="1028"/>
	  <point x="1188" y="1028" type="curve" smooth="yes"/>
	  <point x="1050" y="1028"/>
	  <point x="948" y="955"/>
	  <point x="856" y="865" type="curve"/>
	</contour>
  </outline>
</glyph>
<glyph name="Omacron" format="1">
  <advance width="1369"/>
  <unicode hex="014C"/>
  <outline>
	<contour>
	  <point x="684" y="-25" type="curve" smooth="yes"/>
	  <point x="1030" y="-25"/>
	  <point x="1270" y="243"/>
	  <point x="1270" y="676" type="curve" smooth="yes"/>
	  <point x="1270" y="1107"/>
	  <point x="1030" y="1365"/>
	  <point x="684" y="1365" type="curve" smooth="yes"/>
	  <point x="339" y="1365"/>
	  <point x="97" y="1109"/>
	  <point x="97" y="676" type="curve" smooth="yes"/>
	  <point x="97" y="243"/>
	  <point x="339" y="-25"/>
	</contour>
	<contour>
	  <point x="684" y="167" type="curve" smooth="yes"/>
	  <point x="466" y="167"/>
	  <point x="324" y="366"/>
	  <point x="324" y="676" type="curve" smooth="yes"/>
	  <point x="324" y="985"/>
	  <point x="466" y="1174"/>
	  <point x="684" y="1174" type="curve" smooth="yes"/>
	  <point x="902" y="1174"/>
	  <point x="1043" y="985"/>
	  <point x="1043" y="676" type="curve" smooth="yes"/>
	  <point x="1043" y="366"/>
	  <point x="902" y="167"/>
	</contour>
	<contour>
	  <point x="417" y="1486" type="line"/>
	  <point x="953" y="1486" type="line"/>
	  <point x="953" y="1631" type="line"/>
	  <point x="417" y="1631" type="line"/>
	</contour>
  </outline>
</glyph>
<glyph name="omacron" format="1">
  <advance width="1120"/>
  <unicode hex="014D"/>
  <outline>
	<contour>
	  <point x="86" y="501" type="curve" smooth="yes"/>
	  <point x="86" y="168"/>
	  <point x="311" y="-25"/>
	  <point x="560" y="-25" type="curve" smooth="yes"/>
	  <point x="809" y="-25"/>
	  <point x="1034" y="168"/>
	  <point x="1034" y="501" type="curve" smooth="yes"/>
	  <point x="1034" y="835"/>
	  <point x="809" y="1028"/>
	  <point x="560" y="1028" type="curve" smooth="yes"/>
	  <point x="311" y="1028"/>
	  <point x="86" y="835"/>
	</contour>
	<contour>
	  <point x="312" y="501" type="curve" smooth="yes"/>
	  <point x="312" y="709"/>
	  <point x="408" y="849"/>
	  <point x="560" y="849" type="curve" smooth="yes"/>
	  <point x="714" y="849"/>
	  <point x="809" y="709"/>
	  <point x="809" y="501" type="curve" smooth="yes"/>
	  <point x="809" y="292"/>
	  <point x="714" y="155"/>
	  <point x="560" y="155" type="curve" smooth="yes"/>
	  <point x="408" y="155"/>
	  <point x="312" y="292"/>
	</contour>
	<contour>
	  <point x="298" y="1224" type="line"/>
	  <point x="824" y="1224" type="line"/>
	  <point x="824" y="1369" type="line"/>
	  <point x="298" y="1369" type="line"/>
	</contour>
  </outline>
</glyph>
<glyph name="uni014E" format="1">
  <advance width="1369"/>
  <unicode hex="014E"/>
  <outline>
	<contour>
	  <point x="684" y="-25" type="curve" smooth="yes"/>
	  <point x="1030" y="-25"/>
	  <point x="1270" y="243"/>
	  <point x="1270" y="676" type="curve" smooth="yes"/>
	  <point x="1270" y="1107"/>
	  <point x="1030" y="1365"/>
	  <point x="684" y="1365" type="curve" smooth="yes"/>
	  <point x="339" y="1365"/>
	  <point x="97" y="1109"/>
	  <point x="97" y="676" type="curve" smooth="yes"/>
	  <point x="97" y="243"/>
	  <point x="339" y="-25"/>
	</contour>
	<contour>
	  <point x="684" y="167" type="curve" smooth="yes"/>
	  <point x="466" y="167"/>
	  <point x="324" y="366"/>
	  <point x="324" y="676" type="curve" smooth="yes"/>
	  <point x="324" y="985"/>
	  <point x="466" y="1174"/>
	  <point x="684" y="1174" type="curve" smooth="yes"/>
	  <point x="902" y="1174"/>
	  <point x="1043" y="985"/>
	  <point x="1043" y="676" type="curve" smooth="yes"/>
	  <point x="1043" y="366"/>
	  <point x="902" y="167"/>
	</contour>
	<contour>
	  <point x="684" y="1445" type="curve" smooth="yes"/>
	  <point x="854" y="1445"/>
	  <point x="932" y="1552"/>
	  <point x="947" y="1678" type="curve"/>
	  <point x="820" y="1678" type="line"/>
	  <point x="808" y="1618"/>
	  <point x="769" y="1562"/>
	  <point x="684" y="1562" type="curve" smooth="yes"/>
	  <point x="600" y="1562"/>
	  <point x="561" y="1618"/>
	  <point x="548" y="1678" type="curve"/>
	  <point x="422" y="1678" type="line"/>
	  <point x="435" y="1552"/>
	  <point x="515" y="1445"/>
	</contour>
  </outline>
</glyph>
<glyph name="Ohungarumlaut" format="1">
  <advance width="1369"/>
  <unicode hex="0150"/>
  <outline>
	<contour>
	  <point x="684" y="-25" type="curve" smooth="yes"/>
	  <point x="1030" y="-25"/>
	  <point x="1270" y="243"/>
	  <point x="1270" y="676" type="curve" smooth="yes"/>
	  <point x="1270" y="1107"/>
	  <point x="1030" y="1365"/>
	  <point x="684" y="1365" type="curve" smooth="yes"/>
	  <point x="339" y="1365"/>
	  <point x="97" y="1109"/>
	  <point x="97" y="676" type="curve" smooth="yes"/>
	  <point x="97" y="243"/>
	  <point x="339" y="-25"/>
	</contour>
	<contour>
	  <point x="684" y="167" type="curve" smooth="yes"/>
	  <point x="466" y="167"/>
	  <point x="324" y="366"/>
	  <point x="324" y="676" type="curve" smooth="yes"/>
	  <point x="324" y="985"/>
	  <point x="466" y="1174"/>
	  <point x="684" y="1174" type="curve" smooth="yes"/>
	  <point x="902" y="1174"/>
	  <point x="1043" y="985"/>
	  <point x="1043" y="676" type="curve" smooth="yes"/>
	  <point x="1043" y="366"/>
	  <point x="902" y="167"/>
	</contour>
	<contour>
	  <point x="591" y="1443" type="line"/>
	  <point x="768" y="1678" type="line"/>
	  <point x="572" y="1678" type="line"/>
	  <point x="440" y="1443" type="line"/>
	</contour>
	<contour>
	  <point x="779" y="1443" type="line"/>
	  <point x="932" y="1443" type="line"/>
	  <point x="1107" y="1678" type="line"/>
	  <point x="911" y="1678" type="line"/>
	</contour>
  </outline>
</glyph>
<glyph name="ohungarumlaut" format="1">
  <advance width="1120"/>
  <unicode hex="0151"/>
  <outline>
	<contour>
	  <point x="86" y="501" type="curve" smooth="yes"/>
	  <point x="86" y="168"/>
	  <point x="311" y="-25"/>
	  <point x="560" y="-25" type="curve" smooth="yes"/>
	  <point x="809" y="-25"/>
	  <point x="1034" y="168"/>
	  <point x="1034" y="501" type="curve" smooth="yes"/>
	  <point x="1034" y="835"/>
	  <point x="809" y="1028"/>
	  <point x="560" y="1028" type="curve" smooth="yes"/>
	  <point x="311" y="1028"/>
	  <point x="86" y="835"/>
	</contour>
	<contour>
	  <point x="312" y="501" type="curve" smooth="yes"/>
	  <point x="312" y="709"/>
	  <point x="408" y="849"/>
	  <point x="560" y="849" type="curve" smooth="yes"/>
	  <point x="714" y="849"/>
	  <point x="809" y="709"/>
	  <point x="809" y="501" type="curve" smooth="yes"/>
	  <point x="809" y="292"/>
	  <point x="714" y="155"/>
	  <point x="560" y="155" type="curve" smooth="yes"/>
	  <point x="408" y="155"/>
	  <point x="312" y="292"/>
	</contour>
	<contour>
	  <point x="338" y="1171" type="line"/>
	  <point x="482" y="1470" type="line"/>
	  <point x="664" y="1470" type="line"/>
	  <point x="478" y="1171" type="line"/>
	</contour>
	<contour>
	  <point x="658" y="1171" type="line"/>
	  <point x="798" y="1171" type="line"/>
	  <point x="983" y="1470" type="line"/>
	  <point x="802" y="1470" type="line"/>
	</contour>
  </outline>
</glyph>
<glyph name="OE" format="1">
  <advance width="1745"/>
  <unicode hex="0152"/>
  <outline>
	<contour>
	  <point x="97" y="676" type="curve" smooth="yes"/>
	  <point x="97" y="237"/>
	  <point x="358" y="0"/>
	  <point x="755" y="0" type="curve" smooth="yes"/>
	  <point x="1647" y="0" type="line"/>
	  <point x="1647" y="187" type="line"/>
	  <point x="1081" y="187" type="line"/>
	  <point x="1081" y="606" type="line"/>
	  <point x="1539" y="606" type="line"/>
	  <point x="1539" y="791" type="line"/>
	  <point x="1081" y="791" type="line"/>
	  <point x="1081" y="1155" type="line"/>
	  <point x="1627" y="1155" type="line"/>
	  <point x="1627" y="1340" type="line"/>
	  <point x="766" y="1340" type="line"/>
	  <point x="358" y="1340"/>
	  <point x="97" y="1115"/>
	</contour>
	<contour>
	  <point x="324" y="676" type="curve" smooth="yes"/>
	  <point x="324" y="1009"/>
	  <point x="491" y="1161"/>
	  <point x="780" y="1161" type="curve" smooth="yes"/>
	  <point x="860" y="1161" type="line"/>
	  <point x="860" y="179" type="line"/>
	  <point x="780" y="179" type="line"/>
	  <point x="491" y="179"/>
	  <point x="324" y="341"/>
	</contour>
	<contour>
	  <point x="1082" y="1386" type="move" name="mark0"/>
	</contour>
  </outline>
</glyph>
<glyph name="Racute" format="1">
  <advance width="1211"/>
  <unicode hex="0154"/>
  <outline>
	<contour>
	  <point x="903" y="1678" type="line"/>
	  <point x="662" y="1678" type="line"/>
	  <point x="487" y="1443" type="line"/>
	  <point x="667" y="1443" type="line"/>
	</contour>
	<contour>
	  <point x="392" y="1164" type="line"/>
	  <point x="589" y="1164" type="line"/>
	  <point x="779" y="1164"/>
	  <point x="883" y="1108"/>
	  <point x="883" y="949" type="curve" smooth="yes"/>
	  <point x="883" y="791"/>
	  <point x="779" y="712"/>
	  <point x="589" y="712" type="curve" smooth="yes"/>
	  <point x="392" y="712" type="line"/>
	</contour>
	<contour>
	  <point x="1151" y="0" type="line"/>
	  <point x="824" y="567" type="line"/>
	  <point x="991" y="620"/>
	  <point x="1101" y="745"/>
	  <point x="1101" y="949" type="curve" smooth="yes"/>
	  <point x="1101" y="1242"/>
	  <point x="890" y="1340"/>
	  <point x="614" y="1340" type="curve" smooth="yes"/>
	  <point x="170" y="1340" type="line"/>
	  <point x="170" y="0" type="line"/>
	  <point x="392" y="0" type="line"/>
	  <point x="392" y="534" type="line"/>
	  <point x="604" y="534" type="line"/>
	  <point x="901" y="0" type="line"/>
	</contour>
  </outline>
</glyph>
<glyph name="racute" format="1">
  <advance width="751"/>
  <unicode hex="0155"/>
  <outline>
	<contour>
	  <point x="155" y="0" type="line"/>
	  <point x="373" y="0" type="line"/>
	  <point x="373" y="620" type="line"/>
	  <point x="435" y="776"/>
	  <point x="534" y="833"/>
	  <point x="614" y="833" type="curve" smooth="yes"/>
	  <point x="656" y="833"/>
	  <point x="682" y="827"/>
	  <point x="716" y="817" type="curve"/>
	  <point x="755" y="1007" type="line"/>
	  <point x="724" y="1021"/>
	  <point x="692" y="1028"/>
	  <point x="643" y="1028" type="curve" smooth="yes"/>
	  <point x="534" y="1028"/>
	  <point x="428" y="953"/>
	  <point x="359" y="824" type="curve"/>
	  <point x="351" y="824" type="line"/>
	  <point x="334" y="1003" type="line"/>
	  <point x="155" y="1003" type="line"/>
	</contour>
	<contour>
	  <point x="725" y="1470" type="line"/>
	  <point x="506" y="1470" type="line"/>
	  <point x="321" y="1175" type="line"/>
	  <point x="486" y="1175" type="line"/>
	</contour>
  </outline>
</glyph>
<glyph name="uni0156" format="1">
  <advance width="1211"/>
  <unicode hex="0156"/>
  <outline>
	<contour>
	  <point x="535" y="-184" type="line"/>
	  <point x="593" y="-199"/>
	  <point x="633" y="-221"/>
	  <point x="633" y="-268" type="curve" smooth="yes"/>
	  <point x="633" y="-319"/>
	  <point x="559" y="-343"/>
	  <point x="456" y="-355" type="curve"/>
	  <point x="474" y="-452" type="line"/>
	  <point x="645" y="-441"/>
	  <point x="797" y="-383"/>
	  <point x="797" y="-257" type="curve" smooth="yes"/>
	  <point x="797" y="-161"/>
	  <point x="734" y="-113"/>
	  <point x="579" y="-93" type="curve"/>
	</contour>
	<contour>
	  <point x="392" y="1164" type="line"/>
	  <point x="589" y="1164" type="line"/>
	  <point x="779" y="1164"/>
	  <point x="883" y="1108"/>
	  <point x="883" y="949" type="curve" smooth="yes"/>
	  <point x="883" y="791"/>
	  <point x="779" y="712"/>
	  <point x="589" y="712" type="curve" smooth="yes"/>
	  <point x="392" y="712" type="line"/>
	</contour>
	<contour>
	  <point x="824" y="567" type="line"/>
	  <point x="991" y="620"/>
	  <point x="1101" y="745"/>
	  <point x="1101" y="949" type="curve" smooth="yes"/>
	  <point x="1101" y="1242"/>
	  <point x="890" y="1340"/>
	  <point x="614" y="1340" type="curve" smooth="yes"/>
	  <point x="170" y="1340" type="line"/>
	  <point x="170" y="0" type="line"/>
	  <point x="392" y="0" type="line"/>
	  <point x="392" y="534" type="line"/>
	  <point x="604" y="534" type="line"/>
	  <point x="901" y="0" type="line"/>
	  <point x="1151" y="0" type="line"/>
	</contour>
  </outline>
</glyph>
<glyph name="uni0157" format="1">
  <advance width="751"/>
  <unicode hex="0157"/>
  <outline>
	<contour>
	  <point x="155" y="0" type="line"/>
	  <point x="373" y="0" type="line"/>
	  <point x="373" y="620" type="line"/>
	  <point x="435" y="776"/>
	  <point x="534" y="833"/>
	  <point x="614" y="833" type="curve" smooth="yes"/>
	  <point x="656" y="833"/>
	  <point x="682" y="827"/>
	  <point x="716" y="817" type="curve"/>
	  <point x="755" y="1007" type="line"/>
	  <point x="724" y="1021"/>
	  <point x="692" y="1028"/>
	  <point x="643" y="1028" type="curve" smooth="yes"/>
	  <point x="534" y="1028"/>
	  <point x="428" y="953"/>
	  <point x="359" y="824" type="curve"/>
	  <point x="351" y="824" type="line"/>
	  <point x="334" y="1003" type="line"/>
	  <point x="155" y="1003" type="line"/>
	</contour>
	<contour>
	  <point x="196" y="-93" type="curve"/>
	  <point x="152" y="-184" type="line"/>
	  <point x="212" y="-199"/>
	  <point x="250" y="-221"/>
	  <point x="250" y="-268" type="curve" smooth="yes"/>
	  <point x="250" y="-319"/>
	  <point x="177" y="-343"/>
	  <point x="74" y="-355" type="curve"/>
	  <point x="93" y="-452" type="line"/>
	  <point x="262" y="-441"/>
	  <point x="414" y="-383"/>
	  <point x="414" y="-257" type="curve" smooth="yes"/>
	  <point x="414" y="-161"/>
	  <point x="353" y="-113"/>
	</contour>
  </outline>
</glyph>
<glyph name="rcaron" format="1">
  <advance width="751"/>
  <unicode hex="0159"/>
  <outline>
	<contour>
	  <point x="155" y="0" type="line"/>
	  <point x="373" y="0" type="line"/>
	  <point x="373" y="620" type="line"/>
	  <point x="435" y="776"/>
	  <point x="534" y="833"/>
	  <point x="614" y="833" type="curve" smooth="yes"/>
	  <point x="656" y="833"/>
	  <point x="682" y="827"/>
	  <point x="716" y="817" type="curve"/>
	  <point x="755" y="1007" type="line"/>
	  <point x="724" y="1021"/>
	  <point x="692" y="1028"/>
	  <point x="643" y="1028" type="curve" smooth="yes"/>
	  <point x="534" y="1028"/>
	  <point x="428" y="953"/>
	  <point x="359" y="824" type="curve"/>
	  <point x="351" y="824" type="line"/>
	  <point x="334" y="1003" type="line"/>
	  <point x="155" y="1003" type="line"/>
	</contour>
	<contour>
	  <point x="380" y="1175" type="line"/>
	  <point x="556" y="1175" type="line"/>
	  <point x="752" y="1470" type="line"/>
	  <point x="599" y="1470" type="line"/>
	  <point x="474" y="1292" type="line"/>
	  <point x="465" y="1292" type="line"/>
	  <point x="338" y="1470" type="line"/>
	  <point x="185" y="1470" type="line"/>
	</contour>
  </outline>
</glyph>
<glyph name="Scircumflex" format="1">
  <advance width="1103"/>
  <unicode hex="015C"/>
  <outline>
	<contour>
	  <point x="77" y="172" type="line"/>
	  <point x="202" y="48"/>
	  <point x="373" y="-25"/>
	  <point x="556" y="-25" type="curve" smooth="yes"/>
	  <point x="853" y="-25"/>
	  <point x="1032" y="154"/>
	  <point x="1032" y="370" type="curve" smooth="yes"/>
	  <point x="1032" y="565"/>
	  <point x="918" y="663"/>
	  <point x="760" y="730" type="curve" smooth="yes"/>
	  <point x="576" y="807" type="line"/>
	  <point x="467" y="853"/>
	  <point x="359" y="895"/>
	  <point x="359" y="1006" type="curve" smooth="yes"/>
	  <point x="359" y="1109"/>
	  <point x="448" y="1174"/>
	  <point x="580" y="1174" type="curve" smooth="yes"/>
	  <point x="697" y="1174"/>
	  <point x="791" y="1128"/>
	  <point x="875" y="1054" type="curve"/>
	  <point x="989" y="1195" type="line"/>
	  <point x="886" y="1299"/>
	  <point x="738" y="1365"/>
	  <point x="580" y="1365" type="curve" smooth="yes"/>
	  <point x="324" y="1365"/>
	  <point x="137" y="1204"/>
	  <point x="137" y="993" type="curve" smooth="yes"/>
	  <point x="137" y="797"/>
	  <point x="278" y="694"/>
	  <point x="408" y="640" type="curve" smooth="yes"/>
	  <point x="593" y="560" type="line"/>
	  <point x="716" y="505"/>
	  <point x="806" y="469"/>
	  <point x="806" y="352" type="curve" smooth="yes"/>
	  <point x="806" y="240"/>
	  <point x="718" y="167"/>
	  <point x="561" y="167" type="curve" smooth="yes"/>
	  <point x="432" y="167"/>
	  <point x="303" y="231"/>
	  <point x="207" y="324" type="curve"/>
	</contour>
	<contour>
	  <point x="446" y="1443" type="line"/>
	  <point x="573" y="1577" type="line"/>
	  <point x="581" y="1577" type="line"/>
	  <point x="708" y="1443" type="line"/>
	  <point x="880" y="1443" type="line"/>
	  <point x="683" y="1678" type="line"/>
	  <point x="471" y="1678" type="line"/>
	  <point x="275" y="1443" type="line"/>
	</contour>
  </outline>
</glyph>
<glyph name="Tcaron" format="1">
  <advance width="1106"/>
  <unicode hex="0164"/>
  <outline>
	<contour>
	  <point x="443" y="0" type="line"/>
	  <point x="663" y="0" type="line"/>
	  <point x="663" y="1155" type="line"/>
	  <point x="1055" y="1155" type="line"/>
	  <point x="1055" y="1340" type="line"/>
	  <point x="50" y="1340" type="line"/>
	  <point x="50" y="1155" type="line"/>
	  <point x="443" y="1155" type="line"/>
	</contour>
	<contour>
	  <point x="683" y="1678" type="line"/>
	  <point x="556" y="1545" type="line"/>
	  <point x="548" y="1545" type="line"/>
	  <point x="422" y="1678" type="line"/>
	  <point x="249" y="1678" type="line"/>
	  <point x="446" y="1443" type="line"/>
	  <point x="659" y="1443" type="line"/>
	  <point x="855" y="1678" type="line"/>
	</contour>
  </outline>
</glyph>
<glyph name="tcaron" format="1">
  <advance width="727"/>
  <unicode hex="0165"/>
  <outline>
	<contour>
	  <point x="188" y="331" type="line"/>
	  <point x="188" y="119"/>
	  <point x="270" y="-25"/>
	  <point x="497" y="-25" type="curve" smooth="yes"/>
	  <point x="574" y="-25"/>
	  <point x="643" y="-5"/>
	  <point x="698" y="12" type="curve"/>
	  <point x="659" y="174" type="line"/>
	  <point x="629" y="163"/>
	  <point x="587" y="150"/>
	  <point x="553" y="150" type="curve" smooth="yes"/>
	  <point x="452" y="150"/>
	  <point x="408" y="211"/>
	  <point x="408" y="331" type="curve" smooth="yes"/>
	  <point x="408" y="828" type="line"/>
	  <point x="667" y="828" type="line"/>
	  <point x="667" y="1003" type="line"/>
	  <point x="408" y="1003" type="line"/>
	  <point x="408" y="1279" type="line"/>
	  <point x="225" y="1279" type="line"/>
	  <point x="199" y="1003" type="line"/>
	  <point x="44" y="992" type="line"/>
	  <point x="44" y="828" type="line"/>
	  <point x="188" y="828" type="line"/>
	</contour>
	<contour>
	  <point x="643" y="1122" type="line"/>
	  <point x="681" y="1438" type="line"/>
	  <point x="683" y="1564" type="line"/>
	  <point x="534" y="1564" type="line"/>
	  <point x="542" y="1122" type="line"/>
	</contour>
  </outline>
</glyph>
<glyph name="Utilde" format="1">
  <advance width="1329"/>
  <unicode hex="0168"/>
  <outline>
	<contour>
	  <point x="164" y="579" type="line"/>
	  <point x="164" y="141"/>
	  <point x="364" y="-25"/>
	  <point x="665" y="-25" type="curve" smooth="yes"/>
	  <point x="967" y="-25"/>
	  <point x="1166" y="141"/>
	  <point x="1166" y="579" type="curve" smooth="yes"/>
	  <point x="1166" y="1340" type="line"/>
	  <point x="954" y="1340" type="line"/>
	  <point x="954" y="565" type="line"/>
	  <point x="954" y="265"/>
	  <point x="833" y="167"/>
	  <point x="665" y="167" type="curve" smooth="yes"/>
	  <point x="500" y="167"/>
	  <point x="385" y="265"/>
	  <point x="385" y="565" type="curve" smooth="yes"/>
	  <point x="385" y="1340" type="line"/>
	  <point x="164" y="1340" type="line"/>
	</contour>
	<contour>
	  <point x="790" y="1450" type="curve" smooth="yes"/>
	  <point x="892" y="1450"/>
	  <point x="966" y="1544"/>
	  <point x="981" y="1693" type="curve"/>
	  <point x="864" y="1693" type="line"/>
	  <point x="853" y="1626"/>
	  <point x="822" y="1592"/>
	  <point x="783" y="1592" type="curve" smooth="yes"/>
	  <point x="713" y="1592"/>
	  <point x="648" y="1693"/>
	  <point x="539" y="1693" type="curve" smooth="yes"/>
	  <point x="437" y="1693"/>
	  <point x="364" y="1599"/>
	  <point x="349" y="1450" type="curve"/>
	  <point x="464" y="1450" type="line"/>
	  <point x="478" y="1519"/>
	  <point x="508" y="1551"/>
	  <point x="547" y="1551" type="curve" smooth="yes"/>
	  <point x="617" y="1551"/>
	  <point x="682" y="1450"/>
	</contour>
  </outline>
</glyph>
<glyph name="utilde" format="1">
  <advance width="1133"/>
  <unicode hex="0169"/>
  <outline>
	<contour>
	  <point x="142" y="373" type="line"/>
	  <point x="142" y="119"/>
	  <point x="236" y="-25"/>
	  <point x="451" y="-25" type="curve" smooth="yes"/>
	  <point x="589" y="-25"/>
	  <point x="686" y="44"/>
	  <point x="775" y="150" type="curve"/>
	  <point x="782" y="150" type="line"/>
	  <point x="799" y="0" type="line"/>
	  <point x="979" y="0" type="line"/>
	  <point x="979" y="1003" type="line"/>
	  <point x="760" y="1003" type="line"/>
	  <point x="760" y="310" type="line"/>
	  <point x="679" y="207"/>
	  <point x="618" y="163"/>
	  <point x="526" y="163" type="curve" smooth="yes"/>
	  <point x="411" y="163"/>
	  <point x="362" y="231"/>
	  <point x="362" y="401" type="curve" smooth="yes"/>
	  <point x="362" y="1003" type="line"/>
	  <point x="142" y="1003" type="line"/>
	</contour>
	<contour>
	  <point x="261" y="1183" type="curve"/>
	  <point x="380" y="1183" type="line"/>
	  <point x="392" y="1251"/>
	  <point x="415" y="1282"/>
	  <point x="452" y="1282" type="curve" smooth="yes"/>
	  <point x="519" y="1282"/>
	  <point x="584" y="1183"/>
	  <point x="689" y="1183" type="curve" smooth="yes"/>
	  <point x="794" y="1183"/>
	  <point x="858" y="1276"/>
	  <point x="875" y="1422" type="curve"/>
	  <point x="756" y="1422" type="line"/>
	  <point x="742" y="1354"/>
	  <point x="721" y="1323"/>
	  <point x="682" y="1323" type="curve" smooth="yes"/>
	  <point x="619" y="1323"/>
	  <point x="551" y="1422"/>
	  <point x="446" y="1422" type="curve" smooth="yes"/>
	  <point x="342" y="1422"/>
	  <point x="278" y="1330"/>
	</contour>
  </outline>
</glyph>
<glyph name="Umacron" format="1">
  <advance width="1329"/>
  <unicode hex="016A"/>
  <outline>
	<contour>
	  <point x="164" y="579" type="line"/>
	  <point x="164" y="141"/>
	  <point x="364" y="-25"/>
	  <point x="665" y="-25" type="curve" smooth="yes"/>
	  <point x="967" y="-25"/>
	  <point x="1166" y="141"/>
	  <point x="1166" y="579" type="curve" smooth="yes"/>
	  <point x="1166" y="1340" type="line"/>
	  <point x="954" y="1340" type="line"/>
	  <point x="954" y="565" type="line"/>
	  <point x="954" y="265"/>
	  <point x="833" y="167"/>
	  <point x="665" y="167" type="curve" smooth="yes"/>
	  <point x="500" y="167"/>
	  <point x="385" y="265"/>
	  <point x="385" y="565" type="curve" smooth="yes"/>
	  <point x="385" y="1340" type="line"/>
	  <point x="164" y="1340" type="line"/>
	</contour>
	<contour>
	  <point x="396" y="1486" type="line"/>
	  <point x="932" y="1486" type="line"/>
	  <point x="932" y="1631" type="line"/>
	  <point x="396" y="1631" type="line"/>
	</contour>
  </outline>
</glyph>
<glyph name="umacron" format="1">
  <advance width="1133"/>
  <unicode hex="016B"/>
  <outline>
	<contour>
	  <point x="142" y="373" type="line"/>
	  <point x="142" y="119"/>
	  <point x="236" y="-25"/>
	  <point x="451" y="-25" type="curve" smooth="yes"/>
	  <point x="589" y="-25"/>
	  <point x="686" y="44"/>
	  <point x="775" y="150" type="curve"/>
	  <point x="782" y="150" type="line"/>
	  <point x="799" y="0" type="line"/>
	  <point x="979" y="0" type="line"/>
	  <point x="979" y="1003" type="line"/>
	  <point x="760" y="1003" type="line"/>
	  <point x="760" y="310" type="line"/>
	  <point x="679" y="207"/>
	  <point x="618" y="163"/>
	  <point x="526" y="163" type="curve" smooth="yes"/>
	  <point x="411" y="163"/>
	  <point x="362" y="231"/>
	  <point x="362" y="401" type="curve" smooth="yes"/>
	  <point x="362" y="1003" type="line"/>
	  <point x="142" y="1003" type="line"/>
	</contour>
	<contour>
	  <point x="300" y="1224" type="line"/>
	  <point x="826" y="1224" type="line"/>
	  <point x="826" y="1369" type="line"/>
	  <point x="300" y="1369" type="line"/>
	</contour>
  </outline>
</glyph>
<glyph name="Ubreve" format="1">
  <advance width="1329"/>
  <unicode hex="016C"/>
  <outline>
	<contour>
	  <point x="164" y="579" type="line"/>
	  <point x="164" y="141"/>
	  <point x="364" y="-25"/>
	  <point x="665" y="-25" type="curve" smooth="yes"/>
	  <point x="967" y="-25"/>
	  <point x="1166" y="141"/>
	  <point x="1166" y="579" type="curve" smooth="yes"/>
	  <point x="1166" y="1340" type="line"/>
	  <point x="954" y="1340" type="line"/>
	  <point x="954" y="565" type="line"/>
	  <point x="954" y="265"/>
	  <point x="833" y="167"/>
	  <point x="665" y="167" type="curve" smooth="yes"/>
	  <point x="500" y="167"/>
	  <point x="385" y="265"/>
	  <point x="385" y="565" type="curve" smooth="yes"/>
	  <point x="385" y="1340" type="line"/>
	  <point x="164" y="1340" type="line"/>
	</contour>
	<contour>
	  <point x="665" y="1445" type="curve" smooth="yes"/>
	  <point x="834" y="1445"/>
	  <point x="914" y="1552"/>
	  <point x="926" y="1678" type="curve"/>
	  <point x="801" y="1678" type="line"/>
	  <point x="789" y="1618"/>
	  <point x="749" y="1562"/>
	  <point x="665" y="1562" type="curve" smooth="yes"/>
	  <point x="580" y="1562"/>
	  <point x="540" y="1618"/>
	  <point x="528" y="1678" type="curve"/>
	  <point x="401" y="1678" type="line"/>
	  <point x="417" y="1552"/>
	  <point x="495" y="1445"/>
	</contour>
  </outline>
</glyph>
<glyph name="ubreve" format="1">
  <advance width="1133"/>
  <unicode hex="016D"/>
  <outline>
	<contour>
	  <point x="142" y="373" type="line"/>
	  <point x="142" y="119"/>
	  <point x="236" y="-25"/>
	  <point x="451" y="-25" type="curve" smooth="yes"/>
	  <point x="589" y="-25"/>
	  <point x="686" y="44"/>
	  <point x="775" y="150" type="curve"/>
	  <point x="782" y="150" type="line"/>
	  <point x="799" y="0" type="line"/>
	  <point x="979" y="0" type="line"/>
	  <point x="979" y="1003" type="line"/>
	  <point x="760" y="1003" type="line"/>
	  <point x="760" y="310" type="line"/>
	  <point x="679" y="207"/>
	  <point x="618" y="163"/>
	  <point x="526" y="163" type="curve" smooth="yes"/>
	  <point x="411" y="163"/>
	  <point x="362" y="231"/>
	  <point x="362" y="401" type="curve" smooth="yes"/>
	  <point x="362" y="1003" type="line"/>
	  <point x="142" y="1003" type="line"/>
	</contour>
	<contour>
	  <point x="567" y="1177" type="curve" smooth="yes"/>
	  <point x="749" y="1177"/>
	  <point x="828" y="1315"/>
	  <point x="836" y="1446" type="curve"/>
	  <point x="708" y="1446" type="line"/>
	  <point x="697" y="1372"/>
	  <point x="654" y="1305"/>
	  <point x="567" y="1305" type="curve" smooth="yes"/>
	  <point x="482" y="1305"/>
	  <point x="437" y="1372"/>
	  <point x="427" y="1446" type="curve"/>
	  <point x="299" y="1446" type="line"/>
	  <point x="307" y="1315"/>
	  <point x="386" y="1177"/>
	</contour>
  </outline>
</glyph>
<glyph name="Uring" format="1">
  <advance width="1329"/>
  <unicode hex="016E"/>
  <outline>
	<contour>
	  <point x="164" y="579" type="line"/>
	  <point x="164" y="141"/>
	  <point x="364" y="-25"/>
	  <point x="665" y="-25" type="curve" smooth="yes"/>
	  <point x="967" y="-25"/>
	  <point x="1166" y="141"/>
	  <point x="1166" y="579" type="curve" smooth="yes"/>
	  <point x="1166" y="1340" type="line"/>
	  <point x="954" y="1340" type="line"/>
	  <point x="954" y="565" type="line"/>
	  <point x="954" y="265"/>
	  <point x="833" y="167"/>
	  <point x="665" y="167" type="curve" smooth="yes"/>
	  <point x="500" y="167"/>
	  <point x="385" y="265"/>
	  <point x="385" y="565" type="curve" smooth="yes"/>
	  <point x="385" y="1340" type="line"/>
	  <point x="164" y="1340" type="line"/>
	</contour>
	<contour>
	  <point x="665" y="1430" type="curve" smooth="yes"/>
	  <point x="783" y="1430"/>
	  <point x="871" y="1503"/>
	  <point x="871" y="1618" type="curve" smooth="yes"/>
	  <point x="871" y="1731"/>
	  <point x="783" y="1806"/>
	  <point x="665" y="1806" type="curve" smooth="yes"/>
	  <point x="544" y="1806"/>
	  <point x="459" y="1731"/>
	  <point x="459" y="1618" type="curve" smooth="yes"/>
	  <point x="459" y="1503"/>
	  <point x="544" y="1430"/>
	</contour>
	<contour>
	  <point x="665" y="1518" type="curve" smooth="yes"/>
	  <point x="614" y="1518"/>
	  <point x="572" y="1555"/>
	  <point x="572" y="1618" type="curve" smooth="yes"/>
	  <point x="572" y="1677"/>
	  <point x="614" y="1716"/>
	  <point x="665" y="1716" type="curve" smooth="yes"/>
	  <point x="715" y="1716"/>
	  <point x="756" y="1677"/>
	  <point x="756" y="1618" type="curve" smooth="yes"/>
	  <point x="756" y="1555"/>
	  <point x="715" y="1518"/>
	</contour>
  </outline>
</glyph>
<glyph name="uring" format="1">
  <advance width="1133"/>
  <unicode hex="016F"/>
  <outline>
	<contour>
	  <point x="142" y="373" type="line"/>
	  <point x="142" y="119"/>
	  <point x="236" y="-25"/>
	  <point x="451" y="-25" type="curve" smooth="yes"/>
	  <point x="589" y="-25"/>
	  <point x="686" y="44"/>
	  <point x="775" y="150" type="curve"/>
	  <point x="782" y="150" type="line"/>
	  <point x="799" y="0" type="line"/>
	  <point x="979" y="0" type="line"/>
	  <point x="979" y="1003" type="line"/>
	  <point x="760" y="1003" type="line"/>
	  <point x="760" y="310" type="line"/>
	  <point x="679" y="207"/>
	  <point x="618" y="163"/>
	  <point x="526" y="163" type="curve" smooth="yes"/>
	  <point x="411" y="163"/>
	  <point x="362" y="231"/>
	  <point x="362" y="401" type="curve" smooth="yes"/>
	  <point x="362" y="1003" type="line"/>
	  <point x="142" y="1003" type="line"/>
	</contour>
	<contour>
	  <point x="567" y="1115" type="curve" smooth="yes"/>
	  <point x="689" y="1115"/>
	  <point x="775" y="1193"/>
	  <point x="775" y="1312" type="curve" smooth="yes"/>
	  <point x="775" y="1430"/>
	  <point x="689" y="1508"/>
	  <point x="567" y="1508" type="curve" smooth="yes"/>
	  <point x="446" y="1508"/>
	  <point x="361" y="1430"/>
	  <point x="361" y="1312" type="curve" smooth="yes"/>
	  <point x="361" y="1193"/>
	  <point x="446" y="1115"/>
	</contour>
	<contour>
	  <point x="567" y="1205" type="curve" smooth="yes"/>
	  <point x="517" y="1205"/>
	  <point x="475" y="1247"/>
	  <point x="475" y="1312" type="curve" smooth="yes"/>
	  <point x="475" y="1376"/>
	  <point x="517" y="1418"/>
	  <point x="567" y="1418" type="curve" smooth="yes"/>
	  <point x="619" y="1418"/>
	  <point x="660" y="1376"/>
	  <point x="660" y="1312" type="curve" smooth="yes"/>
	  <point x="660" y="1247"/>
	  <point x="619" y="1205"/>
	</contour>
  </outline>
</glyph>
<glyph name="Uhungarumlaut" format="1">
  <advance width="1329"/>
  <unicode hex="0170"/>
  <outline>
	<contour>
	  <point x="164" y="579" type="line"/>
	  <point x="164" y="141"/>
	  <point x="364" y="-25"/>
	  <point x="665" y="-25" type="curve" smooth="yes"/>
	  <point x="967" y="-25"/>
	  <point x="1166" y="141"/>
	  <point x="1166" y="579" type="curve" smooth="yes"/>
	  <point x="1166" y="1340" type="line"/>
	  <point x="954" y="1340" type="line"/>
	  <point x="954" y="565" type="line"/>
	  <point x="954" y="265"/>
	  <point x="833" y="167"/>
	  <point x="665" y="167" type="curve" smooth="yes"/>
	  <point x="500" y="167"/>
	  <point x="385" y="265"/>
	  <point x="385" y="565" type="curve" smooth="yes"/>
	  <point x="385" y="1340" type="line"/>
	  <point x="164" y="1340" type="line"/>
	</contour>
	<contour>
	  <point x="572" y="1443" type="line"/>
	  <point x="748" y="1678" type="line"/>
	  <point x="552" y="1678" type="line"/>
	  <point x="419" y="1443" type="line"/>
	</contour>
	<contour>
	  <point x="760" y="1443" type="line"/>
	  <point x="913" y="1443" type="line"/>
	  <point x="1088" y="1678" type="line"/>
	  <point x="893" y="1678" type="line"/>
	</contour>
  </outline>
</glyph>
<glyph name="uhungarumlaut" format="1">
  <advance width="1133"/>
  <unicode hex="0171"/>
  <outline>
	<contour>
	  <point x="142" y="373" type="line"/>
	  <point x="142" y="119"/>
	  <point x="236" y="-25"/>
	  <point x="451" y="-25" type="curve" smooth="yes"/>
	  <point x="589" y="-25"/>
	  <point x="686" y="44"/>
	  <point x="775" y="150" type="curve"/>
	  <point x="782" y="150" type="line"/>
	  <point x="799" y="0" type="line"/>
	  <point x="979" y="0" type="line"/>
	  <point x="979" y="1003" type="line"/>
	  <point x="760" y="1003" type="line"/>
	  <point x="760" y="310" type="line"/>
	  <point x="679" y="207"/>
	  <point x="618" y="163"/>
	  <point x="526" y="163" type="curve" smooth="yes"/>
	  <point x="411" y="163"/>
	  <point x="362" y="231"/>
	  <point x="362" y="401" type="curve" smooth="yes"/>
	  <point x="362" y="1003" type="line"/>
	  <point x="142" y="1003" type="line"/>
	</contour>
	<contour>
	  <point x="345" y="1171" type="line"/>
	  <point x="485" y="1171" type="line"/>
	  <point x="671" y="1470" type="line"/>
	  <point x="489" y="1470" type="line"/>
	</contour>
	<contour>
	  <point x="664" y="1171" type="line"/>
	  <point x="805" y="1171" type="line"/>
	  <point x="991" y="1470" type="line"/>
	  <point x="808" y="1470" type="line"/>
	</contour>
  </outline>
</glyph>
<glyph name="Ycircumflex" format="1">
  <advance width="1006"/>
  <unicode hex="0176"/>
  <outline>
	<contour>
	  <point x="392" y="0" type="line"/>
	  <point x="612" y="0" type="line"/>
	  <point x="612" y="503" type="line"/>
	  <point x="1016" y="1340" type="line"/>
	  <point x="787" y="1340" type="line"/>
	  <point x="634" y="989" type="line"/>
	  <point x="595" y="890"/>
	  <point x="550" y="796"/>
	  <point x="508" y="695" type="curve"/>
	  <point x="500" y="695" type="line"/>
	  <point x="456" y="796"/>
	  <point x="418" y="890"/>
	  <point x="378" y="989" type="curve" smooth="yes"/>
	  <point x="225" y="1340" type="line"/>
	  <point x="-11" y="1340" type="line"/>
	  <point x="392" y="503" type="line"/>
	</contour>
	<contour>
	  <point x="372" y="1443" type="line"/>
	  <point x="498" y="1577" type="line"/>
	  <point x="506" y="1577" type="line"/>
	  <point x="633" y="1443" type="line"/>
	  <point x="805" y="1443" type="line"/>
	  <point x="608" y="1678" type="line"/>
	  <point x="396" y="1678" type="line"/>
	  <point x="200" y="1443" type="line"/>
	</contour>
  </outline>
</glyph>
<glyph name="ycircumflex" format="1">
  <advance width="998"/>
  <unicode hex="0177"/>
  <outline>
	<contour>
	  <point x="121" y="-226" type="curve"/>
	  <point x="81" y="-396" type="line"/>
	  <point x="116" y="-408"/>
	  <point x="156" y="-416"/>
	  <point x="208" y="-416" type="curve" smooth="yes"/>
	  <point x="423" y="-416"/>
	  <point x="528" y="-274"/>
	  <point x="608" y="-55" type="curve" smooth="yes"/>
	  <point x="974" y="1003" type="line"/>
	  <point x="763" y="1003" type="line"/>
	  <point x="606" y="496" type="line"/>
	  <point x="579" y="404"/>
	  <point x="554" y="305"/>
	  <point x="527" y="212" type="curve"/>
	  <point x="519" y="212" type="line"/>
	  <point x="490" y="308"/>
	  <point x="459" y="407"/>
	  <point x="428" y="496" type="curve" smooth="yes"/>
	  <point x="248" y="1003" type="line"/>
	  <point x="25" y="1003" type="line"/>
	  <point x="421" y="9" type="line"/>
	  <point x="401" y="-57" type="line"/>
	  <point x="366" y="-164"/>
	  <point x="302" y="-240"/>
	  <point x="194" y="-240" type="curve" smooth="yes"/>
	  <point x="171" y="-240"/>
	  <point x="141" y="-232"/>
	</contour>
	<contour>
	  <point x="234" y="1175" type="line"/>
	  <point x="386" y="1175" type="line"/>
	  <point x="513" y="1351" type="line"/>
	  <point x="521" y="1351" type="line"/>
	  <point x="647" y="1175" type="line"/>
	  <point x="800" y="1175" type="line"/>
	  <point x="605" y="1470" type="line"/>
	  <point x="427" y="1470" type="line"/>
	</contour>
  </outline>
</glyph>
<glyph name="Ydieresis" format="1">
  <advance width="1006"/>
  <unicode hex="0178"/>
  <outline>
	<contour>
	  <point x="392" y="0" type="line"/>
	  <point x="612" y="0" type="line"/>
	  <point x="612" y="503" type="line"/>
	  <point x="1016" y="1340" type="line"/>
	  <point x="787" y="1340" type="line"/>
	  <point x="634" y="989" type="line"/>
	  <point x="595" y="890"/>
	  <point x="550" y="796"/>
	  <point x="508" y="695" type="curve"/>
	  <point x="500" y="695" type="line"/>
	  <point x="456" y="796"/>
	  <point x="418" y="890"/>
	  <point x="378" y="989" type="curve" smooth="yes"/>
	  <point x="225" y="1340" type="line"/>
	  <point x="-11" y="1340" type="line"/>
	  <point x="392" y="503" type="line"/>
	</contour>
	<contour>
	  <point x="316" y="1453" type="curve" smooth="yes"/>
	  <point x="383" y="1453"/>
	  <point x="433" y="1502"/>
	  <point x="433" y="1570" type="curve" smooth="yes"/>
	  <point x="433" y="1637"/>
	  <point x="383" y="1686"/>
	  <point x="316" y="1686" type="curve" smooth="yes"/>
	  <point x="249" y="1686"/>
	  <point x="199" y="1637"/>
	  <point x="199" y="1570" type="curve" smooth="yes"/>
	  <point x="199" y="1502"/>
	  <point x="249" y="1453"/>
	</contour>
	<contour>
	  <point x="690" y="1453" type="curve" smooth="yes"/>
	  <point x="757" y="1453"/>
	  <point x="807" y="1502"/>
	  <point x="807" y="1570" type="curve" smooth="yes"/>
	  <point x="807" y="1637"/>
	  <point x="757" y="1686"/>
	  <point x="690" y="1686" type="curve" smooth="yes"/>
	  <point x="621" y="1686"/>
	  <point x="573" y="1637"/>
	  <point x="573" y="1570" type="curve" smooth="yes"/>
	  <point x="573" y="1502"/>
	  <point x="621" y="1453"/>
	</contour>
  </outline>
</glyph>
<glyph name="Zacute" format="1">
  <advance width="1099"/>
  <unicode hex="0179"/>
  <outline>
	<contour>
	  <point x="81" y="0" type="line"/>
	  <point x="1022" y="0" type="line"/>
	  <point x="1022" y="187" type="line"/>
	  <point x="353" y="187" type="line"/>
	  <point x="1017" y="1209" type="line"/>
	  <point x="1017" y="1340" type="line"/>
	  <point x="141" y="1340" type="line"/>
	  <point x="141" y="1155" type="line"/>
	  <point x="744" y="1155" type="line"/>
	  <point x="81" y="133" type="line"/>
	</contour>
	<contour>
	  <point x="865" y="1678" type="line"/>
	  <point x="624" y="1678" type="line"/>
	  <point x="450" y="1443" type="line"/>
	  <point x="629" y="1443" type="line"/>
	</contour>
  </outline>
</glyph>
<glyph name="Zdotaccent" format="1">
  <advance width="1099"/>
  <unicode hex="017B"/>
  <outline>
	<contour>
	  <point x="81" y="0" type="line"/>
	  <point x="1022" y="0" type="line"/>
	  <point x="1022" y="187" type="line"/>
	  <point x="353" y="187" type="line"/>
	  <point x="1017" y="1209" type="line"/>
	  <point x="1017" y="1340" type="line"/>
	  <point x="141" y="1340" type="line"/>
	  <point x="141" y="1155" type="line"/>
	  <point x="744" y="1155" type="line"/>
	  <point x="81" y="133" type="line"/>
	</contour>
	<contour>
	  <point x="572" y="1452" type="curve" smooth="yes"/>
	  <point x="652" y="1452"/>
	  <point x="712" y="1505"/>
	  <point x="712" y="1581" type="curve" smooth="yes"/>
	  <point x="712" y="1655"/>
	  <point x="652" y="1708"/>
	  <point x="572" y="1708" type="curve" smooth="yes"/>
	  <point x="494" y="1708"/>
	  <point x="434" y="1655"/>
	  <point x="434" y="1581" type="curve" smooth="yes"/>
	  <point x="434" y="1505"/>
	  <point x="494" y="1452"/>
	</contour>
  </outline>
</glyph>
<glyph name="zdotaccent" format="1">
  <advance width="897"/>
  <unicode hex="017C"/>
  <outline>
	<contour>
	  <point x="69" y="0" type="line"/>
	  <point x="846" y="0" type="line"/>
	  <point x="846" y="175" type="line"/>
	  <point x="344" y="175" type="line"/>
	  <point x="831" y="886" type="line"/>
	  <point x="831" y="1003" type="line"/>
	  <point x="123" y="1003" type="line"/>
	  <point x="123" y="828" type="line"/>
	  <point x="556" y="828" type="line"/>
	  <point x="69" y="117" type="line"/>
	</contour>
	<contour>
	  <point x="482" y="1187" type="curve" smooth="yes"/>
	  <point x="558" y="1187"/>
	  <point x="614" y="1240"/>
	  <point x="614" y="1316" type="curve" smooth="yes"/>
	  <point x="614" y="1390"/>
	  <point x="558" y="1444"/>
	  <point x="482" y="1444" type="curve" smooth="yes"/>
	  <point x="404" y="1444"/>
	  <point x="350" y="1390"/>
	  <point x="350" y="1316" type="curve" smooth="yes"/>
	  <point x="350" y="1240"/>
	  <point x="404" y="1187"/>
	</contour>
  </outline>
</glyph>
<glyph name="Zcaron" format="1">
  <advance width="1099"/>
  <unicode hex="017D"/>
  <outline>
	<contour>
	  <point x="81" y="0" type="line"/>
	  <point x="1022" y="0" type="line"/>
	  <point x="1022" y="187" type="line"/>
	  <point x="353" y="187" type="line"/>
	  <point x="1017" y="1209" type="line"/>
	  <point x="1017" y="1340" type="line"/>
	  <point x="141" y="1340" type="line"/>
	  <point x="141" y="1155" type="line"/>
	  <point x="744" y="1155" type="line"/>
	  <point x="81" y="133" type="line"/>
	</contour>
	<contour>
	  <point x="704" y="1678" type="line"/>
	  <point x="576" y="1545" type="line"/>
	  <point x="568" y="1545" type="line"/>
	  <point x="442" y="1678" type="line"/>
	  <point x="271" y="1678" type="line"/>
	  <point x="467" y="1443" type="line"/>
	  <point x="679" y="1443" type="line"/>
	  <point x="876" y="1678" type="line"/>
	</contour>
  </outline>
</glyph>
<glyph name="zcaron" format="1">
  <advance width="897"/>
  <unicode hex="017E"/>
  <outline>
	<contour>
	  <point x="69" y="0" type="line"/>
	  <point x="846" y="0" type="line"/>
	  <point x="846" y="175" type="line"/>
	  <point x="344" y="175" type="line"/>
	  <point x="831" y="886" type="line"/>
	  <point x="831" y="1003" type="line"/>
	  <point x="123" y="1003" type="line"/>
	  <point x="123" y="828" type="line"/>
	  <point x="556" y="828" type="line"/>
	  <point x="69" y="117" type="line"/>
	</contour>
	<contour>
	  <point x="393" y="1175" type="line"/>
	  <point x="570" y="1175" type="line"/>
	  <point x="765" y="1470" type="line"/>
	  <point x="612" y="1470" type="line"/>
	  <point x="486" y="1292" type="line"/>
	  <point x="478" y="1292" type="line"/>
	  <point x="351" y="1470" type="line"/>
	  <point x="198" y="1470" type="line"/>
	</contour>
  </outline>
</glyph>
<glyph name="uni01CE" format="1">
  <advance width="1066"/>
  <unicode hex="01CE"/>
  <outline>
	<contour>
	  <point x="110" y="268" type="curve" smooth="yes"/>
	  <point x="110" y="92"/>
	  <point x="232" y="-25"/>
	  <point x="406" y="-25" type="curve" smooth="yes"/>
	  <point x="526" y="-25"/>
	  <point x="631" y="36"/>
	  <point x="723" y="113" type="curve"/>
	  <point x="728" y="113" type="line"/>
	  <point x="746" y="0" type="line"/>
	  <point x="926" y="0" type="line"/>
	  <point x="926" y="599" type="line"/>
	  <point x="926" y="871"/>
	  <point x="808" y="1028"/>
	  <point x="558" y="1028" type="curve" smooth="yes"/>
	  <point x="398" y="1028"/>
	  <point x="256" y="963"/>
	  <point x="150" y="897" type="curve"/>
	  <point x="232" y="749" type="line"/>
	  <point x="318" y="804"/>
	  <point x="415" y="850"/>
	  <point x="519" y="850" type="curve" smooth="yes"/>
	  <point x="661" y="850"/>
	  <point x="705" y="752"/>
	  <point x="707" y="639" type="curve"/>
	  <point x="291" y="595"/>
	  <point x="110" y="483"/>
	</contour>
	<contour>
	  <point x="322" y="283" type="curve" smooth="yes"/>
	  <point x="322" y="392"/>
	  <point x="418" y="466"/>
	  <point x="707" y="502" type="curve"/>
	  <point x="707" y="263" type="line"/>
	  <point x="627" y="190"/>
	  <point x="560" y="148"/>
	  <point x="475" y="148" type="curve" smooth="yes"/>
	  <point x="386" y="148"/>
	  <point x="322" y="189"/>
	</contour>
	<contour>
	  <point x="471" y="1175" type="line"/>
	  <point x="649" y="1175" type="line"/>
	  <point x="844" y="1470" type="line"/>
	  <point x="690" y="1470" type="line"/>
	  <point x="565" y="1292" type="line"/>
	  <point x="556" y="1292" type="line"/>
	  <point x="429" y="1470" type="line"/>
	  <point x="277" y="1470" type="line"/>
	</contour>
  </outline>
</glyph>
<glyph name="uni01CF" format="1">
  <advance width="561"/>
  <unicode hex="01CF"/>
  <outline>
	<contour>
	  <point x="170" y="0" type="line"/>
	  <point x="392" y="0" type="line"/>
	  <point x="392" y="1340" type="line"/>
	  <point x="170" y="1340" type="line"/>
	</contour>
	<contour>
	  <point x="411" y="1678" type="line"/>
	  <point x="284" y="1545" type="line"/>
	  <point x="276" y="1545" type="line"/>
	  <point x="150" y="1678" type="line"/>
	  <point x="-23" y="1678" type="line"/>
	  <point x="174" y="1443" type="line"/>
	  <point x="388" y="1443" type="line"/>
	  <point x="584" y="1678" type="line"/>
	</contour>
  </outline>
</glyph>
<glyph name="uni01D0" format="1">
  <advance width="527"/>
  <unicode hex="01D0"/>
  <outline>
	<contour>
	  <point x="155" y="0" type="line"/>
	  <point x="373" y="0" type="line"/>
	  <point x="373" y="1003" type="line"/>
	  <point x="155" y="1003" type="line"/>
	</contour>
	<contour>
	  <point x="175" y="1175" type="line"/>
	  <point x="353" y="1175" type="line"/>
	  <point x="547" y="1470" type="line"/>
	  <point x="394" y="1470" type="line"/>
	  <point x="268" y="1292" type="line"/>
	  <point x="260" y="1292" type="line"/>
	  <point x="134" y="1470" type="line"/>
	  <point x="-19" y="1470" type="line"/>
	</contour>
  </outline>
</glyph>
<glyph name="uni01D2" format="1">
  <advance width="1120"/>
  <unicode hex="01D2"/>
  <outline>
	<contour>
	  <point x="86" y="501" type="curve" smooth="yes"/>
	  <point x="86" y="168"/>
	  <point x="311" y="-25"/>
	  <point x="560" y="-25" type="curve" smooth="yes"/>
	  <point x="809" y="-25"/>
	  <point x="1034" y="168"/>
	  <point x="1034" y="501" type="curve" smooth="yes"/>
	  <point x="1034" y="835"/>
	  <point x="809" y="1028"/>
	  <point x="560" y="1028" type="curve" smooth="yes"/>
	  <point x="311" y="1028"/>
	  <point x="86" y="835"/>
	</contour>
	<contour>
	  <point x="312" y="501" type="curve" smooth="yes"/>
	  <point x="312" y="709"/>
	  <point x="408" y="849"/>
	  <point x="560" y="849" type="curve" smooth="yes"/>
	  <point x="714" y="849"/>
	  <point x="809" y="709"/>
	  <point x="809" y="501" type="curve" smooth="yes"/>
	  <point x="809" y="292"/>
	  <point x="714" y="155"/>
	  <point x="560" y="155" type="curve" smooth="yes"/>
	  <point x="408" y="155"/>
	  <point x="312" y="292"/>
	</contour>
	<contour>
	  <point x="471" y="1175" type="line"/>
	  <point x="649" y="1175" type="line"/>
	  <point x="844" y="1470" type="line"/>
	  <point x="691" y="1470" type="line"/>
	  <point x="564" y="1292" type="line"/>
	  <point x="556" y="1292" type="line"/>
	  <point x="430" y="1470" type="line"/>
	  <point x="277" y="1470" type="line"/>
	</contour>
  </outline>
</glyph>
<glyph name="uni01D3" format="1">
  <advance width="1329"/>
  <unicode hex="01D3"/>
  <outline>
	<contour>
	  <point x="164" y="579" type="line"/>
	  <point x="164" y="141"/>
	  <point x="364" y="-25"/>
	  <point x="665" y="-25" type="curve" smooth="yes"/>
	  <point x="967" y="-25"/>
	  <point x="1166" y="141"/>
	  <point x="1166" y="579" type="curve" smooth="yes"/>
	  <point x="1166" y="1340" type="line"/>
	  <point x="954" y="1340" type="line"/>
	  <point x="954" y="565" type="line"/>
	  <point x="954" y="265"/>
	  <point x="833" y="167"/>
	  <point x="665" y="167" type="curve" smooth="yes"/>
	  <point x="500" y="167"/>
	  <point x="385" y="265"/>
	  <point x="385" y="565" type="curve" smooth="yes"/>
	  <point x="385" y="1340" type="line"/>
	  <point x="164" y="1340" type="line"/>
	</contour>
	<contour>
	  <point x="795" y="1678" type="line"/>
	  <point x="669" y="1545" type="line"/>
	  <point x="661" y="1545" type="line"/>
	  <point x="533" y="1678" type="line"/>
	  <point x="361" y="1678" type="line"/>
	  <point x="557" y="1443" type="line"/>
	  <point x="771" y="1443" type="line"/>
	  <point x="968" y="1678" type="line"/>
	</contour>
  </outline>
</glyph>
<glyph name="uni01D9" format="1">
  <advance width="1329"/>
  <unicode hex="01D9"/>
  <outline>
	<contour>
	  <point x="164" y="579" type="line"/>
	  <point x="164" y="141"/>
	  <point x="364" y="-25"/>
	  <point x="665" y="-25" type="curve" smooth="yes"/>
	  <point x="967" y="-25"/>
	  <point x="1166" y="141"/>
	  <point x="1166" y="579" type="curve" smooth="yes"/>
	  <point x="1166" y="1340" type="line"/>
	  <point x="954" y="1340" type="line"/>
	  <point x="954" y="565" type="line"/>
	  <point x="954" y="265"/>
	  <point x="833" y="167"/>
	  <point x="665" y="167" type="curve" smooth="yes"/>
	  <point x="500" y="167"/>
	  <point x="385" y="265"/>
	  <point x="385" y="565" type="curve" smooth="yes"/>
	  <point x="385" y="1340" type="line"/>
	  <point x="164" y="1340" type="line"/>
	</contour>
	<contour>
	  <point x="478" y="1453" type="curve" smooth="yes"/>
	  <point x="539" y="1453"/>
	  <point x="583" y="1498"/>
	  <point x="583" y="1560" type="curve" smooth="yes"/>
	  <point x="583" y="1619"/>
	  <point x="539" y="1664"/>
	  <point x="478" y="1664" type="curve" smooth="yes"/>
	  <point x="416" y="1664"/>
	  <point x="373" y="1619"/>
	  <point x="373" y="1560" type="curve" smooth="yes"/>
	  <point x="373" y="1498"/>
	  <point x="416" y="1453"/>
	</contour>
	<contour>
	  <point x="853" y="1453" type="curve" smooth="yes"/>
	  <point x="913" y="1453"/>
	  <point x="957" y="1498"/>
	  <point x="957" y="1560" type="curve" smooth="yes"/>
	  <point x="957" y="1619"/>
	  <point x="913" y="1664"/>
	  <point x="853" y="1664" type="curve" smooth="yes"/>
	  <point x="790" y="1664"/>
	  <point x="745" y="1619"/>
	  <point x="745" y="1560" type="curve" smooth="yes"/>
	  <point x="745" y="1498"/>
	  <point x="790" y="1453"/>
	</contour>
	<contour>
	  <point x="795" y="1965" type="line"/>
	  <point x="669" y="1831" type="line"/>
	  <point x="661" y="1831" type="line"/>
	  <point x="533" y="1965" type="line"/>
	  <point x="361" y="1965" type="line"/>
	  <point x="557" y="1730" type="line"/>
	  <point x="771" y="1730" type="line"/>
	  <point x="968" y="1965" type="line"/>
	</contour>
  </outline>
</glyph>
<glyph name="uni01DC" format="1">
  <advance width="1133"/>
  <unicode hex="01DC"/>
  <outline>
	<contour>
	  <point x="142" y="373" type="line"/>
	  <point x="142" y="119"/>
	  <point x="236" y="-25"/>
	  <point x="451" y="-25" type="curve" smooth="yes"/>
	  <point x="589" y="-25"/>
	  <point x="686" y="44"/>
	  <point x="775" y="150" type="curve"/>
	  <point x="782" y="150" type="line"/>
	  <point x="799" y="0" type="line"/>
	  <point x="979" y="0" type="line"/>
	  <point x="979" y="1003" type="line"/>
	  <point x="760" y="1003" type="line"/>
	  <point x="760" y="310" type="line"/>
	  <point x="679" y="207"/>
	  <point x="618" y="163"/>
	  <point x="526" y="163" type="curve" smooth="yes"/>
	  <point x="411" y="163"/>
	  <point x="362" y="231"/>
	  <point x="362" y="401" type="curve" smooth="yes"/>
	  <point x="362" y="1003" type="line"/>
	  <point x="142" y="1003" type="line"/>
	</contour>
	<contour>
	  <point x="519" y="1705" type="line"/>
	  <point x="320" y="1705" type="line"/>
	  <point x="541" y="1488" type="line"/>
	  <point x="688" y="1488" type="line"/>
	</contour>
	<contour>
	  <point x="754" y="1191" type="curve" smooth="yes"/>
	  <point x="815" y="1191"/>
	  <point x="860" y="1237"/>
	  <point x="860" y="1295" type="curve" smooth="yes"/>
	  <point x="860" y="1356"/>
	  <point x="815" y="1402"/>
	  <point x="754" y="1402" type="curve" smooth="yes"/>
	  <point x="694" y="1402"/>
	  <point x="648" y="1356"/>
	  <point x="648" y="1295" type="curve" smooth="yes"/>
	  <point x="648" y="1237"/>
	  <point x="694" y="1191"/>
	</contour>
	<contour>
	  <point x="381" y="1191" type="curve" smooth="yes"/>
	  <point x="442" y="1191"/>
	  <point x="486" y="1237"/>
	  <point x="486" y="1295" type="curve" smooth="yes"/>
	  <point x="486" y="1356"/>
	  <point x="442" y="1402"/>
	  <point x="381" y="1402" type="curve" smooth="yes"/>
	  <point x="320" y="1402"/>
	  <point x="276" y="1356"/>
	  <point x="276" y="1295" type="curve" smooth="yes"/>
	  <point x="276" y="1237"/>
	  <point x="320" y="1191"/>
	</contour>
  </outline>
</glyph>
